<?xml version="1.0" encoding="utf-8"?>
<!-- reddit.com/u/throwawaythb  -->
<svg version="1.1" id="Layer_1" xmlns="http://www.w3.org/2000/svg" xmlns:xlink="http://www.w3.org/1999/xlink" x="0px" y="0px"
	 viewBox="0 0 4105.3 4105.3" style="enable-background:new 0 0 4105.3 4105.3;" xml:space="preserve">
<style type="text/css">
	.st0{fill:#FCFCFC;}
</style>
<g>
	
		<image style="overflow:visible;enable-background:new    ;" width="768" height="768" xlink:href="original.jpg"  transform="matrix(5.3455 0 0 5.3455 0 0)">
	</image>
</g>
<path d="M3780.1,1991.1c1.4,302.7-49.7,545.5-155.2,776.3c-127.7,279.4-316.8,509.9-566.8,687.5c-89.2,63.2-183.6,118.6-282.4,165.4
	c-186.3,88.5-383.1,142.2-590.6,155.9c-359.9,23.8-698.9-45.2-1011.3-227.4c-317.2-185-552.6-445.2-706.1-780.5
	c-118.6-259.1-168.1-531.4-152.2-815.3c13.9-247.5,77.6-481.8,194.4-701.3c65.8-123.8,142.6-239,237.8-342.8
	c81.1-88.4,164.7-173,261.5-244.6c106.2-78.6,218-147,339-200c195-85.5,398.3-136.5,611.6-144.4c24.9-0.9,50,5.7,75.1,5.8
	c34.6,0.2,69.4-4.7,103.9-3.6c262.3,8.9,507.9,78.7,738.3,203.8c221.5,120.2,407.7,281,558.8,482.4
	c163.3,216.9,270.9,458.9,315.4,727C3768,1835.8,3774.3,1938,3780.1,1991.1z"/>
<g>
	<path class="st0" d="M1018.5,917.2c11.8,1,31.1,5.5,39.4,14.3c19.4,20.6,29.9,46.9,48.3,68.5c11.1,13,23.9,24.4,38.7,39.2
		c12-43.2,15.3-78.3-18.3-107.7c-10.4-9.1-18.2-21.9-25.2-34.2c-3.8-6.8-3.4-16-4.9-24.1l6.8-1.8c4.6,6.2,9.5,12.2,13.9,18.6
		c18.6,26.9,36.4,54.5,55.9,80.8c14.4,19.4,32,22.5,52.8,7.2c15-11,31.4-20.3,47.9-28.7c29.2-14.9,54.2-31.7,46.3-70.7
		c-1.1-4,1.2-8.4,3.9-20.3c25.1,27.1,49.5,32.1,77.5,16.3c16.9-9.5,35.2-16.8,53-24.8c32.2-14.6,67-33.1,61-75.8
		c-1.7-11.9,8.1-21.5,6.5-33.4c-2.3-17.6-1.3-44.1-10.6-58.2c-13-19.6-34.2-36.2-52.7-51.1c-36.4-42.3-78.9-12.8-87.1,24.5
		c30,8.5,24.9,24.5,21.6,32.7c-3.8,9.6-17.3,20.2-27.4,21.1c-8.6,0.8-14.9-12.8-23.8-19.8c-7.8-6.2-16.9-39-20.4-37.4
		c-16,7.5-38,37.2-48.5,50.8c-5.3,6.8,0,24.9,4.9,35.8c8.6,19.2,21.4,36.6,31.1,55.4c14.4,27.8,7.8,36.5-27,35
		c-1.7-7.3-2.7-15.2-5.3-22.6c-10.1-29.4-13.3-63.9-43-80.2c-13.2-7.3-36.8-21.3-50-3.4c-15.3,20.8-11,50.5,7.2,63.4
		c31.3,22.1,31,76.4,7,91.9c-20.1-16.1-25.9-34.5-43.2-50.8c-7.9-7.5-10.9-18.5-17-28.3c-5.7-9.2-25.4-28.8-33.7-34.7
		c-2.6-1.8-18.3,7.8-24.5,14.3c-5.2,5.6-13.8,20.9-14.6,28.3c-3.7,33.1-17,47.6-51.7,45.6c-19.2-1.1-19.2,22.3-18.5,38.5
		C995.3,905.8,1000.3,915.6,1018.5,917.2z M1399.1,761.8c-14.4,15.3-31.7-30-31.7-30S1413.4,746.5,1399.1,761.8z"/>
	<path class="st0" d="M996.6,2926.2l-69.7-8.6c-7.7-25,23.4-57.3-14.3-75.8c-24.9-12.2-50.4-23-74.7-33.9l35.8-32.3
		c-34.1-31.1-75.3-33.2-106.4-7.5c-31.5,26-71.4,44.6-102.6,70.8c-5.6,4.7-48,26.9-52.8,32.7c30.9,23.3,88.2,16,115.9,0
		c29.8-17.1,59.5-34.5,94-54.4c3.2,13,8.9,24.1,7,33.6c-1.1,5.2-15,8.2-23.3,11.5c-11.4,4.6-24.2,6.7-34.4,13.1
		c0,0-15.9,6.1-26.1,17c-10.2,10.9-25.5,32.3-28.9,49c-3.4,16.8,5.5,55.6,5.5,55.6c52.1,30.4,75.9,23.1,79.4,59.9l10.8,51.7
		l58.2-3.1l2.6-59.3C910.1,3014.8,961.1,2984,996.6,2926.2z M796.1,2943.2l5.7-10.7c28.3,0.7,56.7,0.2,89.8,0.2
		C835.9,2997.5,819.3,3000.7,796.1,2943.2z"/>
	<path class="st0" d="M1725.2,2541.4c51.6,52.9,92.4,109.2,157.9,135.2c27.1,58.5,70.5,98.6,123.6,137.2c0.1,0.5,0.9,7.7,2,17.4
		c7.1-3.3,12.6-4.3,15.9-7.6c28.1-28.3,57-55.9,83.1-85.9c17-19.5,29.6-42.8,47.8-69.6c19.5-1.7,118.7-82.3,139-122.9h-241.7
		c5.1,52.4-10.6,88.9-40.8,88.6c-10.2-0.1-21.7-7.9-30.3-14.9c-27.2-22.2-4.8-48.3,0.5-77.5H1725.2z M2009.9,2644
		c23.3,0,68.3-26.6,68.3-26.6s-39.6,39.8-68.3,37.8c-28.7-2-52.2-37.8-52.2-37.8S1986.6,2644,2009.9,2644z"/>
	<path class="st0" d="M2874.2,978c29.1,21.8,55.8,51.8,98.9,39c3.6-1.1,8.5,2.5,12.9,3.8c-0.2,2.8-0.4,5.7-0.6,8.5
		c-17.1,0-34.2-0.8-51.2,0.2c-22.8,1.3-46.1,22.6-46,40.6c0,21.9,17,39.8,40.8,43c18.9-38.2,40.8-47.6,91.3-39
		c0,11.4-1.6,23.1,0.5,34.1c1.4,7.5,7,19.2,12.4,20.1c26.6,4.7,53.8,6.5,84.8,9.7c-10.8-29.5,1.4-35.8,23.5-41.9
		c24.5-6.8,46.6-22.1,69.7-33.7c-1.2-2.9-2.5-5.8-3.7-8.7l-75.8,4.9l-0.9-8.9c20.5-4.1,41-8.7,61.6-12.2
		c13.3-2.3,38.3,4.1,38.9-15.6c0.5-17,6.1-46.7-5-55.9c-25.4-21.1-67.3-41.9-97.2-56.7c-7.4-3.7-24.5,10.6-32,16.1
		c-24.9,18.5-47.1,40.6-72.4,58.5c-7.6,5.4-22.9,4.5-32.8,1.1c-12.9-4.5-23.8-14.4-38-23.5c7-8.9,13.2-17.3,19.9-25.1
		c25.4-29.7,51.5-58.7,75.9-89.1c3.7-4.6,16.5-22.3,12.7-24.5c-19.2-11.4-68.3-1.5-84.3,15.7c-35,37.6-70.4,75-104.2,113.7
		C2869.5,957.3,2869.8,974.7,2874.2,978z M3146.7,959.9c0,0,32.2,16.9,21.4,37.9c-10.7,21.1-27.7,37.9-45.2,37.9
		c-17.6,0-47.4,0-47.4,0L3146.7,959.9z"/>
	<path class="st0" d="M3563,1800.5c-1.1,10.6-4.3,21.1-2.9,30.9c3.1,22.4-9.3,27.8-27.4,29.9c-26,3-45.4-7.9-58.8-28.8
		c-8.8-13.6-10.7-27.2,11.8-30.5c35.2-4.6,101.3-16.2,132.8-21c7.6-30.6,1.6-54,8.6-80.4c8.4-31.6-47.3-69.9-79.6-63.9
		c-39.9,7.4-79.7,15.3-119.2,24.1c-14.4,3.2-20.1-1-20.8-14.9c-1.1-21.8,10-32.2,31.7-29.4c79.5,10.3,132.6-22.9,131.6-98
		c-0.1-11.2-5.7-29.4-12.8-38.3c-13.8-17.2-32.4-31.3-47.5-47.5c-16.6-17.8-44.9-17.2-67.5-8.6c-34.2,13.1-68.7,25.5-104,38.4
		c-13.3-24.6-26.3-50.8-41.4-75.7c-12.1-19.9-14.5-34.7,10.2-46.5c15.1-7.2,28.4-18.2,42.9-26.7c13.1-7.7,26.7-16.5,37.3,4.5
		c12.6,25,10.1,35.7-12.8,47.8c-9.4,5-18.6,10.5-34.5,19.5c25.1,8.8,42.6,14.8,59.9,21.1c21.8,7.9,41.1-1,50.2-18.2
		c13.2-24.8,26.4-57.8,15.3-85.8c-1.3-3.3-14.1-6.1-18.9-8.2c-17.3-7.5-29.8-11.9-34.7-34.2c-4.4-20.1-36.7-22.4-57.4-12.7
		c-44.7,20.8-90.1,40.5-134,63c-10.3,5.3-24.4,22.5-22.2,29.7c13.3,42.5,31.8,82.8,76.6,102.7c17.2,7.6,34.1,16,54.8,25.8
		l-57.9,26.3c0.1,2.6,0.3,5.1,0.4,7.7l78.7,33.1c-5.6,11.8-9.9,22.3-15.4,32.2c-17.6,31.6-13.6,45.5,17.4,62.3
		c15.2,8.2,29.7,17.7,49.2,29.4l-52.8,16.1c20.5,34.8,55.1,53,88.5,46.6c28.8-5.5,57.1-13.1,85.7-19.2c11.9-2.5,24.2-3.4,36.3-4.9
		c0.8,3.8,1.7,7.5,2.5,11.3c-24.5,7.4-48.6,16.3-73.5,21.7c-29.4,6.4-59.4,9.6-89.1,14.5c-13.4,2.2-22.5,7.1-20.9,24.3
		c2.8,29,1.9,58.3,4.7,87.2c4.6,47.7,26.9,62.3,71.2,46.7c2.6,7.3,6.5,14.5,7.5,22.1c2.6,19.7,16.5,27.6,32.9,29.6
		c54.3,6.7,94.9-10.6,136.1-39.8c4-2.8,15.8-27.8,16.6-33.7C3652.7,1847.3,3609.4,1813,3563,1800.5z M3391.6,1527.1l114.4-39.2
		c0,0,18.4,53.1-14.3,61.3C3459,1557.3,3391.6,1527.1,3391.6,1527.1z"/>
	<path class="st0" d="M1222.5,1939.8c14.2-0.3,28.1-7.9,43.1-12.5c-11.6-32.3-19.6-63.2-63.2-59.1l58.8-39.9l-3.3-7.4
		c-9.4-1-18.8-2.2-28.2-2.9c-32.4-2.4-65-0.3-93.3-24c-7.7-6.5-32.2-4.3-40.3,3.3c-17.1,16.1-31.9,14.3-46.9,2.7
		c-16.7-12.8-30-8.4-46,0.7c-6.5,3.7-20.1,4.1-24.9-0.1c-16.8-15-30.7-8.9-45.2,1.9c-9.2,6.7-18,13.9-26.3,20.4
		c-13.3-7.9-25.5-21-37.3-20.8c-15.5,0.4-31.9,9.6-45.4,18.8c-4.1,2.8-3.4,22.9,1.5,26.7c21.3,16.3,24.6,34.5,16.1,58.6
		c-4,11.4-2.2,22.7,15.6,23.3c53.9,1.9,107.7,5.4,161.6,7.5c29.1,1.1,58.3,0.2,87.5,0.7C1145.1,1938.4,1183.8,1940.7,1222.5,1939.8z
		 M971.1,1871.5l25.5-18.1l21,22L971.1,1871.5z"/>
	<path class="st0" d="M3594.5,2125.4c37.8-18.2,47.2-52.1,47.6-82.3c0.2-13.4-10.8-33.1-20.7-41.4c-28.5-24.1-69.2-34.4-108.4-28
		c-14.8,2.4-30.6-1.4-45.9-2.3c-10.1,3.7-19,14.6-28.3,25c-8.1,9-16.7,17.6-25.1,26.3l-6.4-5.9c8.2-19.7,39.5-31.5,44.8-51.9
		c7-26.6-26-47.2-55.2-49.2c-0.8,14.9-1.7,29.9-2.6,46.1l-85.1-63.9l-9.3,1.2c19.1,49.4-5.2,90.7-16.8,134.5
		c-1.5,5.5,2.1,15.7,6.7,19c26.4,19.1,53.8,36.8,85.9,58.2c-6.3-42.9-22.3-78.4,6.8-105.5l42.6,111c-25.7,0.6-25.9,19.2-26.4,38.9
		c-0.6,16-2.5,31.9-5.7,47.5c-7.5,38.6-9.6,75.5,24.2,104.6c3.6,3.1,4.8,8.9,9,17.2l-64.9-11.6c20.6,36.4,20.2,78.1,69.1,95.8
		c-17.9,2.5-29,3.2-39.7,5.7c-12,2.8-24.2,6-35.2,11.4c-6.1,3-13.3,10.5-13.8,16.5c-1.9,22.6,36.9,52,59.9,50.4
		c21.6-1.5,43.6,0.9,65.2,3.8c3.8,0.5,10.3,14.5,8.2,18.6c-23.4,46.9-23.8,46.7-73.7,26.9c-5.8-2.3-11.6-4.6-17.2-7.1
		c-21.7-9.8-73-0.5-88.3,16.4c-2.8,3.1-5.8,8-5.4,11.6c4.5,33.6,9.7,67.1,15.2,104.1c19.7-13.4,32.6-24.1,47.2-31.8
		c35.9-19,52-10.6,57.4,28.7c3.3,24.1,39.9,45.5,59.7,32.6c23.7-15.5,40.6-40.5,59.7-62.3c2.7-3-16.6-16.8-17.2-23.6
		c-1-10.1,7.4-21.6,11.1-30c9.1-20.7,22.3-35.4,33.7-55.1c17.9-31.3,5.5-39.3-22.6-61.7c-18.5-14.8-38.4-27.9-57.6-41.7l2.2-4.1
		l132.3,40.1c-3.4-23.1-6.5-37.8-10-51.3c-6.4-24.2-28.7-45.6-58.8-49.5c-30.5-4-59.9-15.9-89.9-23.6c-15.3-3.9-19.6-12.4-16.4-27.4
		c6.8-31.2,13.4-62.5,18.7-94c3.3-19.9,12.3-20.7,24-13.7c2.2,13.6,0.8,26.5,6.4,34.4c10.1,14.1,23.6,26.6,37.7,36.8
		c3.9,2.8,20.2-2.5,22.4-7.6c12-29.1,42.9-42,73.8-37c16.7,2.6,21.7-11.8,22.7-26.7C3644.2,2166.9,3626.8,2145.3,3594.5,2125.4z
		 M3583.6,2129.2l-120.9-10.2c0,0,45.3-69.5,94.3-66.4S3583.6,2129.2,3583.6,2129.2z"/>
	<path class="st0" d="M695.9,2659c10.9-4.5,22.7-13.7,31.9,3.4c9.4,17.4-1.2,26.2-13.7,34.7c-21.9,15-43.2,31.2-65.8,45.1
		c-18,11.1-39.7,33.9-32.8,47.7s43.4,13.4,60.3,4.7c48.1-24.6,96.5-48.6,144-74.4c5.3-2.9,9.2-16.5,7.3-23.3
		c-5.3-19.2-22.7-51.1-30.9-71.8c9.5-0.9,25.1,12,32,11.5c49.7-3.7,64.7-25.7,48.3-71c-9.4-26-33.8-38.5-59.7-28.6
		c-17,6.5-33,15.7-47.3,22.7l-64-104.4c39.4-43.5-3.1-89.7,1.7-127.5c0,0,65.2-1.9,83.9-8s36-27.9,36-27.9
		c-16.2-42-50.3-45.1-87.7-41c-7.9,1-15.8,2.6-23.5,4.8c-15.3,4.1-25.2,0.1-24.6-17.1c1.6-41.6-11.3-74.6-52.2-91.9
		c-0.7-0.3-0.4-3-0.6-4.5c34.1-16.8,34.5-16.4,46.2,17.2c2.1,6.1,7.8,11.4,12.9,15.9c36.4,31.9,75.4,28,117.8,8.2
		c-6.9-8.9-15.1-15.5-18-24c-5-15.2-8.2-31-9.5-47c-0.9-11,7.3-29.7,3.4-32.1c-14.8-9.1-32.8-17.8-49.5-17.6
		c-20.4,0.3-40.6,9.8-62.4,15.8c4.5-138.2-91.8-136.6-187.9-136.5c37.4-28.1,112.9-35.7,157.8-12.4c31.5,16.4,63.4,31.9,94.6,48.9
		c18.1,9.8,35.1,21.4,53.4,32.8c-0.4-3.3-1-6.9-2.6-9.7c-15-25.6-11.8-50.7,0.4-76.4c6.8-14.4,13.4-29.3,17.2-44.6
		c7-28.3-28.2-69.3-52.5-67.4l-39,87.1c-28.5-14.8-52.9-32.3-80.1-40.4c-32.9-9.8-67.9-13.4-102.3-16.4
		c-53.4-4.5-111.9,18.6-109.2,64c0.9,14.3,55,38.8,41.6,47.4c-54.5,34.9-48.2,76-0.2,114.1c2,1.6-14.8,0-16.9,0.2
		c-19.2,2.1-23.1,16.7-21.5,36.4c1.3,16.3-4.9,32.6,22.2,32.8c15.5,0.1,9.1,26.1-0.7,31.6c-26.1,14.6-16.6,47.7-21.4,67.4
		c-1.4,5.7,31.1,5.2,40.5,9.1c6.9,2.9,24.4-1.8,25.6-6.1c6.8-26,25.9-26.3,46.1-25.6c22.4,0.7,36.9,13,49.2,34.5
		c-40.2,10.5-84.1,13.5-121.2,24.9c-9.2,2.8-14.1,18.2-16.6,26.9c-4.1,13.9-4.6,30.9,13.8,38.5c11.7,4.9,23.7,9.3,37.2,14.5
		c-5.3,4.3-10.3,7.8-14.5,12c-16.1,16-43.5,50.4-31.5,70.5c14.5,24.1,23.1,35.4,46,53.8c7.7,6.1,44.6-0.9,54.9,2
		c-8.3,9.5-26.5,5.9-35.5,14.7c-2.8,2.7-20.4,10.5-21.1,10.6l77.3,75.2c-0.1-46.4-3.6-38.5,13.6-42.7c43-10.5,60-3.3,79.9,36
		c-13.6,7.3-27.3,14.9-41.3,22c-23.7,12.1-62.7,17.3-85.6,30.7c-10.9,6.4-21.3,24.3-6.1,36.8c24,19.6,65,25.2,94.4,8.9
		C656,2674.4,676.2,2667.1,695.9,2659z M506.8,2060.5c0,0-15.5-55.3,42.2-60.3c59.6-5.1,43.9,57.5,43.9,57.5L506.8,2060.5z
		 M570.1,2142.2l31.7-4.1l1.7,18.7L570.1,2142.2z M629.4,2378.4c-2.4,8.5-22.1,4.4-37.4,8.2c-15.3,3.7-36.4,21.8-36.4,21.8
		s23.8-31.3,35.7-34.4c11.9-3.1-12.6-19.4-12.6-19.4l-45.4-9.2l76.3-23.5c0,0,2.4,19.1,9.2,32.3S631.7,2369.9,629.4,2378.4z"/>
	<path class="st0" d="M3412.3,2748c-22.3-15.4-45.9-29-68.6-43.8c-10.4-6.7-22.4-12.7-29.5-22.1c-21.9-29.3-59.5-30.1-79.5-0.2
		c-10.7,16.1-21.4,32.3-32,48.6c-29.3,44.9-59.6,89.4-44.7,147.7c1.1,4.3-0.8,9.3-1.6,17.3c-9.9-7.6-16.2-14.5-23.9-17.8
		c-6.2-2.7-17.7-4.4-20.9-0.9c-23.6,25-56.1,43.7-53.9,86.5c1.5,30.7-10.4,40.1-41.6,43.9c-29.4,3.5-41.9,24.4-31.7,52.6
		c3.1,8.4,6.3,16.8,10.8,29c-7.8-2.5-10.6-2.7-12.5-4.1c-40.5-30.9-40.5-30.9-81.6-1.8c-4.4,3.1-8.9,5.9-13.4,8.8
		c-31.4,20.4-63.5,40-67,83.4c-0.7,8.9-6.5,17.4-10.7,28l-36.3-29.6c-7.7,30.2-26.6,61.4-18,79.7c16.5,35.2,39.7,72.2,81.7,86.1
		c6.7,2.2,33.1,16.1,38.3,10.5c4.4-4.8,17.9-15.6,15.3-22.2c-8.5-21.3-44.8-62.2-56.6-81.9s-3.4-29.4,12.7-38.1
		c14-7.6,30.1-13.1,41.6-23.6c26.8-24.6,51.6-25.6,77.2,0c6.7,6.7,13.6,13.7,18.2,21.8c5.5,9.6,14.4,22.9,11.4,30.4
		c-4.1,10.3-18.4,23.3-27.6,22.8c-9.4-0.5-21.1-14.7-26-25.5c-7.3-16.2-9.4-34.7-15.5-59.7c-10.4,24.8-18.9,42-24.8,60.1
		c-6.6,20.5-6.3,40.1,14.4,54.5c27.6,19.2,84.1,59.4,105.2,42.2c19-15.5,17.4-58.9,34.5-76.6c21.6-22.3,7.4-46.7-13.2-70.3
		c-15.4-17.5-25.4-39.6-37.5-59.3c45.7,16.3,64.2,44.6,106.5,58.3c7.1,2.3,67.5,4.5,68.2,0.8c3.6-18.5,7.1-57,6.1-75.8
		c-0.1-3.2-37.7-4.8-44.7-8.7c-8.5-4.8-19.8-9.6-23-17.3c-4.3-10.5-2.1-23.6-2.8-38.4l-49.4-4.6c13.9-17.5,24.2-30.2,34.3-43.1
		c14.3-18.4,28.2-18.3,46.9-3.9c28.8,22,59.9,40.9,90,61.1c9.1,6.1,31.1,37.9,40.6,38.1c12.1,0.3,11.1-33.2,14.6-46.7
		c4.9-19.1-17.6-37.3-30.2-48.6c-28.2-25.4-55.4-51.9-81.7-79.2c-4.1-4.2-4.6-17.5-1.1-22.4c16.8-22.9,34.8-44.9,53.9-66
		c3.8-4.2,15.4-6.3,20.2-3.6c16.1,9.1,32.3,19.3,45.6,32c25.1,24,24.6,48.4,1.5,75c-3.3,3.8-6.4,7.7-9.9,11.9
		c27.3-6,64.4,0.7,89.8-7.1c6.6-2,16-19.7,14.6-26c-5.1-23.8-9.8-62.7-23-82c-20-29.2-58.3-47.9-86-78.2
		c25.4,10.7,49.3,17.8,70,30.2c21.4,12.8,52.2,44.7,76.5,64c0-26.1,0.9-57.3,0-75.8C3432.2,2761.8,3417,2751.3,3412.3,2748z"/>
	<path class="st0" d="M490.3,1659c29.7,4.4,59.9,9.8,89.7,8.9c40.9-1.3,79.2,1.4,115,24.2c6.6,4.2,28.2-0.6,30.4-6.1
		c17.2-44.5,34.5-89.5,45.5-135.8c8-33.8-24.4-65.2-61.5-62.9c1.1-9.6-1-22.7,4-26.6c5.4-4.2,17.9-1.2,26.5,1.3
		c15.3,4.5,29.6,12.8,45,15.6c5.9,1.1,20.2-11.3,19.7-12.5c-10.7-23.4-7.1-41.7-20.4-63.7c-16-11.6-34.3-22.3-40.2-33
		c-9.3-16.8-16.7-27.9-38.9-16.8c-7.6,3.8-20.7-3.6-31.3-5.9c5.1-10.9,8-28.9,15.7-31.3c17.5-5.4,5.5-2.6,31.4-3.8l15.7,2.7
		c-1.4,1.8,10.5,7.1,13.2,5.1c7.5,4.8,3.1,0.3,7.4,7.1c-0.4,5.9,9.2,1.9,10.4,7.5c4.2,19.8,9,22.3,18.3,39.6c3,5.7,25.9,4.5,38,0.9
		c51.6-15.2,53.8-21.8,32.5-69.3c-6.7-14.9-13.4-22.8-32.2-17.4c-7.7,2.2-21.8-4.3-27.5-11.3c-20.1-47.7-106.4-51.1-143.9-3.2
		c-5,6-8.3,13.8-10.6,21.4c-8.3,28-24.9,52.1-23.7,85c0.8,22,4.8,31.8,22,41.2c8,4.4,17.6,11.5,19.9,19.4
		c7.6,25.8,18.3,47.7,50,56.3c-16.7,17.4-32.6,24-52.6,20.6c-44.2-7.4-47.5-43.3-50.6-82.3c-17.9,10.8-39,10.8-53.4,13.8
		c-18.4,3.8-20.8,35.2-20.8,43.9c0,60.1,46.9,93.7,101.4,95.1c13,0.3,26.1,0,40.1,0c0.6,19.8-2.4,26.4-23,20.1
		c-55-16.9-110.8-31.4-166.6-45.2c-9.3-2.3-48.1-10.8-53.3-4.3C388.2,1598.7,430.7,1662.3,490.3,1659z"/>
	<path class="st0" d="M1651.2,596.1c-14.6,44.6,0.3,82.2,28.4,115.9c23.1,27.6,39.7,26.1,58.9-3.2c3.9-5.9,7.5-12,11.8-17.7
		c16.8-22.4,13.6-39-12.2-52.5c-21.6-11.3-30.9-33.3-22.2-54.3c6.6-16,23.5-28.8,38.3-39.9c12.8-9.6,22.1-0.2,24.7,13
		c7.9,40,16,80.1,21.8,120.4c5.8,40.5,15,45.5,47.9,21.7c2.9-2,5.6-4.4,8.1-6.9c14.5-15.7,29.6-17.6,45.9-2.7c3.9,3.5,9,5.7,13.2,9
		c12.8,10,22.4,12.3,30.7-6.3c6.9-15.5,17.9-29.1,27.3-44c16.7,18.8,31.3,35.3,46,51.8c10.8,12.2,21.4,15.4,32.4-0.2
		c10.7-16,22.5-31.4,33.9-46.9c-5.4-8.6-9.7-16.2-14.6-23.4c-28.2-41.4-8-70.4,31.9-88.4c19.5-8.8,29.4-1.4,27.1,20.2
		c-1.9,17.5-9.3,34.4-11.4,51.9c-2.5,20.9-3.7,42.4-1.9,63.3c1.2,13.8,9.4,22.6,26.1,12c32.6-20.6,54.7-45.3,51.6-87.9
		c-2.7-37.5,9.3-91.8,9.3-132.5c-9.6,0.6-13.9-0.1-21.4,0.2c-10.7,0.5-36.1-0.6-46.7,0c-9.5,0.6-17.4,21.2-27,21.5
		c-12.5,0.3-26-4.5-37.4-8.2c-37.1-14.7-68.8-1.1-77.7,31.6l27.2,16.9l-50.3,91.2c-18.9,2.7-34.7-3.7-37.9-28.7
		c-3.3-25.5-5.9-51.1-9.6-76.5c-1.9-13.2-1.4-37.7-21.7-34.4c-30.1,4.8-44.6,25.7-42.9,45.6c2.3,26.6,3.6,53.4,5.3,80l-9.1,0.8
		c-2.9-28.8-3.9-57.9-9.3-86.1c-2.8-14.2,7.3-43.3-2.9-46.2c-15.7-4.5-62-12.6-69.7-2.3c-15.6,21.1-53.1,18.5-73.5,25.3
		c-27,9-41.8,31.5-60,63l22.2-4.2C1657.8,572.4,1655.1,584.4,1651.2,596.1z"/>
	<path class="st0" d="M2082.9,1511.2c56.8,1.3,113.6,4.4,170.4,5.4c15.3,0.1,30.9-4.6,46.5-7l3.3-7.7c-16.4-17-31.7-35.1-49.3-50.6
		c-31.6-27.7-54.6-66.3-99-78.1c-3.9-1-6.7-7.2-9.5-11.2c-15.5-22.2-29.6-45.5-46.5-66.6c-12.1-15.1-30.5-25.5-41.4-41.2
		c-17.3-25-34.5-20.8-52.5-4.3c-38.2,35-81.9,65.1-106.1,113.4c-1.7,3.5-5.9,6.6-9.7,8.1c-61.4,23.8-94.8,78.4-136.3,124
		c-3,3.3-3,9.2-4.6,14.7c4.8,2,7.9,4.6,11.1,4.6c72.8-0.6,145.6-1.3,218.4-2.5c15.2-0.3,17.3-8.7,11.1-21.7
		c-10.1-21.2-7-42.8,12.9-53.7c12.5-6.8,33.3-7.3,46.6-1.7c21,8.9,22.1,30.5,14.9,50.7C2056.2,1505.6,2064,1510.8,2082.9,1511.2z"/>
	<path class="st0" d="M1775.1,1298.7c-12.9-9.3-32.2-34.7-45.2-32.2c-20.8,4-47.1,27.4-63.6,41.4c-55.4,46.8-109.5,98.3-163.9,146.3
		c-9.7,8.6-15.6,20.9-24.8,37.8l-13.7,35.1c14.8-1.3,39.1-6.4,52.2-4.1c53.7,9.4,106.2,0.6,158.9-7.4c7-1.1,15.1-5.3,19.7-10.7
		c42-49.2,82.8-99.6,125.5-148.2c9.9-11.3,35.9-15.6,37.4-25.7c4.8-31.5,34.1-36.8,49.3-56.2c7.6-9.7,17-17.9,25.5-26.8
		c23.6-24.9,46.6-50.4,71-74.6c11.3-11.2,24.1-12.5,37.3,0.4c46.9,45.8,94.6,90.7,141.6,136.3c6.1,5.9,8.6,15.4,14.8,21.1
		c13.8,12.8,19.6,5.9,33.9,18c17.5,14.8,49.8,47.4,66.4,63.3c29,27.8,61.5,47.9,75.3,89.7c1.8,5.6,11.1,11.8,17.4,12.4
		c35.4,3.3,70.9,5.6,106.4,6.5c6.4,0.2,23,1,25.1-4.9c13.9-38.2,24.8-83.6-18.9-106.7c-6-3.2-17.1-11.1-22-16.3
		c-35.1-37.7-80.8-87-115.9-124.6c-15.7-16.8-30.9-12.9-51.6,4.1c-10.9,9-20.7,20.9-32.8,28.3c-19,11.6-49.9,5.8-58.7-6.3
		c-15.9-21.9-15.6-40.5,8-60.7c9.5-8.1,24.3-13.1,32.8-22c3.9-4.1,17-18.7,14.8-20.9c-14.6-15-36.1-41.6-53.1-53.6
		c-12.8-9-38.8-1-50-11.2c-19.3-17.5-33.3-42.1-36.8-64.1c-4.3-27.4-47.6-58.7-60.5-79.7c-26.6-43.1-53.4-34.6-91.1-1.3
		c-5.9,5.2-36.8,47.9-40.6,55.4c6.8,3.1,45.7-4.2,52.8-2.3c27.1,7.2,44.1-5,71.3,1.7c-0.2,2.5,4.3-0.1,4,2.4
		c-11.9,1.3-24.4-0.8-36.3,0.7c-27.8,3.4-55-1.7-82,5.2c-20.1,5.1-33.9,13.8-47.5,28.3c-9.8,10.4-22.9,36.7-38.3,43.7
		c-21.4,9.7-49.9,20.7-37.5,46c-51.1,15.8-33.9,27.7-1.5,69.1c10.1,12.9,20.6,31.8,18.9,46.5
		C1844.4,1316.6,1806.6,1321.6,1775.1,1298.7z"/>
	<path class="st0" d="M2663.5,945.3c32.8,3.8,34.3,17.8,56.1,39c32.5,31.4,79.1,25,104.8-14.1c-19.5-13.6-40.9-25.2-58.2-41.2
		c-48-44.4-51.5-46-109.6-20.8c-4.9,2.1-9.3,5.1-13.9,7.8c-20.5-3.4-15.9,10.2-34.8,4.8L2663.5,945.3z"/>
	<path class="st0" d="M2208.7,674.3c10.9,18.2,32.2,31.5,51.1,43.3c17.4,10.8,32.9,1.1,47.3-11.9c7.2-6.5,18.8-8.2,28.6-12.2
		c11.5,44,28.7,52.6,72.3,36.8c11.5-4.2,22-11.2,32.6-17.5c28-12.6,30.1-22,2.4-33.1c-9-8.8-16.7-24.4-16.1-36.5
		c1.9-34.1,2.2-68.4,21.8-100c16.6-26.8,21.2-31.2,49-16.6c46.2,24.5,94.1,15.1,117-22.7c-5-7.7-8.6-28.1-24.8-35.4
		c-6.1-2.7-24.1,9.2-29.9,5.8c-18.5-11.1-31.8-29.8-41.4-27.4c-3.3,0.8-14.4,15.2-17.6,15.5c-11.6,1.1-23.9,4-34.7,1.3
		c-12.6-3.1-23.5-14.5-36-16.3c-12.5-1.8-27.2,1.7-39,7c-6,2.7-12.6,19.8-10.7,21.5c9.5,8.6,20.5,15.4,32.4,20.2
		c10.6,4.3,22.6,5.1,40,8.7c-14.3,10-21.4,17.6-30.1,20.5c-28.3,9.6-41.2,29.5-46.9,57.9c-5.8,28.6-23.9,47.1-54.3,49.8
		c-9,0.8-25.1,0-26.2-3.6c-3.1-10.3-4.4-26,1.4-33c10.4-12.4,26.6-20.1,40.5-29.5c9.1-6.2,18.5-12,31.9-20.7
		c-18.1-10.9-25.9-43.2-46-31.3c-21.1,12.6-47.2,40-69.2,51.2C2210.9,588.1,2187.6,638.9,2208.7,674.3z"/>
	<path class="st0" d="M739.1,1167.1c1.4,6.2,4.3,26.6,1.9,30c-9.9,14,21.3,23.5,30,28.8c38.6,23.5,77.7,46.2,116.5,69.4
		c13.1,7.8,21.2,5.8,30.4-7.8c25.5-37.3,52.2-73.9,80.2-109.5c28.2-36,27.1-49-11.3-75.6c-12.8,6.1-25.2,13-38.4,18
		c-25.6,9.7-65,0-78.1-19.7c-15.1-22.7-1.1-40,12.5-57.1c1.1-1.4,0.2-4.5,0.2-6.8c-41.7-7.4-78.1-2.9-86.5,71.8
		c10.7,48,72.5,56.4,107.4,70.3c-14.9,37.4-21,39.7-51.2,20.1c-12.6-8.2-24.4-17.8-37.1-25.7c-18.7-11.5-19.5-21.3-38.2-32.4
		l-11.9-6.4l-21.1-10.6C747.1,1136.6,736.3,1154.4,739.1,1167.1z"/>
	<path class="st0" d="M1106.3,3046.4c-11.8-13-21.7-28.9-35.9-38.4c-35-23.4-88.7-20.5-118.5-0.5c-51,34.3-87.3,101.1-81.2,160
		c0.5,4.6,27.1,7.8,32.3,8.2c20,1.3,39.9-14.8,63.8-14.8c-5.4-15.9-8.9-24.8-11.5-34c-11.1-39.7-2.6-55.6,37.5-60.2
		c12.3-1.4,27.4,8.1,38.4,16.4c2.8,2.2-3.1,19.9-8.5,28.2c-8.6,13.3-20.7,24.2-30.2,36.9c-7.4,10-68,66.5-53,79.9
		c14.6,12.9,59,22.9,76,7.8c37.3-33.1,92.4-110.9,128.1-147.7C1128.6,3071.3,1117.5,3058.8,1106.3,3046.4z"/>
	<path class="st0" d="M2687,852c18.5,8.8,37.9,16.7,57.8,21.2c11.2,2.6,24-2,35.4-3.3c17.4,47.3,17.4,47.3,50.8,41.9
		c70.9-11.3,125.9-78,125.7-150.3c0-19.6-8.3-29.4-26-29.9c-23.9-0.8-55.8,7.6-79.9,9.1c-0.4,1.9-0.8,3.8-1.2,5.7
		c5,3.4,10.2,6.5,14.8,10.2c26,20.8,31.2,59.3,10.4,76.2c-21.1,17.2-67.4,21-91.6,7.6c-14.1-7.8-17.9-14.4-6.9-30.9
		c24.8-37.2,45.7-76.8,68.8-116.5c-41.6-9.7-67.1,0.1-85.8,30.1c-4.2,6.7-8.8,14.5-15.2,18.2c-35.4,20.4-46.2,57.2-61.8,90.7
		C2679.9,837.1,2683,850.1,2687,852z"/>
	<path class="st0" d="M3117.5,1219.5c6.8,26.5,33.6,20.7,53.1,25.4c9.8,2.4,19.9,4,36.1,7.1c-17.7-35.9-5.2-60.9,17.5-82.6
		c8.9-8.6,17.8-18.2,28.6-23.6c9.7-4.8,22-4.5,33.2-6.5c-1.3,12.6,1.3,27.8-4.8,37.2c-9.5,14.2-25,24.4-41.4,39.6
		c19.4,2.9,35.7,3.2,50.6,8.1c20.1,6.5,29.9-2.4,38.1-18.4c16.3-31.6,18.7-63.5,10.7-94.8c-7.9-30.8-64.9-53.9-88.9-36.9
		c-29.6,21-67.5,45.5-97.8,65.5C3128.9,1155.2,3110.2,1191.2,3117.5,1219.5z"/>
	<path class="st0" d="M466.6,1697.3c-28.4,15.9-21.8,58.7,3.4,80.2c29.8,25.4,65.4,45.6,104.7,33.7c40.4-12.2,67.5,2.7,94.4,27.7
		c2.4,2.2,5.6,3.4,10.3,6.1c7.6-23.3,15.6-44.7,21.5-66.6c10.9-40.6-1.2-63.7-40.3-81.7c-26.3,21.6-41.9,59.8-86.2,51.7
		c-36.2-6.6-51.2-28.6-46.9-70.8C503,1683,480.3,1689.6,466.6,1697.3z"/>
	<path class="st0" d="M2766.4,3308.9c-13.7-29.8-35.7-55.9-54-83.6l-9.2,1.8c-4.6,22-12.4,43.9-13.1,66
		c-1.2,32.9,10.4,29.5,25.9,47.9c4.7-1.7,0.5,4.1,6.4,10c-2.7,5.3,3.3,0,6.3,6.3c0,8.2,6.7-6.3,2.2,12
		c-10.4,18.9-15.8,40.4-25.6,59.6c-3.6,7.1-14.5,15.7-20.6,14.7c-6.4-1,27-73,23.1-80.9c-5.1-10.1-47.4,39.3-53.8,21.1l-40.7,52.8
		c0.7,0.9,3.7,8.5,9.3,11.6c19.8,10.9,28.4,34.2,49.2,42.8c18,7.5,52.1,9.9,60.5-9.2c5.6-12.7,7.3-40.1,17.4-47.5
		c25.9-19,46.6-44.5,73.8-61.9c6.9-4.4,11.3-12.6,20.5-23.2C2788.6,3358.7,2787.9,3355.7,2766.4,3308.9z"/>
	<path class="st0" d="M906.5,2761.3c7.8,7.9,13.8,14,19.9,20c4.7,4.6,12.1,8,13.8,13.4c7.7,24,14.3,48.4,20.4,72.8
		c10.9,43.9,65.8,70.7,126.7,49.5c-16.7-34.6-32.3-69.8-50.2-103.6C1012.9,2767.9,960.8,2746.6,906.5,2761.3z"/>
	<path class="st0" d="M1319.1,3138.5c8.1-3.3,14.8-10,23.6-16.1c-26.2-19.9-79.3-8.9-59.9-68.9c-28.1,6.7-53.9,11.3-78.6,19.3
		c-14.8,4.8-16.3,16.5-6.5,29.8C1223.9,3138.4,1278,3155.1,1319.1,3138.5z"/>
	<path class="st0" d="M2124.4,451.4c22.4,4.4,45.8,6.6,68.5,5.2c11-0.6,21.4-11.5,32.1-17.8c-0.6-3.9,46.8-36.5,46.2-40.4
		c-32.6-10.2-127.6-7.1-160.9-14.6c-31-7-111.4,44.2-97.3,73.2C2017.3,465.9,2114.9,449.6,2124.4,451.4z"/>
	<path class="st0" d="M986.6,1083.7c0-0.1,32.2-14.2,49.2-14.5c17-0.3,39.7,11.6,39.7,11.6c-3.8-16.7,4.4-51.5-8-65.2
		c-7.2-11.3-49.7-2.8-69.1,3.3C972.4,1030.3,980.8,1064.4,986.6,1083.7z"/>
	<path class="st0" d="M979.1,1001.3l6.8-4.5c-6.3-17.2,1.1-64.3-8.3-66.2c-17.8-3.6-52.9,10.1-68.8,21.1
		c-16.7,11.6-12.3,44.2-0.5,63.8C929.9,998.3,951.5,983.8,979.1,1001.3z"/>
	<path class="st0" d="M505.2,1428.4l-40,118.7C523.2,1512,535.6,1467.5,505.2,1428.4z"/>
	<path class="st0" d="M2211.9,2739l14.3,3.1l25.5-16.3c0,0,56.4,49.8,71.5,52.1s215.5-209.4,215.5-209.4l48-33.7l-55.1-12.3
		l-167.5,7.1v32.7c0,0-135.8,149.1-145,154.2c-9.2,5.1-30.6,2-30.6,2v24.5L2020,2919.7l-171.6-169.2c0,0,6.1-30-5.1-37.1
		s-30.6-7.1-30.6-7.1l-142-158.3l-5.1-18.4h-214.5c0,0,250.5,258.1,265.6,256.4c15.1-1.8,70.5-72.5,70.5-72.5l16.3,16.3l21.4,1
		l9.2,35.7c0,0,25.5,18.4,33.7,23.5s32.7,33.7,32.7,33.7s-14.3,10.2-23.5,7.6s-3.1-16.8-3.1-16.8l-31.7-23.5
		c0,0-64.9,43.4-66.4,57.2s199.4,222.7,233.9,238c17.2,7.6,220.9-208.8,249.2-225.7c9.9-5.9-72.5-78.6-72.5-78.6l24.5-26.6
		L2211.9,2739z"/>
	<path class="st0" d="M2451.7,2503.2c27,4.6,63.3-15.7,76.2-43.1c14.9-32,4.7-74.2-19.4-96.9c-20.9-19.7-35.2-8.6-49.2,6.3
		c-13.6,14.4-13.9,30.2-2.4,47.5c6.2,9.4,15.5,20.5,14.2,30.9C2468.9,2465.5,2457.8,2484.2,2451.7,2503.2z"/>
	<path class="st0" d="M3230.9,1859.1c44-9.5,28.6-60,55.7-81.1c3.2-2.5,1.7-13.9-0.4-20.2c-16.1-48.1-45.5-64.7-94.7-37.9
		c-22.7,12.4-45.1,29.4-33.3,62.4c0.3,1-1.6,2.9-2.4,4.3c-39.4,7.5-38.5,6.3-72.1-19.2c-7.7-5.9-27.3-4.9-36,1
		c-18.6,12.6-33.1,31-50.4,45.8c-4,3.4-16.4,4.7-17.7,2.5c-14.4-23.6-35.9-20.9-57.3-15c-7.9-32.7-42.5-53.1-61.9-36.3
		c-20.5,17.8-43,18.9-67.1,18.7c-30.4-0.2-60.4-0.7-86.6,19.4c-4.7,3.6-15.4,3.7-21.2,0.9c-24.7-11.6-47.8-15.9-72.9,0.7
		c-6.5,4.3-21.2,2.4-28.7-2.3c-19.7-12.3-37.1-12.6-57.3-1.2c-6.9,3.8-21.5,3.4-27-1.4c-23.6-20.6-45.5-14.4-68.4-0.5
		c-6.4,3.9-13,7.5-22.4,12.9c-5.9-41.2-11.2-78.2-16.5-115.2c-7.2,0.6-10,0.4-12.4,1.2c-3.4,1-7.7,1.9-9.6,4.4
		c-34,45.2-63.6,17.1-93.7-5.2c-0.7-0.5-1.4-1-2.2-1.5c-14.4-9.1-27.3-10-40.6,3.5c-9.4,9.6-21.3,16.6-34.2,26.4
		c-5.3-15.7-8.8-26.1-13.9-41c-28.1,26.8-71.2,33.4-67,89c-12.2-11.5-23-18.9-22-21.2c5.6-12.8,14.1-24.4,23.5-39.3
		c-29-10.3-50.3-44.9-88.5-22.8c-17.7,10.3-35.3,23.5-51.1-3.3c-1.9-3.2-9.7-3.4-14.8-4.5c-47-10.4-92-7.4-132.8,21
		c-15.7,11-30.9,11.2-46.9,0.6c-28.9-19.2-58.4-33.2-79.3-9.6c-26.3-6.9-43.6-14.1-61.4-15.3c-19.2-1.4-38.8,4.1-58.3,4.3
		c-30.7,0.3-55.8,11.3-73.5,36.1c-11.2,15.8-17.1,6.9-27.7-10.5l-18-28.9c-3.3,4.8-20,16-38,27.5c-4.3,2.8-12.9,8.6-30.5,6.6
		c-20.4-2.4-36.4-38.4-52.1-32.7c-7,2.6-72.9,48.8-68.6,64.6c0.9,3.5,17.1,13,20.6,14.4c7.8,3.2,77.5-17.4,83.7-18
		c9.5-0.9,53.4,9,48.3,16.7c-5.8,8.6-4.3,41.5-9.7,49.6c-9.6-5.5-4.8-48-11.8-45.1c-37.3,15.7-97.3,57.4-127.9,82.6
		c-22.1,11.7-18.4,26.9-0.8,38.4c18.4,12,39.1,20.5,58.4,31.1c13.5,7.4,22.8,3.8,35.9-4.3c11.1-6.8,31-8.7,42.6-3.3
		c24.6,11.5,42.8,11.4,60.4-9.6c5-6,9-12.9,18.4-26.8c9.5,12.7,17.1,23.4,25.2,33.8c14.5,18.5,29.6,20.7,46.1,1.9
		c9.1-10.3,19.5-19.6,30.1-30.2c13.3,18.2-8,51.5,29.7,55.3c-14.3,18.5-43.1,33.4-9.3,56.3c1,0.7,0.8,3.3,0.9,5.1
		c0.8,23.9,1.9,47.7,1.9,71.6c0,5.5-2.4,13.8-6.3,15.9c-28.3,15.1-57.3,28.9-87.1,43.6l-16.3-26.1c-22.4,24.1-55.2,43.5-61,69
		c-13.5,59.4-18.7,121.8,2.8,182c25.9-14.3,52.5-24.2,78.9-38.7c72.2,56.4,70.7,51.1,140.4-1.5c2.2,2.4,4.3,5,6.8,7.3
		c14.1,13.2,31.4,43.5,53.4,34.7c18.2-7.3,29.7-57.1,26.8-76c-0.9-5.6,2.7-12,4.3-18l8.6,0.8c0.8,8.9,1.4,17.9,2.5,26.8
		c1.6,13.1,2.2,26.5,5.8,39.1c5.8,19.7,16.8,38.3,32.7,28.9c28-16.5,63.7-45.7,65.6-84.8c1.2-24.6,1.4-49.3,3.3-73.8
		c0.4-5.2,6.3-9.9,9.6-14.9c4.6,4.1,11,7.3,13.1,12.5s-1,12.3-0.5,18.4c3.2,37.7,5.9,75.4,10.4,112.9c2,17.2,15.1,37.6,32.3,28.1
		c22.2-12.2,41.4-37.7,66-52.9c-4-2.9-1.6-1.7,0.1,0.1c31.2,33.2,70.2,60.7,114.1,52.8c26.6-4.8,51.8-33.3,75.6-48.2
		c8-5,14.9-17.5,15.7-27.1c1.9-24.7-0.5-49.8,0.5-74.6c0.2-6,7.1-11.7,11-17.5c4.5,5.1,12.3,9.9,12.9,15.5c2.7,24.5,2.7,49.4,5.2,74
		c1.6,15.6,3.9,31.9,10.1,46c2.7,6.1,8,27.3,14.6,25.1c33.6-11.4,58.7-53.9,55.9-89.7c-2-26-2.7-52.2-4.2-81.4
		c16.6,8.3,29.7,13.5,41.3,20.9c12.6,8,25.5,16.8,35.2,27.9c9.4,10.8,14.8,24.9,21.9,37.6c-12.7,2-25.5,5.7-38.3,5.6
		c-24.5-0.2-35.3,16.8-41.4,34.8c-2.3,6.9,7.5,21.6,15.6,27.7c45.5,37.8,90.9,38.5,138.8-24.9c8.8,9.7,16.3,21.2,26.7,28.6
		c8.7,6.2,30.4,26.9,38.5,23.8c22.8-8.6,45.1-19.9,64.7-34.4c9.2-6.9,22-40.9,23.1-53.1c3.4-36.8,3.6-81.9,3.1-118.8
		c-0.2-10.6-18.1-17.1-26.2-24.2c-37.5-33.1-40-26.9-80.5,0.5c-5.4,3.6-10.7,7.5-20.8,14.5c8.6-13.3,13.8-21.5,20.5-31.9l-60-14.4
		c41.5-33.1,46.4-69.9,22.9-112.2c-14,7.6-24.4,14.5-35.8,19.1c-21.9,8.9-31.5,22.7-27.3,47.4c2.7,16.2,0.5,33.1,0.5,51.3
		c-50.4-0.4-83.1,30.2-118.4,61.1c-1.5-8.1-2.9-13-3.4-17.9c-4.2-42.6-10.6-48.3-52.8-48.7c-12.6-0.1-25.2-1.6-36.7-2.3
		c0-28.6,1.6-52.7-0.5-76.4c-1.6-18.6-7.8-36.9-12-55.4c-18.8,6-38.1,10.7-55.9,18.8c-6.9,3.2-10.9,13.8-15.1,21.6
		c-4.7,8.3-8.4,17.1-11.1,26.3c-4.4,15.8-13.9,34.1-9.5,47.6c5.4,16.5,22.7,29.2,35.8,44.6c-12.6,28.7-15.5,29.4-39.8,9.5
		c-7.5-6.2-16.8-10.1-24.2-16.4c-24.2-20.8-46.6-15.6-69.2,2.8c-7.8,6.3-17.2,10.6-28.2,17.2c-7.2-30.8-26.8-35.6-51.4-35.2
		c-36.2,0.6-72.7,0.8-108.8-2c-56.2-4.4-113.7-27-161.6,18.4l-34.6-37.6c63.4-53.4,67.3-91.7,16-167.8l24.7-29.4
		c7.7,7.2,13.8,13.7,20.7,19.2c34.8,27.5,40.6,28.6,75.8,2.2c15.2-11.4,26.1-5.6,38.9,0.5c42.9,20.6,42.9,20.6,72.6-11.8
		c1-1,3.4-0.6,7.8-1.3c2.5,13,5,26,8.6,44.9l78.1-55.1c64.3,84.9,139.6,51.8,215.1,16.8c37.3,36.2,61.2,44.9,96.1,23.1
		c24.6-15.4,42.3-10.7,62.9,2.1c10.6,6.6,22.7,16,32,0.3c9.6-16.2,38.5-24.6,21.3-53c-6.6-11-7.6-25.4-11.2-38.3l8.5-5.2
		c8.2,7.9,19.6,14.3,24,23.9c6.8,15,12.2,32.2,12.2,48.5c0,24.1,9.5,34.6,32.6,34.7c65.4,0.2,130.8,0.7,196.1-0.2
		c7.7-0.1,15.2-8.7,19.8-11.6c14.2,4.8,27.9,13.3,41.8,13.6c51.3,1,102.7,0.2,154-1.8c16.7-0.6,36.2-2.9,49.1-12
		c15.3-10.8,25-29.8,34.4-41.8c19.6,20.3,38.3,41.2,59,59.9c3.5,3.2,17-0.6,22.9-5.1c12.9-9.7,23.8-21.8,30.4-28.1
		c11.5,11.9,20,28.7,30.4,29.9c37.8,4.4,76.2,4.6,114.3,3.9c12.3-0.3,31.5-2.6,43.7-7.1c-8.9-12.7-10.4-37.3-34.1-43.4
		c-3.6-4.3-13.6-3.9-16-8.2C3229.5,1873.4,3229.9,1859.3,3230.9,1859.1z M1510,1790.2l-9.2-21.7h13.8L1510,1790.2z M1600.4,1841
		c0,0-29.1-19.2-28.3-34c0.7-14.8,28.3-34.4,28.3-34.4s-8.4,16.3-8.6,34.2C1591.7,1824.7,1600.4,1841,1600.4,1841z M1532.6,2279.8
		c0-33.2-1-62.7,1.2-91.8c0.3-3.8,17.3-9,26.3-8.8s23.2,4.3,25.9,10.6C1601.5,2226.6,1581.8,2263.2,1532.6,2279.8z M2529.6,2168.1
		c7.6-1.1,22.2,7.1,24.7,14.2c8.6,24.1,13.2,49.6,19.3,74.6l-15.3,4.2c-4.5-17.4-9.1-34.8-14.3-54.7c-3.7,1.5-11.3,3.2-17.2,7.4
		c-25.9,18.6-26.2,18.8-39.7-10.8c-1.8-3.9-3-8.1-6.4-17.8C2497.5,2178.9,2513.1,2170.6,2529.6,2168.1z M2485.3,2150.4
		c1.2,9.1,2.5,18.3,3.7,27.4l-8.8,2.6l-28.7-18.4L2485.3,2150.4z M2132.5,2169.5v22l-9.7-11L2132.5,2169.5z M2139.1,2230.3v46.5
		l-16.3-26L2139.1,2230.3z M2009.9,2186.2l37.2,27.8l-37.2,11.2V2186.2z M1782.7,2178.8v14.8l-20.9-7.7L1782.7,2178.8z
		 M1685.7,2183.2h27.1v10.4h-27.1V2183.2z M1690,1812c0,13.1,0,50.3,0,50.3s-6.2-27.4-7.7-44.1c-1.5-16.6,7.7-19.3,7.7-19.3
		S1690,1798.9,1690,1812z M1789.3,1828.2c-23.8-24-21.6-38,0-59.6V1828.2z M1900.8,1849.3c-37.5-18.2-11.7-63.5-43.4-82.6
		c34.5-17.2,43.7-13.3,48.7,15.9C1909.8,1804.8,1917.5,1827.4,1900.8,1849.3z M1995.2,1807.8l-2-41.9l9-1.6l38.8,26.8l1.1,8.6
		L1995.2,1807.8z M2115.4,1855.6l-10.9,2.6c-5.4-14-15.1-28.1-15-42.1c0.1-9.6,13.9-19,21.5-28.5l9.9,5.5
		C2119.1,1813.9,2117.3,1834.8,2115.4,1855.6z M2222.2,1772.6c-1,13-19.4,19.1-19.4,19.1v-27.4
		C2202.8,1764.3,2223.2,1759.6,2222.2,1772.6z M2320.9,1860.4c-0.1,2.7-14.3,8.4-19.9,6.6c-20.9-6.8-29-40-18.3-59.2
		c9.5-17,16.9-31.6,29.3-47l9.8,3.2C2321.8,1796.1,2322.3,1828.3,2320.9,1860.4z M2527.8,1875.4l-10.1-26.3l12.6,8.1L2527.8,1875.4z
		 M2628,1879.4h-48.7c0,0-1.4-23.1,24.2-24.2C2629,1854.2,2628,1879.4,2628,1879.4z M2791.7,1862l-9.2,3.4v-10.2h9.2V1862z
		 M2880.2,1868.8l-29.2-1.5l4-9.7l26.6-11.3L2880.2,1868.8z M3186.6,1882.1h-17.3l6.1-15.3l14.6-4.1L3186.6,1882.1z"/>
	<path class="st0" d="M3720.5,1770.9c-8.2-11.8,11.2-31.2,14.3-46c3.1-14.9-16.3-59.8-40.3-74.6c-24-14.8-67.4-7.7-67.4-7.7
		s40.9,23.5,44.9,50.2c4.1,26.5-17.4,40.8-12.8,68.4s75.9,26.6,75.9,26.6S3728.7,1782.6,3720.5,1770.9z"/>
	<path class="st0" d="M1448.4,1629.5c-11.5-0.7-20.4-11.6-20.4-11.6s-30.6-36.4-80-29.6s-93.3,79-93.3,79s88.2-11.9,106.2-9.5
		c18,2.3,31.3,48,64,43.2c32.7-4.8,55.5-73.6,55.5-73.6S1460,1630.2,1448.4,1629.5z"/>
	<path class="st0" d="M2720.1,3139.4c11.7-1.5,43.4,18.4,43.4,18.4s16.3-78.7,7.1-85.8c-9.2-7.2-23-4.1-23-4.1s-0.5-62.3-11.2-72.5
		c-10.8-10.2-64.9,0-64.9,0s-16.9,21-9.2,27.1c7.6,6.1,15.8,54.6,15.8,54.6l-43.9,2l3.1,20.4c0,0-62.3,13.8-69.9,45.6
		c-7.7,31.6,24,92.4,24,92.4s35.3-33.7,50.6-42.9s80.7-10.7,80.7-10.7l3.6-12.3c0,0-30.7,2.5-36.3-13.8
		C2684.4,3141.4,2708.4,3140.9,2720.1,3139.4z"/>
	<path class="st0" d="M2595.9,3431.6c-7.1-20.8-15.9-41.2-21.9-62.3c-4.5-15.9,3.5-25.3,20-19.9c17.3,5.6,35.3,11.7,50,22
		c18.7,13.1,31.5,4.1,45.6-5.7c15-10.4,12.1-22.4,5.7-37.2c-12.7-29.1-38.4-36.6-64.8-45.9c-23.5-8.2-36.7-2.1-46.1,20.1
		c-4.6,10.9-13.2,20.2-18.4,27.9l-28.1-31.5c-8.2,10.8-17.5,21-24.4,32.5c-6.5,10.9-10.5,23.3-18.1,40.7l-27.9-49.2L2419,3392
		c-3.3-41.6-27.2-41.9-54.1-37.3c-6.1,1-12.5,0-18.5,1.1c-32.5,5.6-70.9-5.8-91.4,34.2c-4.7,9.1-16.4,14.7-25.2,22.2
		c-23.5-38.7-23.5-38.7-54.1-8.2c-16.3,16.3-63.1,25.8-79.6,8.9c-26.8-27.4-48.2-13-70.6,0.9c-14.8,9.2-28,9-38.1-3
		c-20-23.6-38.7-16.6-60.3-2.8c-20.6,13.2-41.3,21.9-62.8-2.8c-8.6-9.9-28.5-20-38.8-16.6c-23.1,7.6-43.3,23.7-64.7,36.3
		c0.7,2.5,1.4,5,2.1,7.5c26,8.4,41.5,20.5,44.1,51.9c-1.5,53.6-51.5,18.8-56.6,51.3c-6.2,39.3,44.4,101.1,44.4,101.1l99.9-66.4
		c0,0,28.6,68.4,23.1,79.7c-5.4,11.2,68.8-41.4,68.8-41.4c11.1-13,11.5-31.3,18.7-40.3c7.5-9.3,9.2-23.1,13.6-28.7
		c12.5,12.6,6.2,30.9,16.7,42c2.9,3.2,9.4,21.1,10.7,25.2c14.1,54.5,90.8,36.8,125.1,0.7c11.2-8.2,48,36.7,61.6,33.7
		c26.3-5.8,26.6-44.9,26.8-62.2c-27.8-29.2-34.6-113.5-10.2-126.5c-3.6,44.6,3.1,113.2,44,138.8c6.9,4.3,26.5,36.8,37.8,28.6
		c14.6-10.6,35.4-70.2,41.4-77.6c-42.9,7.1-75.3-19.5-66.7-59.3c3.4-15.8,31.6-43,45-40.9c21.8,3.4,10.2,22.8,14.5,34.6
		c1.1,3,18.6,141.4,30.7,145.3c14.5,4.6,146.2-26,152.7-32.2l-33.6-152.3c3.2,4.3,13.9,16.2,15.9,20.4c5.9,12.6-0.5,16.4,7.5,23
		c11.7,9.8,23.9,104.5,33.7,101.1c16.3-5.7,48.1-88.5,40.8-108.3C2610.9,3467.1,2598.2,3438.3,2595.9,3431.6z M1928.8,3548.8
		l-53.4-27.2c0,0,19.7-29.7,19.7-45.7s0.3-43.2,0.3-43.2s50.7,37.1,50.4,66.7C1945.5,3529,1928.8,3548.8,1928.8,3548.8z
		 M2031.2,3497.1c0,0,3.4-7.8,3.4-15s-1.7-10.2-1.7-10.2s17.4-1.7,17.7,3.7C2051,3481.1,2031.2,3497.1,2031.2,3497.1z
		 M2131.6,3578.7c-21.5,0-36.1-23.1-38.5-39.1c-2.3-16,46-53.4,46-53.4s24.9,40.3,26.9,57.4S2153,3578.7,2131.6,3578.7z
		 M2461.2,3555.9c-21.4,4.1-27.6-59.4-27.6-59.4l-6.7-22.3c1.6-13.2,0.4-26.7,0.4-40c18,25,25.7,44,41.7,68l3.4,18.5
		C2472.4,3520.7,2482.6,3551.8,2461.2,3555.9z"/>
	<path class="st0" d="M2531.7,3603.3c-12.9,0-35,57.3-42.2,56.9s-12.7-23.9-24.9-26.6s-42.2,21.1-42.2,21.1s-4.4-2-8.8,7.9
		s37.1,47.7,51.4,51.4c14.3,3.7,64-30.3,73.2-40.9S2544.6,3603.3,2531.7,3603.3z"/>
	<path class="st0" d="M2264.4,3621c-8.6-3.4-31,36.1-33.8,43.2c-2.8,7.2,0.4,55.8-5.4,53.8c-5.8-2.1-1.1-34.4-4.8-46
		s-31.6-31.7-40.5-32c-8.8-0.3-62.6,48.7-62.6,48.7s37.1,7.9,48.4,12.9c11.2,5.1,19.4,63.4,32.6,65.4c13.2,2.1,74.9-21.8,79.7-26.2
		s-5.8-57.2-6.8-66.7S2272.9,3624.4,2264.4,3621z"/>
	<path class="st0" d="M1794.7,3382.7c-56.2-16.5-109-35-163.2-46.9c-51.8-11.3-100.4-27.9-146.9-53.3c-23.9-13-50.7-22-79.3-10.4
		c-7.5,3-16.3,2.9-21.3,3.7c-3.1-18.3-5.5-32.9-8.1-47.9c37.8-2.9,79.9-2.4,114.2-42.4c-14.1-2-23-4.4-31.8-4.3
		c-50.2,1-60.9-8.1-63.3-56.7c-17.8,6.3-35.2,12.3-52.5,18.6c-6.7,2.4-13.2,5.3-19.5,8.7c-50.1,27-50.1,27-94.6-8.7
		c-28.9-23.2-85-24.7-116.5-2.2c27.1,23.3,50.2,52.6,33.5,87.7c-16.1,33.7-56.2,43.7-100.8,19.8c1.7,49-23.6,78.8,6.8,87.1
		c-0.4,8.6,71.5,5.8,71.1,14.3c13-6.5,62.2-42.9,68.9-49.7c7.7-7.9,2-34.6,6.8-44.9c5.4-11.7,9.5-24,14.2-36.1
		c11.1,7,22.4,13.9,33.4,21.1c14.9,9.8,29.6,19.8,44.4,29.7l-1.1,10.8c-31.2-21.2-59.7-29.6-74.9,3c13.6,20.4,24.5,37.7,36.3,54.4
		c4.9,6.9-10.4,11.7-4.4,17.8c-3.4,7.1-10,13.5-4.8,18.7c-6.5,3.3-0.7,9.8-7.1,9.9c-5.1,6.5-2.7,7.1-12.4,23.7
		c-9.6,16.4-20.7,32-31.9,49.2c-52.4-79.4-61.6-64.9-121.8-39c14.2,11.8,23.4,58.6,33.8,58.9c55.8-71.1,66,33,77.6,54.1
		c8,5.5,48.2-4,57.2-5.8c24.4-4.8,51.7-78,58.9-99.4c-3-12.4-2.4-14,11.2-24.9c6.3-1.9,2.4-18.6,6.5-23.5
		c19.2-24.1,31.9-49.9,51-74.1c19.8,8.2,12.2,15.9,0.6,25.9c-28.3,24.4-15.2,8.7-31.9,49.9c-7.8,18-5.4,3.7-11.6,33.4
		c-0.7,9.2-1.5,14.7,0.7,27.5c5.1,30.3,22.1,62.9,50,66.5c34.3,4.5,67.6-22.3,80.1-50.2c12-26.8,24.8-53.1,36.7-79.9
		c6.8-15.5,17.5-19.4,27.9-6.3c15,18.8,32,38.3,39.2,60.4c12.2,37.9-19.5,68.5-59,61.7c-6.1-1-12.2-2.4-20.9-4.1
		c3.2,78.7,81.6,102.9,123.8,18.5c7.1-8.7,13.1-19.6,15.5-30.5c3.6-15.9,3.5-32.6,4.9-49l6-4.1c9.7,13.6,20.6,26.5,28.8,41
		c6,10.6,5.4,26,13,34.4c2.1,2.3-73,9.8-75.4,30.5c-4.2,36.7,70.8,53.1,86.8,49c4.3-1.1,31-40.5,34.7-57.9c3.3-7.2,4-22,4.6-32
		c0.9-16.1-4.4-32.6-7.1-49.3C1746.6,3432.8,1773.5,3413.9,1794.7,3382.7z M1303.7,3196.8l24.2-7.8c0,0,27.9,25.9,32.7,29.6
		L1303.7,3196.8z M1401.9,3396.3c-1.7,11.6-7.7,16.7-7.7,16.7s-6.3-4.4-6-16.7s11.9-16.7,11.9-16.7S1403.6,3384.7,1401.9,3396.3z"/>
</g>
</svg>
