<?xml version="1.0" encoding="utf-8"?>
<!-- Generator: Adobe Illustrator 23.0.3, SVG Export Plug-In . SVG Version: 6.00 Build 0)  -->
<svg version="1.1" id="Layer_1" xmlns="http://www.w3.org/2000/svg" xmlns:xlink="http://www.w3.org/1999/xlink" x="0px" y="0px"
	 viewBox="0 0 4105.3 4105.3" style="enable-background:new 0 0 4105.3 4105.3;" xml:space="preserve">
<style type="text/css">
	.st0{opacity:0.5;}
	.st1{fill:#FFFFFF;}
	.st2{display:none;opacity:0.5;}
	.st3{display:inline;fill:#FFFFFF;}
	.st4{display:inline;}
	.st5{display:inline;fill:#020202;}
</style>
<g>
	
		<image style="overflow:visible;enable-background:new    ;" width="768" height="768" xlink:href="original.jpg"  transform="matrix(5.3455 0 0 5.3455 0 0)">
	</image>
</g>
<g id="Layer_3" class="st0">
	<path d="M3780.1,1991.1c1.4,302.7-49.7,545.5-155.2,776.3c-127.7,279.4-316.8,509.9-566.8,687.5
		c-89.2,63.2-183.6,118.6-282.4,165.4c-186.3,88.5-383.1,142.2-590.6,155.9c-359.9,23.8-698.9-45.2-1011.3-227.4
		c-317.2-185-552.6-445.2-706.1-780.5c-118.6-259.1-168.1-531.4-152.2-815.3c13.9-247.5,77.6-481.8,194.4-701.3
		c65.8-123.8,142.6-239,237.8-342.8c81.1-88.4,164.7-173,261.5-244.6c106.2-78.6,218-147,339-200c195-85.5,398.3-136.5,611.6-144.4
		c24.9-0.9,50,5.7,75.1,5.8c34.6,0.2,69.4-4.7,103.9-3.6c262.3,8.9,507.9,78.7,738.3,203.8c221.5,120.2,407.7,281,558.8,482.4
		c163.3,216.9,270.9,458.9,315.4,727C3768,1835.8,3774.3,1938,3780.1,1991.1z M827.1,2291.9c-16.2-42-50.3-45.1-87.7-41
		c-7.9,1-15.8,2.6-23.5,4.8c-15.3,4.1-25.2,0.1-24.6-17.1c1.6-41.6-11.3-74.6-52.2-91.9c-0.7-0.3-0.4-3-0.6-4.5
		c34.1-16.8,34.5-16.4,46.2,17.2c2.1,6.1,7.8,11.4,12.9,15.9c36.4,31.9,75.4,28,117.8,8.2c-6.9-8.9-15.1-15.5-18-24
		c-5-15.2-8.2-31-9.5-47c-0.9-11,7.3-29.7,3.4-32.1c-14.8-9.1-32.8-17.8-49.5-17.6c-20.4,0.3-40.6,9.8-62.4,15.8
		c4.5-138.2-91.8-136.6-187.9-136.5c37.4-28.1,112.9-35.7,157.8-12.4c31.5,16.4,63.4,31.9,94.6,48.9c18.2,9.9,35.3,21.6,53.8,33
		c-2.2,2.8-0.2,1.3-0.3,0.2c-0.4-3.4-1-7.2-2.7-10.1c-15-25.6-11.8-50.7,0.4-76.4c6.8-14.4,13.4-29.3,17.2-44.6
		c7-28.3-28.2-69.3-52.5-67.4l-39,87.1c-28.5-14.8-52.9-32.3-80.1-40.4c-32.9-9.8-67.9-13.4-102.3-16.4
		c-53.4-4.5-111.9,18.6-109.2,64c0.9,14.3,55,38.8,41.6,47.4c-54.5,34.9-48.2,76-0.2,114.1c2,1.6-14.8,0-16.9,0.2
		c-19.2,2.1-23.1,16.7-21.5,36.4c1.3,16.3-4.9,32.6,22.2,32.8c15.5,0.1,9.1,26.1-0.7,31.6c-26.1,14.6-16.6,47.7-21.4,67.4
		c-1.4,5.7,31.1,5.2,40.5,9.1c6.9,2.9,24.4-1.8,25.6-6.1c6.8-26,25.9-26.3,46.1-25.6c22.4,0.7,36.9,13,49.2,34.5
		c-40.2,10.5-84.1,13.5-121.2,24.9c-9.2,2.8-14.1,18.2-16.6,26.9c-4.1,13.9-4.6,30.9,13.8,38.5c11.7,4.9,23.7,9.3,37.2,14.5
		c-5.3,4.3-10.3,7.8-14.5,12c-16.1,16-43.5,50.4-31.5,70.5c14.5,24.1,23.1,35.4,46,53.8c7.7,6.1,44.6-0.9,54.9,2
		c-8.3,9.5-26.5,5.9-35.5,14.7c-2.8,2.7-20.4,10.5-21.1,10.6l77.3,75.2c-0.1-46.4-3.6-38.5,13.6-42.7c43-10.5,60-3.3,79.9,36
		c-13.6,7.3-27.3,14.9-41.3,22c-23.7,12.1-62.7,17.3-85.6,30.7c-10.9,6.4-21.3,24.3-6.1,36.8c24,19.6,65,25.2,94.4,8.9
		c18.6-10.3,38.8-17.6,58.5-25.7c10.9-4.5,22.7-13.7,31.9,3.4c9.4,17.4-1.2,26.2-13.7,34.7c-21.9,15-43.2,31.2-65.8,45.1
		c-18,11.1-39.7,33.9-32.8,47.7s43.4,13.4,60.3,4.7c48.1-24.6,96.5-48.6,144-74.4c5.3-2.9,9.2-16.5,7.3-23.3
		c-5.3-19.2-22.7-51.1-30.9-71.8c9.5-0.9,25.1,12,32,11.5c49.7-3.7,64.7-25.7,48.3-71c-9.4-26-33.8-38.5-59.7-28.6
		c-17,6.5-33,15.7-47.3,22.7l-64-104.4c39.4-43.5-3.1-89.7,1.7-127.5c0,0,65.2-1.9,83.9-8S827.1,2291.9,827.1,2291.9z
		 M1463.9,1527.1c14.8-1.3,39.1-6.4,52.2-4.1c53.7,9.4,106.2,0.6,158.9-7.4c7-1.1,15.1-5.3,19.7-10.7c42-49.2,82.8-99.6,125.5-148.2
		c9.9-11.3,35.9-15.6,37.4-25.7c4.8-31.5,34.1-36.8,49.3-56.2c7.6-9.7,17-17.9,25.5-26.8c23.6-24.9,46.6-50.4,71-74.6
		c11.3-11.2,24.1-12.5,37.3,0.4c46.9,45.8,94.6,90.7,141.6,136.3c6.1,5.9,8.6,15.4,14.8,21.1c13.8,12.8,19.6,5.9,33.9,18
		c17.5,14.8,49.8,47.4,66.4,63.3c29,27.8,61.5,47.9,75.3,89.7c1.8,5.6,11.1,11.8,17.4,12.4c35.4,3.3,70.9,5.6,106.4,6.5
		c6.4,0.2,23,1,25.1-4.9c13.9-38.2,24.8-83.6-18.9-106.7c-6-3.2-17.1-11.1-22-16.3c-35.1-37.7-80.8-87-115.9-124.6
		c-15.7-16.8-30.9-12.9-51.6,4.1c-10.9,9-20.7,20.9-32.8,28.3c-19,11.6-49.9,5.8-58.7-6.3c-15.9-21.9-15.6-40.5,8-60.7
		c9.5-8.1,24.3-13.1,32.8-22c3.9-4.1,17-18.7,14.8-20.9c-14.6-15-36.1-41.6-53.1-53.6c-12.8-9-38.8-1-50-11.2
		c-19.3-17.5-33.3-42.1-36.8-64.1c-4.3-27.4-47.6-58.7-60.5-79.7c-26.6-43.1-53.4-34.6-91.1-1.3c-5.9,5.2-36.8,47.9-40.6,55.4
		c6.8,3.1,45.7-4.2,52.8-2.3c27.1,7.2,44.1-5,71.3,1.7c-0.2,2.5,4.3-0.1,4,2.4c-11.9,1.3-24.4-0.8-36.3,0.7c-27.8,3.4-55-1.7-82,5.2
		c-20.1,5.1-33.9,13.8-47.5,28.3c-9.8,10.4-22.9,36.7-38.3,43.7c-21.4,9.7-49.9,20.7-37.5,46c-51.1,15.8-33.9,27.7-1.5,69.1
		c10.1,12.9,20.6,31.8,18.9,46.5c-4.7,38.7-42.5,43.7-74,20.8c-12.9-9.3-32.2-34.7-45.2-32.2c-20.8,4-47.1,27.4-63.6,41.4
		c-55.4,46.8-109.5,98.3-163.9,146.3c-9.7,8.6-15.6,20.9-24.8,37.8L1463.9,1527.1z M2663.5,945.3c32.8,3.8,34.3,17.8,56.1,39
		c32.5,31.4,79.1,25,104.8-14.1c-19.5-13.6-40.9-25.2-58.2-41.2c-48-44.4-51.5-46-109.6-20.8c-4.9,2.1-9.3,5.1-13.9,7.8
		c-20.5-3.4-15.9,10.2-34.8,4.8L2663.5,945.3z M2515.4,3437.5c3.2,4.3,13.9,16.2,15.9,20.4c5.9,12.6-0.5,16.4,7.5,23
		c11.7,9.8,23.9,104.5,33.7,101.1c16.3-5.7,48.1-88.5,40.8-108.3c-2.4-6.6-15.1-35.4-17.4-42.1c-7.1-20.8-15.9-41.2-21.9-62.3
		c-4.5-15.9,3.5-25.3,20-19.9c17.3,5.6,35.3,11.7,50,22c18.7,13.1,31.5,4.1,45.6-5.7c15-10.4,12.1-22.4,5.7-37.2
		c-12.7-29.1-38.4-36.6-64.8-45.9c-23.5-8.2-36.7-2.1-46.1,20.1c-4.6,10.9-13.2,20.2-18.4,27.9l-28.1-31.5
		c-8.2,10.8-17.5,21-24.4,32.5c-6.5,10.9-10.5,23.3-18.1,40.7l-27.9-49.2L2419,3392c-3.3-41.6-27.2-41.9-54.1-37.3
		c-6.1,1-12.5,0-18.5,1.1c-32.5,5.6-70.9-5.8-91.4,34.2c-4.7,9.1-16.4,14.7-25.2,22.2c-23.5-38.7-23.5-38.7-54.1-8.2
		c-16.3,16.3-63.1,25.8-79.6,8.9c-26.8-27.4-48.2-13-70.6,0.9c-14.8,9.2-28,9-38.1-3c-20-23.6-38.7-16.6-60.3-2.8
		c-20.6,13.2-41.3,21.9-62.8-2.8c-8.6-9.9-28.5-20-38.8-16.6c-23.1,7.6-43.3,23.7-64.7,36.3c0.7,2.5,1.4,5,2.1,7.5
		c26,8.4,41.5,20.5,44.1,51.9c-1.5,53.6-51.5,18.8-56.6,51.3c-6.2,39.3,44.4,101.1,44.4,101.1l99.9-66.4c0,0,28.6,68.4,23.1,79.7
		c-5.4,11.2,68.8-41.4,68.8-41.4c11.1-13,11.5-31.3,18.7-40.3c7.5-9.3,9.2-23.1,13.6-28.7c12.5,12.6,6.2,30.9,16.7,42
		c2.9,3.2,9.4,21.1,10.7,25.2c14.1,54.5,90.8,36.8,125.1,0.7c11.2-8.2,48,36.7,61.6,33.7c26.3-5.8,26.6-44.9,26.8-62.2
		c-27.8-29.2-34.6-113.5-10.2-126.5l0,0c-3.6,44.6,3.1,113.2,44,138.8c6.9,4.3,26.5,36.8,37.8,28.6c14.6-10.6,35.4-70.2,41.4-77.6
		c-42.9,7.1-75.3-19.5-66.7-59.3c3.4-15.8,31.6-43,45-40.9c21.8,3.4,10.2,22.8,14.5,34.6c1.1,3,18.6,141.4,30.7,145.3
		c14.5,4.6,146.2-26,152.7-32.2L2515.4,3437.5z M3425.1,2116.3c-25.7,0.6-25.9,19.2-26.4,38.9c-0.6,16-2.5,31.9-5.7,47.5
		c-7.5,38.6-9.6,75.5,24.2,104.6c3.6,3.1,4.8,8.9,9,17.2l-64.9-11.6c20.6,36.4,20.2,78.1,69.1,95.8c-17.9,2.5-29,3.2-39.7,5.7
		c-12,2.8-24.2,6-35.2,11.4c-6.1,3-13.3,10.5-13.8,16.5c-1.9,22.6,36.9,52,59.9,50.4c21.6-1.5,43.6,0.9,65.2,3.8
		c3.8,0.5,10.3,14.5,8.2,18.6c-23.4,46.9-23.8,46.7-73.7,26.9c-5.8-2.3-11.6-4.6-17.2-7.1c-21.7-9.8-73-0.5-88.3,16.4
		c-2.8,3.1-5.8,8-5.4,11.6c4.5,33.6,9.7,67.1,15.2,104.1c19.7-13.4,32.6-24.1,47.2-31.8c35.9-19,52-10.6,57.4,28.7
		c3.3,24.1,39.9,45.5,59.7,32.6c23.7-15.5,40.6-40.5,59.7-62.3c2.7-3-16.6-16.8-17.2-23.6c-1-10.1,7.4-21.6,11.1-30
		c9.1-20.7,22.3-35.4,33.7-55.1c17.9-31.3,5.5-39.3-22.6-61.7c-18.5-14.8-38.4-27.9-57.6-41.7l2.2-4.1l132.3,40.1
		c-3.4-23.1-6.5-37.8-10-51.3c-6.4-24.2-28.7-45.6-58.8-49.5c-30.5-4-59.9-15.9-89.9-23.6c-15.3-3.9-19.6-12.4-16.4-27.4
		c6.8-31.2,13.4-62.5,18.7-94c3.3-19.9,12.3-20.7,24-13.7c2.2,13.6,0.8,26.5,6.4,34.4c10.1,14.1,23.6,26.6,37.7,36.8
		c3.9,2.8,20.2-2.5,22.4-7.6c12-29.1,42.9-42,73.8-37c16.7,2.6,21.7-11.8,22.7-26.7c2.1-31.6-15.3-53.2-47.6-73.1
		c37.8-18.2,47.2-52.1,47.6-82.3c0.2-13.4-10.8-33.1-20.7-41.4c-28.5-24.1-69.2-34.4-108.4-28c-14.8,2.4-30.6-1.4-45.9-2.3
		c-10.1,3.7-19,14.6-28.3,25c-8.1,9-16.7,17.6-25.1,26.3l-6.4-5.9c8.2-19.7,39.5-31.5,44.8-51.9c7-26.6-26-47.2-55.2-49.2
		c-0.8,14.9-1.7,29.9-2.6,46.1l-85.1-63.9l-9.3,1.2c19.1,49.4-5.2,90.7-16.8,134.5c-1.5,5.5,2.1,15.7,6.7,19
		c26.4,19.1,53.8,36.8,85.9,58.2c-6.3-42.9-22.3-78.4,6.8-105.5L3425.1,2116.3z M1068.1,3418.4c14.2,11.8,23.4,58.6,33.8,58.9
		c55.8-71.1,66,33,77.6,54.1c8,5.5,48.2-4,57.2-5.8c24.4-4.8,51.7-78,58.9-99.4c-3-12.4-2.4-14,11.2-24.9c6.3-1.9,2.4-18.6,6.5-23.5
		c19.2-24.1,31.9-49.9,51-74.1c19.8,8.2,12.2,15.9,0.6,25.9c-28.3,24.4-15.2,8.7-31.9,49.9c-7.8,18-5.4,3.7-11.6,33.4
		c-0.7,9.2-1.5,14.7,0.7,27.5c5.1,30.3,22.1,62.9,50,66.5c34.3,4.5,67.6-22.3,80.1-50.2c12-26.8,24.8-53.1,36.7-79.9
		c6.8-15.5,17.5-19.4,27.9-6.3c15,18.8,32,38.3,39.2,60.4c12.2,37.9-19.5,68.5-59,61.7c-6.1-1-12.2-2.4-20.9-4.1
		c3.2,78.7,81.6,102.9,123.8,18.5c7.1-8.7,13.1-19.6,15.5-30.5c3.6-15.9,3.5-32.6,4.9-49l6-4.1c9.7,13.6,20.6,26.5,28.8,41
		c6,10.6,5.4,26,13,34.4c2.1,2.3-73,9.8-75.4,30.5c-4.2,36.7,70.8,53.1,86.8,49c4.3-1.1,31-40.5,34.7-57.9c3.3-7.2,4-22,4.6-32
		c0.9-16.1-4.4-32.6-7.1-49.3c34.9-6.3,61.8-25.2,83-56.4c-56.2-16.5-109-35-163.2-46.9c-51.8-11.3-100.4-27.9-146.9-53.3
		c-23.9-13-50.7-22-79.3-10.4c-7.5,3-16.3,2.9-21.3,3.7c-3.1-18.3-5.5-32.9-8.1-47.9c37.8-2.9,79.9-2.4,114.2-42.4
		c-14.1-2-23-4.4-31.8-4.3c-50.2,1-60.9-8.1-63.3-56.7c-17.8,6.3-35.2,12.3-52.5,18.6c-6.7,2.4-13.2,5.3-19.5,8.7
		c-50.1,27-50.1,27-94.6-8.7c-28.9-23.2-85-24.7-116.5-2.2c27.1,23.3,50.2,52.6,33.5,87.7c-16.1,33.7-56.2,43.7-100.8,19.8
		c1.7,49-23.6,78.8,6.8,87.1c-0.4,8.6,71.5,5.8,71.1,14.3c13-6.5,62.2-42.9,68.9-49.7c7.7-7.9,2-34.6,6.8-44.9
		c5.4-11.7,9.5-24,14.2-36.1c11.1,7,22.4,13.9,33.4,21.1c14.9,9.8,29.6,19.8,44.4,29.7l-1.1,10.8c-31.2-21.2-59.7-29.6-74.9,3
		c13.6,20.4,24.5,37.7,36.3,54.4c4.9,6.9-10.4,11.7-4.4,17.8c-3.4,7.1-10,13.5-4.8,18.7c-6.5,3.3-0.7,9.8-7.1,9.9
		c-5.1,6.5-2.7,7.1-12.4,23.7c-9.6,16.4-20.7,32-31.9,49.2C1137.5,3378,1128.3,3392.5,1068.1,3418.4z M3618.5,1781
		c7.6-30.6,1.6-54,8.6-80.4c8.4-31.6-47.3-69.9-79.6-63.9c-39.9,7.4-79.7,15.3-119.2,24.1c-14.4,3.2-20.1-1-20.8-14.9
		c-1.1-21.8,10-32.2,31.7-29.4c79.5,10.3,132.6-22.9,131.6-98c-0.1-11.2-5.7-29.4-12.8-38.3c-13.8-17.2-32.4-31.3-47.5-47.5
		c-16.6-17.8-44.9-17.2-67.5-8.6c-34.2,13.1-68.7,25.5-104,38.4c-13.3-24.6-26.3-50.8-41.4-75.7c-12.1-19.9-14.5-34.7,10.2-46.5
		c15.1-7.2,28.4-18.2,42.9-26.7c13.1-7.7,26.7-16.5,37.3,4.5c12.6,25,10.1,35.7-12.8,47.8c-9.4,5-18.6,10.5-34.5,19.5
		c25.1,8.8,42.6,14.8,59.9,21.1c21.8,7.9,41.1-1,50.2-18.2c13.2-24.8,26.4-57.8,15.3-85.8c-1.3-3.3-14.1-6.1-18.9-8.2
		c-17.3-7.5-29.8-11.9-34.7-34.2c-4.4-20.1-36.7-22.4-57.4-12.7c-44.7,20.8-90.1,40.5-134,63c-10.3,5.3-24.4,22.5-22.2,29.7
		c13.3,42.5,31.8,82.8,76.6,102.7c17.2,7.6,34.1,16,54.8,25.8l-57.9,26.3c0.1,2.6,0.3,5.1,0.4,7.7l78.7,33.1
		c-5.6,11.8-9.9,22.3-15.4,32.2c-17.6,31.6-13.6,45.5,17.4,62.3c15.2,8.2,29.7,17.7,49.2,29.4l-52.8,16.1
		c20.5,34.8,55.1,53,88.5,46.6c28.8-5.5,57.1-13.1,85.7-19.2c11.9-2.5,24.2-3.4,36.3-4.9c0.8,3.8,1.7,7.5,2.5,11.3
		c-24.5,7.4-48.6,16.3-73.5,21.7c-29.4,6.4-59.4,9.6-89.1,14.5c-13.4,2.2-22.5,7.1-20.9,24.3c2.8,29,1.9,58.3,4.7,87.2
		c4.6,47.7,26.9,62.3,71.2,46.7c2.6,7.3,6.5,14.5,7.5,22.1c2.6,19.7,16.5,27.6,32.9,29.6c54.3,6.7,94.9-10.6,136.1-39.8
		c4-2.8,15.8-27.8,16.6-33.7c4.3-34.8-39-69.1-85.4-81.6c-1.1,10.6-4.3,21.1-2.9,30.9c3.1,22.4-9.3,27.8-27.4,29.9
		c-26,3-45.4-7.9-58.8-28.8c-8.8-13.6-10.7-27.2,11.8-30.5C3520.9,1797.4,3587,1785.8,3618.5,1781z M3005,3124.4
		c45.7,16.3,64.2,44.6,106.5,58.3c7.1,2.3,67.5,4.5,68.2,0.8c3.6-18.5,7.1-57,6.1-75.8c-0.1-3.2-37.7-4.8-44.7-8.7
		c-8.5-4.8-19.8-9.6-23-17.3c-4.3-10.5-2.1-23.6-2.8-38.4l-49.4-4.6c13.9-17.5,24.2-30.2,34.3-43.1c14.3-18.4,28.2-18.3,46.9-3.9
		c28.8,22,59.9,40.9,90,61.1c9.1,6.1,31.1,37.9,40.6,38.1c12.1,0.3,11.1-33.2,14.6-46.7c4.9-19.1-17.6-37.3-30.2-48.6
		c-28.2-25.4-55.4-51.9-81.7-79.2c-4.1-4.2-4.6-17.5-1.1-22.4c16.8-22.9,34.8-44.9,53.9-66c3.8-4.2,15.4-6.3,20.2-3.6
		c16.1,9.1,32.3,19.3,45.6,32c25.1,24,24.6,48.4,1.5,75c-3.3,3.8-6.4,7.7-9.9,11.9c27.3-6,64.4,0.7,89.8-7.1c6.6-2,16-19.7,14.6-26
		c-5.1-23.8-9.8-62.7-23-82c-20-29.2-58.3-47.9-86-78.2c25.4,10.7,49.3,17.8,70,30.2c21.4,12.8,52.2,44.7,76.5,64
		c0-26.1,0.9-57.3,0-75.8c-0.3-6.6-15.5-17.1-20.2-20.4c-22.3-15.4-45.9-29-68.6-43.8c-10.4-6.7-22.4-12.7-29.5-22.1
		c-21.9-29.3-59.5-30.1-79.5-0.2c-10.7,16.1-21.4,32.3-32,48.6c-29.3,44.9-59.6,89.4-44.7,147.7c1.1,4.3-0.8,9.3-1.6,17.3
		c-9.9-7.6-16.2-14.5-23.9-17.8c-6.2-2.7-17.7-4.4-20.9-0.9c-23.6,25-56.1,43.7-53.9,86.5c1.5,30.7-10.4,40.1-41.6,43.9
		c-29.4,3.5-41.9,24.4-31.7,52.6c3.1,8.4,6.3,16.8,10.8,29c-7.8-2.5-10.6-2.7-12.5-4.1c-40.5-30.9-40.5-30.9-81.6-1.8
		c-4.4,3.1-8.9,5.9-13.4,8.8c-31.4,20.4-63.5,40-67,83.4c-0.7,8.9-6.5,17.4-10.7,28l-36.3-29.6c-7.7,30.2-26.6,61.4-18,79.7
		c16.5,35.2,39.7,72.2,81.7,86.1c6.7,2.2,33.1,16.1,38.3,10.5c4.4-4.8,17.9-15.6,15.3-22.2c-8.5-21.3-44.8-62.2-56.6-81.9
		s-3.4-29.4,12.7-38.1c14-7.6,30.1-13.1,41.6-23.6c26.8-24.6,51.6-25.6,77.2,0c6.7,6.7,13.6,13.7,18.2,21.8
		c5.5,9.6,14.4,22.9,11.4,30.4c-4.1,10.3-18.4,23.3-27.6,22.8c-9.4-0.5-21.1-14.7-26-25.5c-7.3-16.2-9.4-34.7-15.5-59.7
		c-10.4,24.8-18.9,42-24.8,60.1c-6.6,20.5-6.3,40.1,14.4,54.5c27.6,19.2,84.1,59.4,105.2,42.2c19-15.5,17.4-58.9,34.5-76.6
		c21.6-22.3,7.4-46.7-13.2-70.3C3027.1,3166.2,3017.1,3144.1,3005,3124.4z M1324,858.3c25.1,27.1,49.5,32.1,77.5,16.3
		c16.9-9.5,35.2-16.8,53-24.8c32.2-14.6,67-33.1,61-75.8c-1.7-11.9,8.1-21.5,6.5-33.4c-2.3-17.6-1.3-44.1-10.6-58.2
		c-13-19.6-34.2-36.2-52.7-51.1c-36.4-42.3-78.9-12.8-87.1,24.5c30,8.5,24.9,24.5,21.6,32.7c-3.8,9.6-17.3,20.2-27.4,21.1
		c-8.6,0.8-14.9-12.8-23.8-19.8c-7.8-6.2-16.9-39-20.4-37.4c-16,7.5-38,37.2-48.5,50.8c-5.3,6.8,0,24.9,4.9,35.8
		c8.6,19.2,21.4,36.6,31.1,55.4c14.4,27.8,7.8,36.5-27,35c-1.7-7.3-2.7-15.2-5.3-22.6c-10.1-29.4-13.3-63.9-43-80.2
		c-13.2-7.3-36.8-21.3-50-3.4c-15.3,20.8-11,50.5,7.2,63.4c31.3,22.1,31,76.4,7,91.9c-20.1-16.1-25.9-34.5-43.2-50.8
		c-7.9-7.5-10.9-18.5-17-28.3c-5.7-9.2-25.4-28.8-33.7-34.7c-2.6-1.8-18.3,7.8-24.5,14.3c-5.2,5.6-13.8,20.9-14.6,28.3
		c-3.7,33.1-17,47.6-51.7,45.6c-19.2-1.1-19.2,22.3-18.5,38.5c0.5,14.4,5.5,24.2,23.7,25.8c11.8,1,31.1,5.5,39.4,14.3
		c19.4,20.6,29.9,46.9,48.3,68.5c11.1,13,23.9,24.4,38.7,39.2c12-43.2,15.3-78.3-18.3-107.7c-10.4-9.1-18.2-21.9-25.2-34.2
		c-3.8-6.8-3.4-16-4.9-24.1l6.8-1.8c4.6,6.2,9.5,12.2,13.9,18.6c18.6,26.9,36.4,54.5,55.9,80.8c14.4,19.4,32,22.5,52.8,7.2
		c15-11,31.4-20.3,47.9-28.7c29.2-14.9,54.2-31.7,46.3-70.7C1319,874.6,1321.3,870.2,1324,858.3L1324,858.3z M736.6,1313.3
		c-1.4,1.8,10.5,7.1,13.2,5.1c7.5,4.8,3.1,0.3,7.4,7.1c-0.4,5.9,9.2,1.9,10.4,7.5c4.2,19.8,9,22.3,18.3,39.6c3,5.7,25.9,4.5,38,0.9
		c51.6-15.2,53.8-21.8,32.5-69.3c-6.7-14.9-13.4-22.8-32.2-17.4c-7.7,2.2-21.8-4.3-27.5-11.3c-20.1-47.7-106.4-51.1-143.9-3.2
		c-5,6-8.3,13.8-10.6,21.4c-8.3,28-24.9,52.1-23.7,85c0.8,22,4.8,31.8,22,41.2c8,4.4,17.6,11.5,19.9,19.4
		c7.6,25.8,18.3,47.7,50,56.3c-16.7,17.4-32.6,24-52.6,20.6c-44.2-7.4-47.5-43.3-50.6-82.3c-17.9,10.8-39,10.8-53.4,13.8
		c-18.4,3.8-20.8,35.2-20.8,43.9c0,60.1,46.9,93.7,101.4,95.1c13,0.3,26.1,0,40.1,0c0.6,19.8-2.4,26.4-23,20.1
		c-55-16.9-110.8-31.4-166.6-45.2c-9.3-2.3-48.1-10.8-53.3-4.3c-43.4,41.4-0.9,105,58.7,101.7c29.7,4.4,59.9,9.8,89.7,8.9
		c40.9-1.3,79.2,1.4,115,24.2c6.6,4.2,28.2-0.6,30.4-6.1c17.2-44.5,34.5-89.5,45.5-135.8c8-33.8-24.4-65.2-61.5-62.9
		c1.1-9.6-1-22.7,4-26.6c5.4-4.2,17.9-1.2,26.5,1.3c15.3,4.5,29.6,12.8,45,15.6c5.9,1.1,20.2-11.3,19.7-12.5
		c-10.7-23.4-7.1-41.7-20.4-63.7c-16-11.6-34.3-22.3-40.2-33c-9.3-16.8-16.7-27.9-38.9-16.8c-7.6,3.8-20.7-3.6-31.3-5.9
		c5.1-10.9,8-28.9,15.7-31.3c17.5-5.4,5.5-2.6,31.4-3.8L736.6,1313.3z M2086.1,653.3c-5.4-8.6-9.7-16.2-14.6-23.4
		c-28.2-41.4-8-70.4,31.9-88.4c19.5-8.8,29.4-1.4,27.1,20.2c-1.9,17.5-9.3,34.4-11.4,51.9c-2.5,20.9-3.7,42.4-1.9,63.3
		c1.2,13.8,9.4,22.6,26.1,12c32.6-20.6,54.7-45.3,51.6-87.9c-2.7-37.5,9.3-91.8,9.3-132.5c-9.6,0.6-13.9-0.1-21.4,0.2
		c-10.7,0.5-36.1-0.6-46.7,0c-9.5,0.6-17.4,21.2-27,21.5c-12.5,0.3-26-4.5-37.4-8.2c-37.1-14.7-68.8-1.1-77.7,31.6l27.2,16.9
		l-50.3,91.2c-18.9,2.7-34.7-3.7-37.9-28.7c-3.3-25.5-5.9-51.1-9.6-76.5c-1.9-13.2-1.4-37.7-21.7-34.4
		c-30.1,4.8-44.6,25.7-42.9,45.6c2.3,26.6,3.6,53.4,5.3,80l-9.1,0.8c-2.9-28.8-3.9-57.9-9.3-86.1c-2.8-14.2,7.3-43.3-2.9-46.2
		c-15.7-4.5-62-12.6-69.7-2.3c-15.6,21.1-53.1,18.5-73.5,25.3c-27,9-41.8,31.5-60,63l22.2-4.2c-4,14.4-6.7,26.4-10.6,38.1
		c-14.6,44.6,0.3,82.2,28.4,115.9c23.1,27.6,39.7,26.1,58.9-3.2c3.9-5.9,7.5-12,11.8-17.7c16.8-22.4,13.6-39-12.2-52.5
		c-21.6-11.3-30.9-33.3-22.2-54.3c6.6-16,23.5-28.8,38.3-39.9c12.8-9.6,22.1-0.2,24.7,13c7.9,40,16,80.1,21.8,120.4
		c5.8,40.5,15,45.5,47.9,21.7c2.9-2,5.6-4.4,8.1-6.9c14.5-15.7,29.6-17.6,45.9-2.7c3.9,3.5,9,5.7,13.2,9c12.8,10,22.4,12.3,30.7-6.3
		c6.9-15.5,17.9-29.1,27.3-44c16.7,18.8,31.3,35.3,46,51.8c10.8,12.2,21.4,15.4,32.4-0.2C2062.9,684.2,2074.7,668.8,2086.1,653.3z
		 M2299.8,1509.6l3.3-7.7c-16.4-17-31.7-35.1-49.3-50.6c-31.6-27.7-54.6-66.3-99-78.1c-3.9-1-6.7-7.2-9.5-11.2
		c-15.5-22.2-29.6-45.5-46.5-66.6c-12.1-15.1-30.5-25.5-41.4-41.2c-17.3-25-34.5-20.8-52.5-4.3c-38.2,35-81.9,65.1-106.1,113.4
		c-1.7,3.5-5.9,6.6-9.7,8.1c-61.4,23.8-94.8,78.4-136.3,124c-3,3.3-3,9.2-4.6,14.7c4.8,2,7.9,4.6,11.1,4.6
		c72.8-0.6,145.6-1.3,218.4-2.5c15.2-0.3,17.3-8.7,11.1-21.7c-10.1-21.2-7-42.8,12.9-53.7c12.5-6.8,33.3-7.3,46.6-1.7
		c21,8.9,22.1,30.5,14.9,50.7c-7,19.8,0.8,25,19.7,25.4c56.8,1.3,113.6,4.4,170.4,5.4C2268.6,1516.7,2284.2,1512,2299.8,1509.6
		L2299.8,1509.6z M1883.1,2676.6c27.1,58.5,70.5,98.6,123.6,137.2c0.1,0.5,0.9,7.7,2,17.4c7.1-3.3,12.6-4.3,15.9-7.6
		c28.1-28.3,57-55.9,83.1-85.9c17-19.5,29.6-42.8,47.8-69.6c19.5-1.7,118.7-82.3,139-122.9h-241.7c5.1,52.4-10.6,88.9-40.8,88.6
		c-10.2-0.1-21.7-7.9-30.3-14.9c-27.2-22.2-4.8-48.3,0.5-77.5h-257C1776.8,2594.3,1817.6,2650.6,1883.1,2676.6z M906.8,1822.9
		c-13.3-7.9-25.5-21-37.3-20.8c-15.5,0.4-31.9,9.6-45.4,18.8c-4.1,2.8-3.4,22.9,1.5,26.7c21.3,16.3,24.6,34.5,16.1,58.6
		c-4,11.4-2.2,22.7,15.6,23.3c53.9,1.9,107.7,5.4,161.6,7.5c29.1,1.1,58.3,0.2,87.5,0.7c38.7,0.7,77.4,3,116.1,2.1
		c14.2-0.3,28.1-7.9,43.1-12.5c-11.6-32.3-19.6-63.2-63.2-59.1l58.8-39.9l-3.3-7.4c-9.4-1-18.8-2.2-28.2-2.9
		c-32.4-2.4-65-0.3-93.3-24c-7.7-6.5-32.2-4.3-40.3,3.3c-17.1,16.1-31.9,14.3-46.9,2.7c-16.7-12.8-30-8.4-46,0.7
		c-6.5,3.7-20.1,4.1-24.9-0.1c-16.8-15-30.7-8.9-45.2,1.9C923.9,1809.2,915.1,1816.4,906.8,1822.9L906.8,1822.9z M3211.2,1062.4
		c-1.2-2.9-2.5-5.8-3.7-8.7l-75.8,4.9l-0.9-8.9c20.5-4.1,41-8.7,61.6-12.2c13.3-2.3,38.3,4.1,38.9-15.6c0.5-17,6.1-46.7-5-55.9
		c-25.4-21.1-67.3-41.9-97.2-56.7c-7.4-3.7-24.5,10.6-32,16.1c-24.9,18.5-47.1,40.6-72.4,58.5c-7.6,5.4-22.9,4.5-32.8,1.1
		c-12.9-4.5-23.8-14.4-38-23.5c7-8.9,13.2-17.3,19.9-25.1c25.4-29.7,51.5-58.7,75.9-89.1c3.7-4.6,16.5-22.3,12.7-24.5
		c-19.2-11.4-68.3-1.5-84.3,15.7c-35,37.6-70.4,75-104.2,113.7c-4.4,5.1-4.1,22.5,0.3,25.8c29.1,21.8,55.8,51.8,98.9,39
		c3.6-1.1,8.5,2.5,12.9,3.8c-0.2,2.8-0.4,5.7-0.6,8.5c-17.1,0-34.2-0.8-51.2,0.2c-22.8,1.3-46.1,22.6-46,40.6
		c0,21.9,17,39.8,40.8,43c18.9-38.2,40.8-47.6,91.3-39c0,11.4-1.6,23.1,0.5,34.1c1.4,7.5,7,19.2,12.4,20.1
		c26.6,4.7,53.8,6.5,84.8,9.7c-10.8-29.5,1.4-35.8,23.5-41.9C3166,1089.3,3188.1,1074,3211.2,1062.4z M2614.7,503.9
		c-5-7.7-8.6-28.1-24.8-35.4c-6.1-2.7-24.1,9.2-29.9,5.8c-18.5-11.1-31.8-29.8-41.4-27.4c-3.3,0.8-14.4,15.2-17.6,15.5
		c-11.6,1.1-23.9,4-34.7,1.3c-12.6-3.1-23.5-14.5-36-16.3s-27.2,1.7-39,7c-6,2.7-12.6,19.8-10.7,21.5c9.5,8.6,20.5,15.4,32.4,20.2
		c10.6,4.3,22.6,5.1,40,8.7c-14.3,10-21.4,17.6-30.1,20.5c-28.3,9.6-41.2,29.5-46.9,57.9c-5.8,28.6-23.9,47.1-54.3,49.8
		c-9,0.8-25.1,0-26.2-3.6c-3.1-10.3-4.4-26,1.4-33c10.4-12.4,26.6-20.1,40.5-29.5c9.1-6.2,18.5-12,31.9-20.7
		c-18.1-10.9-25.9-43.2-46-31.3c-21.1,12.6-47.2,40-69.2,51.2c-43.2,22-66.5,72.8-45.4,108.2c10.9,18.2,32.2,31.5,51.1,43.3
		c17.4,10.8,32.9,1.1,47.3-11.9c7.2-6.5,18.8-8.2,28.6-12.2c11.5,44,28.7,52.6,72.3,36.8c11.5-4.2,22-11.2,32.6-17.5
		c28-12.6,30.1-22,2.4-33.1c-9-8.8-16.7-24.4-16.1-36.5c1.9-34.1,2.2-68.4,21.8-100c16.6-26.8,21.2-31.2,49-16.6
		C2543.9,551.1,2591.8,541.7,2614.7,503.9z M721.6,2997c52.1,30.4,75.9,23.1,79.4,59.9l10.8,51.7l58.2-3.1l2.6-59.3
		c37.5-31.4,88.5-62.2,124-120l-69.7-8.6c-7.7-25,23.4-57.3-14.3-75.8c-24.9-12.2-50.4-23-74.7-33.9l35.8-32.3
		c-34.1-31.1-75.3-33.2-106.4-7.5c-31.5,26-71.4,44.6-102.6,70.8c-5.6,4.7-48,26.9-52.8,32.7c30.9,23.3,88.2,16,115.9,0
		c29.8-17.1,59.5-34.5,94-54.4c3.2,13,8.9,24.1,7,33.6c-1.1,5.2-15,8.2-23.3,11.5c-11.4,4.6-24.2,6.7-34.4,13.1
		c0,0-15.9,6.1-26.1,17c-10.2,10.9-25.5,32.3-28.9,49C712.7,2958.2,721.6,2997,721.6,2997z M801.8,2932.5
		c28.3,0.7,56.7,0.2,89.8,0.2c-55.7,64.8-72.3,68-95.5,10.5L801.8,2932.5z M765.5,1134.5l-21.1-10.6c2.7,12.7-8.1,30.5-5.3,43.2
		c1.4,6.2,4.3,26.6,1.9,30c-9.9,14,21.3,23.5,30,28.8c38.6,23.5,77.7,46.2,116.5,69.4c13.1,7.8,21.2,5.8,30.4-7.8
		c25.5-37.3,52.2-73.9,80.2-109.5c28.2-36,27.1-49-11.3-75.6c-12.8,6.1-25.2,13-38.4,18c-25.6,9.7-65,0-78.1-19.7
		c-15.1-22.7-1.1-40,12.5-57.1c1.1-1.4,0.2-4.5,0.2-6.8c-41.7-7.4-78.1-2.9-86.5,71.8c10.7,48,72.5,56.4,107.4,70.3
		c-14.9,37.4-21,39.7-51.2,20.1c-12.6-8.2-24.4-17.8-37.1-25.7c-18.7-11.5-19.5-21.3-38.2-32.4L765.5,1134.5z M966.8,3160.9
		c-5.4-15.9-8.9-24.8-11.5-34c-11.1-39.7-2.6-55.6,37.5-60.2c12.3-1.4,27.4,8.1,38.4,16.4c2.8,2.2-3.1,19.9-8.5,28.2
		c-8.6,13.3-20.7,24.2-30.2,36.9c-7.4,10-68,66.5-53,79.9c14.6,12.9,59,22.9,76,7.8c37.3-33.1,92.4-110.9,128.1-147.7
		c-15-16.9-26.1-29.4-37.3-41.8c-11.8-13-21.7-28.9-35.9-38.4c-35-23.4-88.7-20.5-118.5-0.5c-51,34.3-87.3,101.1-81.2,160
		c0.5,4.6,27.1,7.8,32.3,8.2C923,3177,942.9,3160.9,966.8,3160.9z M2850.8,740.7c-0.4,1.9-0.8,3.8-1.2,5.7c5,3.4,10.2,6.5,14.8,10.2
		c26,20.8,31.2,59.3,10.4,76.2c-21.1,17.2-67.4,21-91.6,7.6c-14.1-7.8-17.9-14.4-6.9-30.9c24.8-37.2,45.7-76.8,68.8-116.5
		c-41.6-9.7-67.1,0.1-85.8,30.1c-4.2,6.7-8.8,14.5-15.2,18.2c-35.4,20.4-46.2,57.2-61.8,90.7c-2.4,5.1,0.7,18.1,4.7,20
		c18.5,8.8,37.9,16.7,57.8,21.2c11.2,2.6,24-2,35.4-3.3c17.4,47.3,17.4,47.3,50.8,41.9c70.9-11.3,125.9-78,125.7-150.3
		c0-19.6-8.3-29.4-26-29.9C2906.8,730.8,2874.9,739.2,2850.8,740.7z M3239.8,1216.1c19.4,2.9,35.7,3.2,50.6,8.1
		c20.1,6.5,29.9-2.4,38.1-18.4c16.3-31.6,18.7-63.5,10.7-94.8c-7.9-30.8-64.9-53.9-88.9-36.9c-29.6,21-67.5,45.5-97.8,65.5
		c-23.6,15.6-42.3,51.6-35,79.9c6.8,26.5,33.6,20.7,53.1,25.4c9.8,2.4,19.9,4,36.1,7.1c-17.7-35.9-5.2-60.9,17.5-82.6
		c8.9-8.6,17.8-18.2,28.6-23.6c9.7-4.8,22-4.5,33.2-6.5c-1.3,12.6,1.3,27.8-4.8,37.2C3271.7,1190.7,3256.2,1200.9,3239.8,1216.1
		L3239.8,1216.1z M527.5,1677.6c-24.5,5.4-47.2,12-60.9,19.7c-28.4,15.9-21.8,58.7,3.4,80.2c29.8,25.4,65.4,45.6,104.7,33.7
		c40.4-12.2,67.5,2.7,94.4,27.7c2.4,2.2,5.6,3.4,10.3,6.1c7.6-23.3,15.6-44.7,21.5-66.6c10.9-40.6-1.2-63.7-40.3-81.7
		c-26.3,21.6-41.9,59.8-86.2,51.7C538.2,1741.8,523.2,1719.8,527.5,1677.6z M2654,3383.8l-40.7,52.8c0.7,0.9,3.7,8.5,9.3,11.6
		c19.8,10.9,28.4,34.2,49.2,42.8c18,7.5,52.1,9.9,60.5-9.2c5.6-12.7,7.3-40.1,17.4-47.5c25.9-19,46.6-44.5,73.8-61.9
		c6.9-4.4,11.3-12.6,20.5-23.2c-55.4,9.5-56.1,6.5-77.6-40.3c-13.7-29.8-35.7-55.9-54-83.6l-9.2,1.8c-4.6,22-12.4,43.9-13.1,66
		c-1.2,32.9,10.4,29.5,25.9,47.9c4.7-1.7,0.5,4.1,6.4,10c-2.7,5.3,3.3,0,6.3,6.3c0,8.2,6.7-6.3,2.2,12
		c-10.4,18.9-15.8,40.4-25.6,59.6c-3.6,7.1-14.5,15.7-20.6,14.7c-6.4-1,27-73,23.1-80.9C2702.7,3352.6,2660.4,3402,2654,3383.8
		L2654,3383.8z M906.5,2761.3c7.8,7.9,13.8,14,19.9,20c4.7,4.6,12.1,8,13.8,13.4c7.7,24,14.3,48.4,20.4,72.8
		c10.9,43.9,65.8,70.7,126.7,49.5c-16.7-34.6-32.3-69.8-50.2-103.6C1012.9,2767.9,960.8,2746.6,906.5,2761.3z M1282.8,3053.5
		c-28.1,6.7-53.9,11.3-78.6,19.3c-14.8,4.8-16.3,16.5-6.5,29.8c26.2,35.8,80.3,52.5,121.4,35.9c8.1-3.3,14.8-10,23.6-16.1
		C1316.5,3102.5,1263.4,3113.5,1282.8,3053.5z M2225,438.8c-0.6-3.9,46.8-36.5,46.2-40.4c-32.6-10.2-127.6-7.1-160.9-14.6
		c-31-7-111.4,44.2-97.3,73.2c4.3,8.9,101.9-7.4,111.4-5.6c22.4,4.4,45.8,6.6,68.5,5.2C2203.9,456,2214.3,445.1,2225,438.8
		L2225,438.8z M1035.8,1069.2c17-0.3,39.7,11.6,39.7,11.6c-3.8-16.7,4.4-51.5-8-65.2c-7.2-11.3-49.7-2.8-69.1,3.3
		c-26,11.4-17.6,45.5-11.8,64.8C986.6,1083.6,1018.8,1069.5,1035.8,1069.2z M979.1,1001.3l6.8-4.5c-6.3-17.2,1.1-64.3-8.3-66.2
		c-17.8-3.6-52.9,10.1-68.8,21.1c-16.7,11.6-12.3,44.2-0.5,63.8C929.9,998.3,951.5,983.8,979.1,1001.3L979.1,1001.3z M505.2,1428.4
		l-40,118.7C523.2,1512,535.6,1467.5,505.2,1428.4z"/>
	<path class="st1" d="M1454,2352.2c-22.1-60.7-16.9-123.6-3.3-183.5c5.8-25.5,38.6-44.9,61-69l16.3,26.1
		c29.8-14.7,58.8-28.5,87.1-43.6c3.9-2.1,6.3-10.4,6.3-15.9c0-23.9-1.1-47.7-1.9-71.6c-0.1-1.8,0.1-4.4-0.9-5.1
		c-33.8-22.9-5-37.8,9.3-56.3c-37.7-3.8-16.4-37.1-29.7-55.3c-10.6,10.6-21,19.9-30.1,30.2c-16.5,18.8-31.6,16.6-46.1-1.9
		c-8.1-10.4-15.7-21.1-25.2-33.8c-9.4,13.9-13.4,20.8-18.4,26.8c-17.6,21-35.8,21.1-60.4,9.6c-11.6-5.4-31.5-3.5-42.6,3.3
		c-13.1,8.1-22.4,11.7-35.9,4.3c-19.3-10.6-40-19.1-58.4-31.1c-17.6-11.5-21.3-26.7,0.8-38.4c30.6-25.2,90.6-66.9,127.9-82.6
		c7-2.9,2.2,39.6,11.8,45.1c5.4-8.1,3.9-41,9.7-49.6c5.1-7.7-38.8-17.6-48.3-16.7c-6.2,0.6-75.9,21.2-83.7,18
		c-3.5-1.4-19.7-10.9-20.6-14.4c-4.3-15.8,61.6-62,68.6-64.6c15.7-5.7,31.7,30.3,52.1,32.7c17.6,2,26.2-3.8,30.5-6.6
		c18-11.5,34.7-22.7,38-27.5l18,28.9c10.6,17.4,16.5,26.3,27.7,10.5c17.7-24.8,42.8-35.8,73.5-36.1c19.5-0.2,39.1-5.7,58.3-4.3
		c17.8,1.2,35.1,8.4,61.4,15.3c20.9-23.6,50.4-9.6,79.3,9.6c16,10.6,31.2,10.4,46.9-0.6c40.8-28.4,85.8-31.4,132.8-21
		c5.1,1.1,12.9,1.3,14.8,4.5c15.8,26.8,33.4,13.6,51.1,3.3c38.2-22.1,59.5,12.5,88.5,22.8c-9.4,14.9-17.9,26.5-23.5,39.3
		c-1,2.3,9.8,9.7,22,21.2c-4.2-55.6,38.9-62.2,67-89c5.1,14.9,8.6,25.3,13.9,41c12.9-9.8,24.8-16.8,34.2-26.4
		c13.3-13.5,26.2-12.6,40.6-3.5c0.8,0.5,1.5,1,2.2,1.5c30.1,22.3,59.7,50.4,93.7,5.2c1.9-2.5,6.2-3.4,9.6-4.4
		c2.4-0.8,5.2-0.6,12.4-1.2c5.3,37,10.6,74,16.5,115.2c9.4-5.4,16-9,22.4-12.9c22.9-13.9,44.8-20.1,68.4,0.5
		c5.5,4.8,20.1,5.2,27,1.4c20.2-11.4,37.6-11.1,57.3,1.2c7.5,4.7,22.2,6.6,28.7,2.3c25.1-16.6,48.2-12.3,72.9-0.7
		c5.8,2.8,16.5,2.7,21.2-0.9c26.2-20.1,56.2-19.6,86.6-19.4c24.1,0.2,46.6-0.9,67.1-18.7c19.4-16.8,54,3.6,61.9,36.3
		c21.4-5.9,42.9-8.6,57.3,15c1.3,2.2,13.7,0.9,17.7-2.5c17.3-14.8,31.8-33.2,50.4-45.8c8.7-5.9,28.3-6.9,36-1
		c33.6,25.5,32.7,26.7,72.1,19.2c0.8-1.4,2.7-3.3,2.4-4.3c-11.8-33,10.6-50,33.3-62.4c49.2-26.8,78.6-10.2,94.7,37.9
		c2.1,6.3,3.6,17.7,0.4,20.2c-27.1,21.1-11.7,71.6-55.7,81.1c-1,0.2-1.4,14.3,1.7,19.7c2.4,4.3,12.4,3.9,16,8.2
		c23.7,6.1,25.2,30.7,34.1,43.4c-12.2,4.5-31.4,6.8-43.7,7.1c-38.1,0.7-76.5,0.5-114.3-3.9c-10.4-1.2-18.9-18-30.4-29.9
		c-6.6,6.3-17.5,18.4-30.4,28.1c-5.9,4.5-19.4,8.3-22.9,5.1c-20.7-18.7-39.4-39.6-59-59.9c-9.4,12-19.1,31-34.4,41.8
		c-12.9,9.1-32.4,11.4-49.1,12c-51.3,2-102.7,2.8-154,1.8c-13.9-0.3-27.6-8.8-41.8-13.6c-4.6,2.9-12.1,11.5-19.8,11.6
		c-65.3,0.9-130.7,0.4-196.1,0.2c-23.1-0.1-32.6-10.6-32.6-34.7c0-16.3-5.4-33.5-12.2-48.5c-4.4-9.6-15.8-16-24-23.9l-8.5,5.2
		c3.6,12.9,4.6,27.3,11.2,38.3c17.2,28.4-11.7,36.8-21.3,53c-9.3,15.7-21.4,6.3-32-0.3c-20.6-12.8-38.3-17.5-62.9-2.1
		c-34.9,21.8-58.8,13.1-96.1-23.1c-75.5,35-150.8,68.1-215.1-16.8l-78.1,55.1c-3.6-18.9-6.1-31.9-8.6-44.9c-4.4,0.7-6.8,0.3-7.8,1.3
		c-29.7,32.4-29.7,32.4-72.6,11.8c-12.8-6.1-23.7-11.9-38.9-0.5c-35.2,26.4-41,25.3-75.8-2.2c-6.9-5.5-13-12-20.7-19.2l-24.7,29.4
		c51.3,76.1,47.4,114.4-16,167.8l34.6,37.6c47.9-45.4,105.4-22.8,161.6-18.4c36.1,2.8,72.6,2.6,108.8,2c24.6-0.4,44.2,4.4,51.4,35.2
		c11-6.6,20.4-10.9,28.2-17.2c22.6-18.4,45-23.6,69.2-2.8c7.4,6.3,16.7,10.2,24.2,16.4c24.3,19.9,27.2,19.2,39.8-9.5
		c-13.1-15.4-30.4-28.1-35.8-44.6c-4.4-13.5,5.1-31.8,9.5-47.6c2.7-9.2,6.4-18,11.1-26.3c4.2-7.8,8.2-18.4,15.1-21.6
		c17.8-8.1,37.1-12.8,55.9-18.8c4.2,18.5,10.4,36.8,12,55.4c2.1,23.7,0.5,47.8,0.5,76.4c11.5,0.7,24.1,2.2,36.7,2.3
		c42.2,0.4,48.6,6.1,52.8,48.7c0.5,4.9,1.9,9.8,3.4,17.9c35.3-30.9,68-61.5,118.4-61.1c0-18.2,2.2-35.1-0.5-51.3
		c-4.2-24.7,5.4-38.5,27.3-47.4c11.4-4.6,21.8-11.5,35.8-19.1c23.5,42.3,18.6,79.1-22.9,112.2l60,14.4
		c-6.7,10.4-11.9,18.6-20.5,31.9c10.1-7,15.4-10.9,20.8-14.5c40.5-27.4,41-28,78.5,5.1c8.1,7.1,14.6,20.6,14.8,31.2
		c0.5,36.9-0.9,73.8-4.3,110.6c-1.1,12.2-7.6,27.6-16.8,34.5c-19.6,14.5-41.1,26.2-63.9,34.8c-8.1,3.1-22.3-3.8-31-10
		c-10.4-7.4-17.9-18.9-26.7-28.6c-46.2,51.4-92,60.1-138.8,24.9c-8.1-6.1-17.9-20.8-15.6-27.7c6.1-18,16.9-35,41.4-34.8
		c12.8,0.1,25.6-3.6,38.3-5.6c-7.1-12.7-12.5-26.8-21.9-37.6c-9.7-11.1-22.6-19.9-35.2-27.9c-11.6-7.4-24.7-12.6-41.3-20.9
		c1.5,29.2,2.2,55.4,4.2,81.4c2.8,35.8-12.6,63.4-46.2,74.8c-6.6,2.2-21.6-4.1-24.3-10.2c-6.2-14.1-8.5-30.4-10.1-46
		c-2.5-24.6-2.5-49.5-5.2-74c-0.6-5.6-8.4-10.4-12.9-15.5c-3.9,5.8-10.8,11.5-11,17.5c-1,24.8,1.4,49.9-0.5,74.6
		c-0.8,9.6-7.7,22.1-15.7,27.1c-23.9,14.9-48.5,33.5-75.1,38.3c-43.9,7.9-83.4-9.7-114.6-42.9c-1.7-1.8-4.1-3-0.1-0.1
		c-24.6,15.2-45.9,29.4-68.1,41.6c-17.2,9.5-28.2,0.4-30.2-16.8c-4.5-37.5-7.2-75.2-10.4-112.9c-0.5-6.1,2.6-13.2,0.5-18.4
		s-8.5-8.4-13.1-12.5c-3.3,5-9.2,9.7-9.6,14.9c-1.9,24.5-2.1,49.2-3.3,73.8c-1.9,39.1-32.4,55.3-60.4,71.8
		c-15.9,9.4-32.1,3.8-37.9-15.9c-3.6-12.6-4.2-26-5.8-39.1c-1.1-8.9-1.7-17.9-2.5-26.8l-8.6-0.8c-1.6,6-5.2,12.4-4.3,18
		c2.9,18.9-11.9,55.3-30.1,62.6c-22,8.8-36-8.1-50.1-21.3c-2.5-2.3-4.6-4.9-6.8-7.3c-77.6,45.4-77.6,45.4-140.9-3
		c-26.6,14.6-52.8,29-78.9,43.4L1454,2352.2z M1532.6,2279.8c49.2-16.6,68.9-53.2,53.4-90c-2.7-6.3-16.9-10.4-25.9-10.6
		s-26,5-26.3,8.8C1531.6,2217.1,1532.6,2246.6,1532.6,2279.8L1532.6,2279.8z M2558.3,2261.1l15.3-4.2c-6.1-25-10.7-50.5-19.3-74.6
		c-2.5-7.1-17.1-15.3-24.7-14.2c-16.5,2.5-32.1,10.8-48.9,17.1c3.4,9.7,4.6,13.9,6.4,17.8c13.5,29.6,13.8,29.4,39.7,10.8
		c5.9-4.2,13.5-5.9,17.2-7.4C2549.2,2226.3,2553.8,2243.7,2558.3,2261.1L2558.3,2261.1z M2321.8,1764l-9.8-3.2
		c-12.4,15.4-27.1,29.4-36.6,46.4c-10.7,19.2,4.7,53,25.6,59.8c5.6,1.8,19.8-3.9,19.9-6.6C2322.3,1828.3,2321.8,1796.1,2321.8,1764z
		 M1900.8,1849.3c16.7-21.9,9-44.5,5.3-66.7c-5-29.2-14.2-33.1-48.7-15.9C1889.1,1785.8,1863.3,1831.1,1900.8,1849.3L1900.8,1849.3z
		 M2104.5,1858.2l10.9-2.6c1.9-20.8,3.7-41.7,5.5-62.5l-9.9-5.5c-7.6,9.5-21.4,18.9-21.5,28.5
		C2089.4,1830.1,2099.1,1844.2,2104.5,1858.2L2104.5,1858.2z M2002.2,1764.3l-9,1.6l2,41.9l46.9-8.1l-1.1-8.6L2002.2,1764.3z
		 M1789.3,1828.2v-59.6C1767.7,1790.2,1765.5,1804.2,1789.3,1828.2L1789.3,1828.2z M2480.2,2180.4l8.8-2.6
		c-1.2-9.1-2.5-18.3-3.7-27.4l-33.8,11.6L2480.2,2180.4z"/>
	<path class="st1" d="M1451.1,2529.6h214.5l5.1,18.4l142,158.3c0,0,19.4,0,30.6,7.1s5.1,37.1,5.1,37.1l171.6,169.2l168.5-176.7
		v-24.5c0,0,21.4,3.1,30.6-2c9.2-5.1,145-154.2,145-154.2v-32.7l167.5-7.1l55.1,12.3l-48,33.7c0,0-200.4,211.7-215.5,209.4
		s-71.5-52.1-71.5-52.1l-25.5,16.3l-14.3-3.1l-1,16.3l-24.5,26.6c0,0,82.4,72.7,72.5,78.6c-28.3,16.9-232,233.3-249.2,225.7
		c-34.5-15.3-235.4-224.2-233.9-238s66.4-57.2,66.4-57.2l31.7,23.5c0,0-6.1,14.2,3.1,16.8s23.5-7.6,23.5-7.6s-24.5-28.6-32.7-33.7
		s-33.7-23.5-33.7-23.5l-9.2-35.7l-21.4-1l-16.3-16.3c0,0-55.4,70.7-70.5,72.5C1701.6,2787.7,1451.1,2529.6,1451.1,2529.6z"/>
	<path class="st1" d="M2451.7,2503.2c6.1-19,17.2-37.7,19.4-55.3c1.3-10.4-8-21.5-14.2-30.9c-11.5-17.3-11.2-33.1,2.4-47.5
		c14-14.9,28.3-26,49.2-6.3c24.1,22.7,34.3,64.9,19.4,96.9C2515,2487.5,2478.7,2507.8,2451.7,2503.2z"/>
	<path d="M2322.5,1768.1c0,32.1,0.5,64.3-0.9,96.4c-0.1,2.7-14.3,8.5-19.9,6.6c-21-6.8-36.3-40.6-25.6-59.8
		c9.5-17,24.2-31.1,36.6-46.4L2322.5,1768.1z"/>
	<path d="M1901.5,1853.4c-37.5-18.2-11.7-63.5-43.4-82.6c34.4-17.1,43.7-13.3,48.7,15.9C1910.6,1808.9,1918.3,1831.5,1901.5,1853.4z
		"/>
	<path d="M2105.2,1862.3c-5.4-14-15.1-28.1-14.9-42.1c0.1-9.6,13.9-19,21.5-28.5l9.9,5.5c-1.9,20.8-3.7,41.7-5.5,62.5L2105.2,1862.3
		z"/>
	<path d="M2002.9,1768.5l38.9,26.8l1.1,8.6l-46.9,8.1l-2-41.9L2002.9,1768.5z"/>
	<path d="M1790,1832.3c-23.8-23.9-21.7-38,0-59.6V1832.3z"/>
	<rect x="1685.7" y="2183.2" width="27.1" height="10.4"/>
	<polygon points="1761.8,2185.9 1782.7,2178.8 1782.7,2193.6 	"/>
	<polygon points="2009.9,2186.2 2009.9,2225.2 2047.1,2214 	"/>
	<polygon points="2132.5,2169.5 2132.5,2191.5 2122.8,2180.5 	"/>
	<polygon points="2139.1,2230.3 2139.1,2276.8 2122.8,2250.8 	"/>
	<path d="M1600.4,1772.6c0,0-27.6,19.6-28.3,34.4c-0.8,14.8,28.3,34,28.3,34s-8.7-16.3-8.6-34.2
		C1592,1788.9,1600.4,1772.6,1600.4,1772.6z"/>
	<path d="M1690,1798.9c0,0-9.2,2.7-7.7,19.3c1.5,16.7,7.7,44.1,7.7,44.1s0-37.2,0-50.3S1690,1798.9,1690,1798.9z"/>
	<polygon points="2527.8,1875.4 2517.7,1849.1 2530.3,1857.2 	"/>
	<path d="M2579.3,1879.4c0,0-1.4-23.1,24.2-24.2c25.5-1,24.5,24.2,24.5,24.2H2579.3z"/>
	<polygon points="2782.5,1865.4 2791.7,1862 2791.7,1855.2 2782.5,1855.2 	"/>
	<polygon points="2851,1867.3 2880.2,1868.8 2881.6,1846.3 2855,1857.6 	"/>
	<polygon points="3186.6,1882.1 3190,1862.7 3175.4,1866.8 3169.3,1882.1 	"/>
	<polygon points="1510,1790.2 1500.8,1768.5 1514.6,1768.5 	"/>
	<path class="st1" d="M3627.1,1642.6c0,0,43.4-7.1,67.4,7.7c24,14.8,43.4,59.7,40.3,74.6c-3.1,14.8-22.5,34.2-14.3,46
		c8.2,11.7,14.6,16.9,14.6,16.9s-71.3,1-75.9-26.6s16.9-41.9,12.8-68.4C3668,1666.1,3627.1,1642.6,3627.1,1642.6z"/>
	<path class="st1" d="M1254.7,1667.3c0,0,43.9-72.2,93.3-79s80,29.6,80,29.6s8.9,10.9,20.4,11.6c11.6,0.7,32-2.1,32-2.1
		s-22.8,68.8-55.5,73.6c-32.7,4.8-46-40.9-64-43.2C1342.9,1655.4,1254.7,1667.3,1254.7,1667.3z"/>
	<path d="M3075.5,1035.7l71.2-75.8c0,0,32.2,16.9,21.4,37.9c-10.7,21.1-27.7,37.9-45.2,37.9
		C3105.3,1035.7,3075.5,1035.7,3075.5,1035.7z"/>
	<path d="M2202.8,1764.3v27.4c0,0,18.4-6.1,19.4-19.1S2202.8,1764.3,2202.8,1764.3z"/>
	<path d="M3391.6,1527.1l114.4-39.2c0,0,18.4,53.1-14.3,61.3C3459,1557.3,3391.6,1527.1,3391.6,1527.1z"/>
	<path class="st1" d="M2637.3,3099.5l-3.1-20.4l43.9-2c0,0-8.2-48.5-15.8-54.6c-7.7-6.1,9.2-27.1,9.2-27.1s54.1-10.2,64.9,0
		c10.7,10.2,11.2,72.5,11.2,72.5s13.8-3.1,23,4.1c9.2,7.1-7.1,85.8-7.1,85.8s-31.7-19.9-43.4-18.4c-11.7,1.5-35.7,2-30.1,18.4
		c5.6,16.3,36.3,13.8,36.3,13.8l-3.6,12.3c0,0-65.4,1.5-80.7,10.7c-15.3,9.2-50.6,42.9-50.6,42.9s-31.7-60.8-24-92.4
		C2575,3113.3,2637.3,3099.5,2637.3,3099.5z"/>
	<path d="M2472.4,3520.7c0,0,10.2,31.1-11.2,35.2c-21.4,4.1-27.6-59.4-27.6-59.4l-6.7-22.3c1.6-13.2,0.4-26.7,0.4-40
		c18,25,25.7,44,41.7,68L2472.4,3520.7z"/>
	<path class="st1" d="M2422.4,3654.7c0,0,30-23.8,42.2-21.1s17.7,26.2,24.9,26.6s29.3-56.9,42.2-56.9c12.9,0,15.7,59.2,6.5,69.8
		c-9.2,10.6-58.9,44.6-73.2,40.9c-14.3-3.7-55.8-41.5-51.4-51.4S2422.4,3654.7,2422.4,3654.7z"/>
	<path class="st1" d="M2117.3,3688.7c0,0,53.8-49,62.6-48.7c8.9,0.3,36.8,20.4,40.5,32c3.7,11.6-1,43.9,4.8,46
		c5.8,2,2.6-46.6,5.4-53.8c2.8-7.1,25.2-46.6,33.8-43.2c8.5,3.4,5.8,43.6,6.8,53.1c1,9.5,11.6,62.3,6.8,66.7
		c-4.8,4.4-66.5,28.3-79.7,26.2c-13.2-2-21.4-60.3-32.6-65.4C2154.4,3696.6,2117.3,3688.7,2117.3,3688.7z"/>
	<path d="M2139.1,3486.2c0,0-48.3,37.4-46,53.4c2.4,16,17,39.1,38.5,39.1c21.4,0,36.4-18,34.4-35.1S2139.1,3486.2,2139.1,3486.2z"/>
	<path d="M2031.2,3497.1c0,0,3.4-7.8,3.4-15s-1.7-10.2-1.7-10.2s17.4-1.7,17.7,3.7C2051,3481.1,2031.2,3497.1,2031.2,3497.1z"/>
	<path d="M1895.4,3432.7c0,0,50.7,37.1,50.4,66.7c-0.3,29.6-17,49.4-17,49.4l-53.4-27.2c0,0,19.7-29.7,19.7-45.7
		S1895.4,3432.7,1895.4,3432.7z"/>
	<path d="M1400.1,3379.6c0,0-11.6,4.4-11.9,16.7s6,16.7,6,16.7s6-5.1,7.7-16.7S1400.1,3379.6,1400.1,3379.6z"/>
	<path d="M1360.6,3218.6c-4.8-3.7-32.7-29.6-32.7-29.6l-24.2,7.8L1360.6,3218.6z"/>
	<path d="M533.3,2345.4l76.3-23.5c0,0,2.4,19.1,9.2,32.3s12.9,15.7,10.6,24.2c-2.4,8.5-22.1,4.4-37.4,8.2
		c-15.3,3.7-36.4,21.8-36.4,21.8s23.8-31.3,35.7-34.4c11.9-3.1-12.6-19.4-12.6-19.4L533.3,2345.4z"/>
	<polygon points="570.1,2142.2 601.8,2138.1 603.5,2156.8 	"/>
	<path d="M506.8,2060.5c0,0-15.5-55.3,42.2-60.3c59.6-5.1,43.9,57.5,43.9,57.5L506.8,2060.5z"/>
	<path d="M1367.4,731.8c0,0,46,14.7,31.7,30C1384.7,777.1,1367.4,731.8,1367.4,731.8z"/>
	<polygon points="971.1,1871.5 996.6,1853.4 1017.6,1875.4 	"/>
	<path d="M1957.7,2617.4c0,0,28.9,26.6,52.2,26.6s68.3-26.6,68.3-26.6s-39.6,39.8-68.3,37.8
		C1981.2,2653.2,1957.7,2617.4,1957.7,2617.4z"/>
	<path d="M3462.7,2119c0,0,45.3-69.5,94.3-66.4s26.6,76.6,26.6,76.6L3462.7,2119z"/>
</g>
<g class="st2">
	<title>original</title>
	<path class="st3" d="M3780.1,1991.2c-5.8-53.1-12.1-155.4-28.8-255.9c-44.5-268.1-152.1-510.1-315.4-727
		c-151.3-201-337.6-361.8-558.8-482.4c-230.4-125.1-476-194.9-738.3-203.8c-34.6-1.2-69.3,3.8-103.9,3.6c-25-0.1-50.1-6.7-75.1-5.8
		c-213.3,7.8-416.6,58.9-611.6,144.4c-121,53-232.8,121.4-339,200C912.4,736,828.8,820.5,747.7,908.9
		c-95.2,103.8-172,219-237.8,342.8c-116.7,219.6-180.5,453.9-194.4,701.4c-15.9,283.9,33.6,556.2,152.2,815.3
		c153.2,334.6,388.5,594.8,706.1,780.5c312.3,182.2,651.3,251.2,1011.3,227.4c207.5-13.7,404.3-67.4,590.6-155.9
		c98.7-46.9,193.2-102.2,282.4-165.4c250-177.6,439.1-408.1,566.8-687.5C3730.4,2536.7,3781.5,2293.9,3780.1,1991.2z"/>
	<path d="M3780.1,1987.2c1.4,302.7-49.7,545.5-155.2,776.3c-127.7,279.4-316.8,509.9-566.8,687.5
		c-89.2,63.2-183.6,118.6-282.4,165.4c-186.3,88.5-383.1,142.2-590.6,155.9c-359.9,23.8-698.9-45.2-1011.3-227.4
		c-317.2-185-552.6-445.2-706.1-780.5c-118.6-259.1-168.1-531.4-152.2-815.3c13.9-247.5,77.6-481.8,194.4-701.3
		c65.8-123.8,142.6-239,237.8-342.8c81.1-88.4,164.7-173,261.5-244.6c106.2-78.6,218-147,339-200c195-85.5,398.3-136.5,611.6-144.4
		c24.9-0.9,50,5.7,75.1,5.8c34.6,0.2,69.4-4.7,103.9-3.6c262.3,8.9,507.9,78.7,738.3,203.8c221.5,120.2,407.7,281,558.8,482.4
		c163.3,216.8,270.9,458.9,315.4,727C3768,1831.8,3774.3,1934.1,3780.1,1987.2z M1458.5,2532.3c9.2,7,19.1,12.9,27.1,20.8
		c61.5,60,123.1,119.9,183.8,180.6c45.1,45,44.6,45.5,90.9,0.2c21.5-21,51.6-14.2,66.5,12.5c8.2,14.6,21,26.8,33,39 M827.1,2287.9
		c-16.2-42-50.3-45.1-87.7-41c-7.9,1-15.8,2.6-23.5,4.8c-15.3,4.1-25.2,0.1-24.6-17.1c1.6-41.6-11.3-74.6-52.2-91.9
		c-0.7-0.3-0.4-3-0.6-4.5c34.1-16.8,34.5-16.4,46.2,17.2c2.1,6.1,7.8,11.4,12.9,15.9c36.4,31.9,75.4,28,117.8,8.2
		c-6.9-8.9-15.1-15.5-18-24c-5-15.2-8.2-31-9.5-47c-0.9-11,7.3-29.7,3.4-32.1c-14.8-9.1-32.8-17.8-49.5-17.6
		c-20.4,0.3-40.6,9.8-62.4,15.8c4.5-138.2-91.8-136.6-187.9-136.5c37.4-28.1,112.9-35.7,157.8-12.4c31.5,16.4,63.4,31.9,94.6,48.9
		c18.2,9.9,35.3,21.6,53.8,33c-2.2,2.8-0.2,1.3-0.3,0.2c-0.4-3.4-1-7.2-2.7-10.1c-15-25.6-11.8-50.7,0.4-76.4
		c6.8-14.4,13.4-29.3,17.2-44.6c7-28.3-28.2-69.3-52.5-67.4l-39,87.1c-28.5-14.8-52.9-32.3-80.1-40.4
		c-32.9-9.8-67.9-13.4-102.3-16.4c-53.4-4.5-87.8,23.3-85.1,68.7c0.9,14.3,11.2,28.1,17.5,42.7c-39,33.6-39.6,63.4-0.2,114.1
		c-2,1.6-3.9,4.3-6,4.5c-19.2,2.1-29,12-27.4,31.7c1.3,16.3-2,33.7,25.1,33.9c15.5,0.1,17.3,20.2,7.5,25.7
		c-26.1,14.6-14.6,39.5-19.4,59.2c-1.4,5.7,12.9,18.6,22.3,22.5c6.9,2.9,24.4-1.8,25.6-6.1c6.8-26,25.9-26.3,46.1-25.6
		c22.4,0.7,36.9,13,49.2,34.5c-40.2,10.5-77.9,19.4-115,30.8c-9.2,2.8-20.3,12.3-22.8,21c-4.1,13.9-4.6,30.9,13.8,38.5
		c11.7,4.9,23.7,9.3,37.2,14.5c-5.3,4.3-10.3,7.8-14.5,12c-16.1,16-36.8,37-24.8,57.1c14.5,24.1,40.9,41.5,63.8,59.9
		c7.7,6.1,20.1,6.3,30.4,9.2c-8.3,9.5-16.1,19.5-25.1,28.3c-2.8,2.7-8.6,2.3-9.3,2.4l51.6,77.7c-0.1-46.4-0.1-46.4,17.1-50.6
		c43-10.5,60-3.3,79.9,36c-13.6,7.3-27.3,14.9-41.3,22c-23.7,12.1-48.2,22.7-71.1,36.1c-10.9,6.4-19.6,17.4-4.4,29.9
		c24,19.6,48.8,26.6,78.2,10.3c18.6-10.3,38.8-17.6,58.5-25.7c10.9-4.5,22.7-13.7,31.9,3.4c9.4,17.4-1.2,26.2-13.7,34.7
		c-21.9,15-43.2,31.2-65.8,45.1c-18,11.1-14.1,24.9-7.2,38.7s17.8,22.4,34.7,13.7c48.1-24.6,96.5-48.6,144-74.4
		c5.3-2.9,9.2-16.5,7.3-23.3c-5.3-19.2-14-37.5-22.2-58.2c9.5-0.9,16.4-1.6,23.3-2.1c49.7-3.7,64.7-25.7,48.3-71
		c-9.4-26-33.8-38.5-59.7-28.6c-17,6.5-33,15.7-47.3,22.7l-64-104.4c39.4-43.5-3.1-89.7,1.7-127.5 M1463.9,1523.2
		c14.8-1.3,39.1-6.4,52.2-4.1c53.7,9.4,106.2,0.6,158.9-7.4c7-1.1,15.1-5.3,19.7-10.7c42-49.2,82.8-99.6,125.5-148.2
		c9.9-11.3,35.9-15.6,37.4-25.7c4.8-31.5,34.1-36.8,49.3-56.2c7.6-9.7,17-17.9,25.5-26.8c23.6-24.9,46.6-50.4,71-74.6
		c11.3-11.2,24.1-12.5,37.3,0.4c46.9,45.8,94.6,90.7,141.6,136.3c6.1,5.9,8.6,15.4,14.8,21.1c13.8,12.8,19.6,5.9,33.9,18
		c17.5,14.8,49.8,47.4,66.4,63.3c29,27.8,61.5,47.9,75.3,89.7c1.8,5.6,11.1,11.8,17.4,12.4c35.4,3.3,70.9,5.6,106.4,6.5
		c6.4,0.2,23,1,25.1-4.9c13.9-38.2,24.8-83.6-18.9-106.7c-6-3.2-17.1-11.1-22-16.3c-35.1-37.7-80.8-87-115.9-124.6
		c-15.7-16.8-30.9-12.9-51.6,4.1c-10.9,9-20.7,20.9-32.8,28.3c-19,11.6-49.9,5.8-58.7-6.3c-15.9-21.9-15.6-40.5,8-60.7
		c9.5-8.1,24.3-13.1,32.8-22c3.9-4.1,17-18.7,14.8-20.9c-14.6-15-36.1-41.6-53.1-53.6c-12.8-9-38.8-1-50-11.2
		c-19.3-17.5-33.3-42.1-36.8-64.1c-4.3-27.4-47.6-58.7-60.5-79.7c-26.6-43.1-53.4-34.6-91.1-1.3c-5.9,5.2-36.8,47.9-40.6,55.4
		c6.8,3.1,45.7-4.2,52.8-2.3c27.1,7.2,44.1-5,71.3,1.7c-0.2,2.5,4.3-0.1,4,2.4c-11.9,1.3-24.4-0.8-36.3,0.7c-27.8,3.4-55-1.7-82,5.2
		c-20.1,5.1-33.9,13.8-47.5,28.3c-9.8,10.4-22.9,36.7-38.3,43.7c-21.4,9.7-49.9,20.7-37.5,46c-51.1,15.8-33.9,27.7-1.5,69.1
		c10.1,12.9,20.6,31.8,18.9,46.5c-4.7,38.7-42.5,43.7-74,20.8c-12.9-9.3-32.2-34.7-45.2-32.2c-20.8,4-47.1,27.4-63.6,41.4
		c-55.4,46.8-109.5,98.3-163.9,146.3c-9.7,8.6-15.6,20.9-24.8,37.8L1463.9,1523.2z M2663.5,941.4c32.8,3.8,34.3,17.8,56.1,39
		c32.5,31.4,79.1,25,104.8-14.1c-19.5-13.6-40.9-25.2-58.2-41.2c-48-44.4-51.5-46-109.6-20.8c-4.9,2.1-9.3,5.1-13.9,7.8
		c-20.5-3.4-15.9,10.2-34.8,4.8L2663.5,941.4z M2249.7,3448.4c-3.6,44.6-5.6,86.5,35.3,112.1c15.8,9.9,62.9-3,73.4-16.1
		c-42.5-2.6-60.9-25.7-52.3-65.5c3.4-15.8,31.6-43,45-40.9c21.8,3.4,10.2,22.8,14.5,34.6c2.4,6.7,4.7,13.4,7.3,20
		c9.6,23.7,25.5,28.9,44.3,11.1c7.3-7,8.3-21.9,9.7-33.5c1.6-13.2,0.4-26.7,0.4-40c18,25,30.4,51.3,46.4,75.3
		c6.4,9.6,20.7,13.9,31.4,20.7c2-8.5,5-16.9,5.8-25.5c1.9-19.2,2.7-38.5,4.5-67.2c12.9,17.2,19.8,30.5,30.4,39.3
		c11.7,9.8,29.9,24.4,39.7,21c16.3-5.7,22.8-25.6,15.5-45.4c-2.4-6.6-2.8-14-5.1-20.7c-7.1-20.8-15.9-41.2-21.9-62.3
		c-4.5-15.9,3.5-25.3,20-19.9c17.3,5.6,35.3,11.7,50,22c18.7,13.1,31.5,4.1,45.6-5.7c15-10.4,12.1-22.4,5.7-37.2
		c-12.7-29.1-38.4-36.6-64.8-45.9c-23.5-8.2-36.7-2.1-46.1,20.1c-4.6,10.9-13.2,20.2-18.4,27.9l-28.1-31.5
		c-8.2,10.8-17.5,21-24.4,32.5c-6.5,10.9-10.5,23.3-18.1,40.7l-27.9-49.2L2419,3388c-3.3-41.6-27.2-41.9-54.1-37.3
		c-6.1,1-12.5,0-18.5,1.1c-32.5,5.6-70.9-5.8-91.4,34.2c-4.7,9.1-16.4,14.7-25.2,22.2c-23.5-38.7-23.5-38.7-54.1-8.2
		c-16.3,16.3-63.1,25.8-79.6,8.9c-26.8-27.4-48.2-13-70.6,0.9c-14.8,9.2-28,9-38.1-3c-20-23.6-38.7-16.6-60.3-2.8
		c-20.6,13.2-41.3,21.9-62.8-2.8c-8.6-9.9-28.5-20-38.8-16.6c-23.1,7.6-43.3,23.7-64.7,36.3c0.7,2.5,1.4,5,2.1,7.5
		c26,8.4,41.5,20.5,44.1,51.9c3,36-37.6,25.9-43.7,45.6l210.7,64.7c11.1-13,18.8-21.6,26-30.6c7.5-9.3,14.5-18.9,18.9-24.5
		c12.5,12.6,23.4,23.3,33.9,34.4c2.9,3.2,5.1,6.9,6.4,11c13,41.2,45.4,50.5,80.5,24.4c11.2-8.2,24-14.1,37.6-17.1
		c26.3-5.8,53.2-8.8,82.6-13.3C2232.1,3545.8,2225.3,3461.5,2249.7,3448.4L2249.7,3448.4z M3425.1,2112.3
		c-25.7,0.6-25.9,19.2-26.4,38.9c-0.6,16-2.5,31.9-5.7,47.5c-7.5,38.6-9.6,75.5,24.2,104.6c3.6,3.1,4.8,8.9,9,17.2l-64.9-11.6
		c20.6,36.4,20.2,78.1,69.1,95.8c-17.9,2.5-29,3.2-39.7,5.7c-12,2.8-24.2,6-35.2,11.4c-6.1,3-13.3,10.5-13.8,16.5
		c-1.9,22.6,36.9,52,59.9,50.4c21.6-1.5,43.6,0.9,65.2,3.8c3.8,0.5,10.3,14.5,8.2,18.6c-23.4,46.9-23.8,46.7-73.7,26.9
		c-5.8-2.3-11.6-4.6-17.2-7.1c-21.7-9.8-73-0.5-88.3,16.4c-2.8,3.1-5.8,8-5.4,11.6c4.5,33.6,9.7,67.1,15.2,104.1
		c19.7-13.4,32.6-24.1,47.2-31.8c35.9-19,52-10.6,57.4,28.7c3.3,24.1,25.4,41.1,45.2,28.2c23.7-15.5,41.8-39.9,60.9-61.7
		c2.7-3-3.2-12.9-3.8-19.7c-1-10.1-4.2-21.8-0.5-30.2c9.1-20.7,21.5-40.1,32.9-59.8c17.9-31.3,17.9-34.5-10.2-56.9
		c-18.5-14.8-38.4-27.9-57.6-41.7l2.2-4.1l118.4,36.5c-3.4-23.1-4.2-37.3-7.7-50.8c-6.4-24.2-17-42.5-47.1-46.4
		c-30.5-4-59.9-15.9-89.9-23.6c-15.3-3.9-19.6-12.4-16.4-27.4c6.8-31.2,13.4-62.5,18.7-94c3.3-19.9,12.3-20.7,24-13.7
		c2.2,13.6,0.8,26.5,6.4,34.4c10.1,14.1,23.6,26.6,37.7,36.8c3.9,2.8,20.2-2.5,22.4-7.6c12-29.1,32-41.3,62.9-36.3
		c16.7,2.6,21.7-6.5,22.7-21.4c2.1-31.6-4.4-59.3-36.7-79.2c37.8-18.2,35.5-51.4,35.9-81.6c0.2-13.4-6.4-31.3-16.3-39.6
		c-28.5-24.1-61.9-36.9-101.1-30.5c-14.8,2.4-30.6-1.4-45.9-2.3c-10.1,3.7-19,14.6-28.3,25c-8.1,9-16.7,17.6-25.1,26.3l-6.4-5.9
		c8.2-19.7,18.6-38.8,23.9-59.2c7-26.6-5.1-39.9-34.3-41.9c-0.8,14.9-1.7,29.9-2.6,46.1l-85.1-63.9l-9.3,1.2
		c19.1,49.4-5.2,90.7-16.8,134.5c-1.5,5.5,2.1,15.7,6.7,19c26.4,19.1,53.8,36.8,85.9,58.2c-6.3-42.9-22.3-78.4,6.8-105.5
		L3425.1,2112.3z M1068.1,3414.4c14.2,11.8,24.2,27.1,34.6,27.4c41.9,1.4,69.8,27.3,100.8,49c8,5.5,20.2,9.9,29.2,8.1
		c24.4-4.8,53.7-58.1,47.1-82.9c-3.7-13.6-4.5-23.9,12.6-28.9c5.8-1.7,10.3-9.3,14.7-14.7c19.2-24.1,38.1-48.4,57.2-72.6
		c19.8,8.2,12.2,15.9,0.6,25.9c-28.3,24.4-29.6,32-14.9,66.1c6.2,14.3,6.4,25.1-13.5,24.1c-16.3-0.8-16.6,7.8-14.4,20.6
		c5.1,30.3,25.1,51.8,53,55.4c34.3,4.5,64.6-11.2,77.1-39.1c12-26.8,24.8-53.1,36.7-79.9c6.8-15.5,17.5-19.4,27.9-6.3
		c15,18.8,32,38.3,39.2,60.4c12.2,37.9-19.5,68.5-59,61.7c-6.1-1-12.2-2.4-20.9-4.1c19.4,33.9,102.7,44.6,123.8,18.5
		c7.1-8.7,13.1-19.6,15.5-30.5c3.6-15.9,3.5-32.6,4.9-49l6-4.1c9.7,13.6,20.6,26.5,28.8,41c6,10.6,5.4,26,13,34.4
		c8.4,9.2,22.6,16.1,35,17.4c4.6,0.5,15.2-17.7,15.8-27.7c0.9-16.1-4.4-32.6-7.1-49.3c34.9-6.3,61.8-25.2,83-56.4
		c-56.2-16.5-109-35-163.2-46.9c-51.8-11.3-100.4-27.9-146.9-53.3c-23.9-13-50.7-22-79.3-10.4c-7.5,3-16.3,2.9-21.3,3.7
		c-3.1-18.3-5.5-32.9-8.1-47.9c37.8-2.9,79.9-2.4,114.2-42.4c-14.1-2-23-4.4-31.8-4.3c-50.2,1-60.9-8.1-63.3-56.7
		c-17.8,6.3-35.2,12.3-52.5,18.6c-6.7,2.4-13.2,5.3-19.5,8.7c-50.1,27-50.1,27-94.6-8.7c-28.9-23.2-85-24.7-116.5-2.2
		c27.1,23.3,50.2,52.6,33.5,87.7c-16.1,33.7-45.6,56.7-90.2,32.8c29,46.6,66,6.1,96.4,14.4c-0.4,8.6-0.7,16.3-1.1,24.8
		c13-6.5,23.8-9.2,30.5-16c7.7-7.9,12.4-19.1,17.2-29.4c5.4-11.7,9.5-24,14.2-36.1c11.1,7,22.4,13.9,33.4,21.1
		c14.9,9.8,29.6,19.8,44.4,29.7l-1.1,10.8c-31.2-21.2-59.7-29.6-74.9,3c13.6,20.4,24.5,37.7,36.3,54.4c4.9,6.9,11.7,12.4,17.7,18.5
		c5.1,5.2,10.3,10.3,15.5,15.5c-6.5,3.3-13,9.4-19.4,9.5c-20.3,0.1-32.8,10-42.5,26.6c-9.6,16.4-20.7,32-31.9,49.2
		C1137.5,3374,1128.3,3388.5,1068.1,3414.4z M3587.4,1783.2c7.6-30.6,13.8-57.2,20.8-83.6c8.4-31.6-28.4-72.9-60.7-66.9
		c-39.9,7.4-79.7,15.3-119.2,24.1c-14.4,3.2-20.1-1-20.8-14.9c-1.1-21.8,10-32.2,31.7-29.4c79.5,10.3,121.2-23.2,120.2-98.3
		c-0.1-11.2-5.3-24.2-12.4-33.1c-13.8-17.2-30.8-31.8-45.9-48c-16.6-17.8-35.5-21.6-58.1-13c-34.2,13.1-68.7,25.5-104,38.4
		c-13.3-24.6-26.3-50.8-41.4-75.7c-12.1-19.9-14.5-34.7,10.2-46.5c15.1-7.2,28.4-18.2,42.9-26.7c13.1-7.7,26.7-16.5,37.3,4.5
		c12.6,25,10.1,35.7-12.8,47.8c-9.4,5-18.6,10.5-34.5,19.5c25.1,8.8,42.6,14.8,59.9,21.1c21.8,7.9,33.3-4.1,42.4-21.3
		c13.2-24.8,22.8-50.3,11.7-78.3c-1.3-3.3-9.4-3.9-14.2-6c-17.3-7.5-32.6-14.9-37.5-37.2c-4.4-20.1-27.2-26-47.9-16.3
		c-44.7,20.8-90.1,40.5-134,63c-10.3,5.3-24.4,22.5-22.2,29.7c13.3,42.5,31.8,82.8,76.6,102.7c17.2,7.6,34.1,16,54.8,25.8
		l-57.9,26.3c0.1,2.6,0.3,5.1,0.4,7.7l78.7,33.1c-5.6,11.8-9.9,22.3-15.4,32.2c-17.6,31.6-13.6,45.5,17.4,62.3
		c15.2,8.2,29.7,17.7,49.2,29.4l-52.8,16.1c20.5,34.8,55.1,53,88.5,46.6c28.8-5.5,57.1-13.1,85.7-19.2c11.9-2.5,24.2-3.4,36.3-4.9
		c0.8,3.8,1.7,7.5,2.5,11.3c-24.5,7.4-48.6,16.3-73.5,21.7c-29.4,6.4-59.4,9.6-89.1,14.5c-13.4,2.2-22.5,7.1-20.9,24.3
		c2.8,29,1.9,58.3,4.7,87.2c4.6,47.7,26.9,62.3,71.2,46.7c2.6,7.3,6.5,14.5,7.5,22.1c2.6,19.7,16.5,27.6,32.9,29.6
		c54.3,6.7,96.1-22.1,137.3-51.3c4-2.8,5-11.1,5.8-17c4.3-34.8-29.4-74.3-75.8-86.8c-1.1,10.6-4.3,21.1-2.9,30.9
		c3.1,22.4-9.3,27.8-27.4,29.9c-26,3-45.4-7.9-58.8-28.8c-8.8-13.6-10.7-27.2,11.8-30.5C3520.9,1793.4,3555.9,1788,3587.4,1783.2z
		 M3005,3120.4c45.7,16.3,87.4,31.8,129.7,45.5c7.1,2.3,23.5-2.4,24.2-6.1c3.6-18.5,4.9-37.3,3.9-56.1c-0.1-3.2-14.7-4.9-21.7-8.8
		c-8.5-4.8-19.8-9.6-23-17.3c-4.3-10.5-2.1-23.6-2.8-38.4l-49.4-4.6c13.9-17.5,24.2-30.2,34.3-43.1c14.3-18.4,28.2-18.3,46.9-3.9
		c28.8,22,59.9,40.9,90,61.1c20.6,13.9,37.7,7,43.9-17.1c4.9-19.1-6.4-28.8-19-40.1c-28.2-25.4-55.4-51.9-81.7-79.2
		c-4.1-4.2-4.6-17.5-1.1-22.4c16.8-22.9,34.8-44.9,53.9-66c3.8-4.2,15.4-6.3,20.2-3.6c16.1,9.1,32.3,19.3,45.6,32
		c25.1,24,24.6,48.4,1.5,75c-3.3,3.8-6.4,7.7-9.9,11.9c27.3-6,53.6-10.6,79-18.4c6.6-2,15.2-15.6,13.8-21.9
		c-5.1-23.8-9.2-50-22.4-69.3c-20-29.2-47.3-53.4-75-83.7c25.4,10.7,49.3,17.8,70,30.2c21.4,12.8,39.7,30.6,64,49.9
		c0-26.1,0.6-44.6-0.3-63.1c-0.3-6.6-2.7-15.7-7.4-19c-22.3-15.4-45.9-29-68.6-43.8c-10.4-6.7-22.4-12.7-29.5-22.1
		c-21.9-29.3-59.5-30.1-79.5-0.2c-10.7,16.1-21.4,32.3-32,48.6c-29.3,44.9-59.6,89.4-44.7,147.7c1.1,4.3-0.8,9.3-1.6,17.3
		c-9.9-7.6-16.2-14.5-23.9-17.8c-6.2-2.7-17.7-4.4-20.9-0.9c-23.6,25-56.1,43.7-53.9,86.5c1.5,30.7-10.4,40.1-41.6,43.9
		c-29.4,3.5-41.9,24.4-31.7,52.6c3.1,8.4,6.3,16.8,10.8,29c-7.8-2.5-10.6-2.7-12.5-4.1c-40.5-30.9-40.5-30.9-81.6-1.8
		c-4.4,3.1-8.9,5.9-13.4,8.8c-31.4,20.4-63.5,40-67,83.4c-0.7,8.9-6.5,17.4-10.7,28l-36.3-29.6c-7.7,30.2-26.6,61.4-18,79.7
		c16.5,35.2,39.7,72.2,81.7,86.1c6.7,2.2,18.7-2.5,23.9-8.1c4.4-4.8,5.4-16.6,2.8-23.2c-8.5-21.3-17.9-42.6-29.7-62.3
		s-3.4-29.4,12.7-38.1c14-7.6,30.1-13.1,41.6-23.6c26.8-24.6,51.6-25.6,77.2,0c6.7,6.7,13.6,13.7,18.2,21.8
		c5.5,9.6,14.4,22.9,11.4,30.4c-4.1,10.3-18.4,23.3-27.6,22.8c-9.4-0.5-21.1-14.7-26-25.5c-7.3-16.2-9.4-34.7-15.5-59.7
		c-10.4,24.8-18.9,42-24.8,60.1c-6.6,20.5-6.3,40.1,14.4,54.5c27.6,19.2,54.5,23.2,75.6,6c19-15.5,35.2-34.5,52.3-52.2
		c21.6-22.3,19.2-34.9-1.4-58.5C3027.1,3162.2,3017.1,3140.1,3005,3120.4z M1324,854.4c25.1,27.1,49.5,32.1,77.5,16.3
		c16.9-9.5,35.2-16.8,53-24.8c32.2-14.6,59.4-31.9,53.4-74.6c-1.7-11.9,4.8-25,3.2-36.9c-2.3-17.6-4.7-37.3-14-51.4
		c-13-19.6-31.1-36.6-49.6-51.5c-33-26.6-53.5-18.9-64.9,14.6c5.3,17.6,13.8,30.4,10.5,38.6c-3.8,9.6-17.3,20.2-27.4,21.1
		c-8.6,0.8-18.6-11.3-27.5-18.3c-7.8-6.2-18.3-20.4-21.8-18.8c-16,7.5-33,17.1-43.5,30.7c-5.3,6.8,0,24.9,4.9,35.8
		c8.6,19.2,21.4,36.6,31.1,55.4c14.4,27.8,7.8,36.5-27,35c-1.7-7.3-2.7-15.2-5.3-22.6c-10.1-29.4-19.4-60.1-49.1-76.4
		c-13.2-7.3-29.6-17.7-42.8,0.2c-15.3,20.8-12.1,43.1,6.1,56c31.3,22.1,31,76.4,7,91.9c-20.1-16.1-39.6-30-56.9-46.3
		c-7.9-7.5-11-19.9-17.1-29.7c-5.7-9.2-11.1-19.7-19.4-25.6c-2.6-1.8-15.5,8.2-21.7,14.7c-5.2,5.6-9.8,13.7-10.6,21.1
		c-3.7,33.1-19.8,48.2-54.5,46.2c-19.2-1.1-23.8,16.3-23.1,32.5c0.5,14.4,5.5,24.2,23.7,25.8c11.8,1,25.5,8.2,33.8,17
		c19.4,20.6,35.5,44.2,53.9,65.8c11.1,13,23.9,24.3,38.7,39.2c12-43.2,15.3-78.3-18.3-107.7c-10.4-9.1-18.2-21.9-25.2-34.2
		c-3.8-6.8-3.4-16-4.9-24.1l6.8-1.8c4.6,6.2,9.5,12.2,13.9,18.6c18.6,26.9,36.4,54.5,55.9,80.8c14.4,19.4,32,22.5,52.8,7.2
		c15-11,31.4-20.3,47.9-28.7c29.2-14.9,54.2-31.7,46.3-70.7C1319,870.6,1321.3,866.2,1324,854.4L1324,854.4z M752.8,1306.1
		c-1.4,1.8,0.3-1.5,3-3.5c4.8-3.7,10.2-6.6,15.3-9.8c-0.4,5.9-2.2,12.1-1,17.7c4.2,19.8,6.5,40.9,15.8,58.2c3,5.7,25.9,4.5,38,0.9
		c51.6-15.2,53.8-21.8,32.5-69.3c-6.7-14.9-13.4-22.8-32.2-17.4c-7.7,2.2-21.8-4.3-27.5-11.3c-28.6-34.9-115.1-38-143.9-3.2
		c-5,6-8.3,13.8-10.6,21.4c-8.3,28-24.9,52.1-23.7,85c0.8,22,4.8,31.8,22,41.2c8,4.4,17.6,11.5,19.9,19.4
		c7.6,25.8,18.3,47.7,50,56.3c-16.7,17.4-32.6,24-52.6,20.6c-44.2-7.4-47.5-43.3-50.6-82.3c-17.9,10.8-30.4,22.8-44.8,25.8
		c-18.4,3.8-19.2,19.4-19.2,28.1c0.1,60.1,36.7,97.5,91.2,98.9c13,0.3,26.1,0,40.1,0c0.6,19.8-2.4,26.4-23,20.1
		c-55-16.9-110.8-31.4-166.6-45.2c-9.3-2.3-25.1,0.7-30.3,7.2c-26.1,32.6-5.3,84.1,35.7,90.2c29.7,4.4,59.9,9.8,89.7,8.9
		c40.9-1.3,79.2,1.4,115,24.2c6.6,4.2,28.2-0.6,30.4-6.1c17.2-44.5,34.5-89.5,45.5-135.8c8-33.8-24.4-65.2-61.5-62.9
		c1.1-9.6-1-22.7,4-26.6c5.4-4.2,17.9-1.2,26.5,1.3c15.3,4.5,29.6,12.8,45,15.6c5.9,1.1,20.2-11.3,19.7-12.5
		c-10.7-23.4-22.2-46.7-35.5-68.7c-6.4-10.6-19.2-17.3-25.1-28c-9.3-16.8-16.7-27.9-38.9-16.8c-7.6,3.8-20.7-3.6-31.3-5.9
		c5.1-10.9,8-28.9,15.7-31.3C707,1305,726.9,1307.3,752.8,1306.1L752.8,1306.1z M2086.1,649.3c-5.4-8.6-9.7-16.2-14.6-23.4
		c-28.2-41.4-8-70.4,31.9-88.4c19.5-8.8,29.4-1.4,27.1,20.2c-1.9,17.5-9.3,34.4-11.4,51.9c-2.5,20.9-3.7,42.4-1.9,63.3
		c1.2,13.8,9.4,22.6,26.1,12c32.6-20.6,54.7-45.3,51.6-87.9c-2.7-37.5,9.3-91.8,9.3-132.5c-9.6,0.6-13.9-0.1-21.4,0.2
		c-10.7,0.5-36.1-0.6-46.7,0c-9.5,0.6-17.4,21.2-27,21.5c-12.5,0.3-26-4.5-37.4-8.2c-37.1-14.7-68.8-1.1-77.7,31.6l27.2,16.9
		l-50.3,91.2c-18.9,2.7-34.7-3.7-37.9-28.7c-3.3-25.5-5.9-51.1-9.6-76.5c-1.9-13.2-1.4-37.7-21.7-34.4
		c-30.1,4.8-44.6,25.7-42.9,45.6c2.3,26.6,3.6,53.4,5.3,80l-9.1,0.8c-2.9-28.8-3.9-57.9-9.3-86.1c-2.8-14.2,7.3-43.3-2.9-46.2
		c-15.7-4.5-62-12.6-69.7-2.3c-15.6,21.1-53.1,18.5-73.5,25.3c-27,9-41.8,31.5-60,63l22.2-4.2c-4,14.4-6.7,26.4-10.6,38.1
		c-14.6,44.6,0.3,82.2,28.4,115.9c23.1,27.6,39.7,26.1,58.9-3.2c3.9-5.9,7.5-12,11.8-17.7c16.8-22.4,13.6-39-12.2-52.5
		c-21.6-11.3-30.9-33.3-22.2-54.3c6.6-16,23.5-28.8,38.3-39.9c12.8-9.6,22.1-0.2,24.7,13c7.9,40,16,80.1,21.8,120.4
		c5.8,40.5,15,45.5,47.9,21.7c2.9-2,5.6-4.4,8.1-6.9c14.5-15.7,29.6-17.6,45.9-2.7c3.9,3.5,9,5.7,13.2,9c12.8,10,22.4,12.3,30.7-6.3
		c6.9-15.5,17.9-29.1,27.3-44c16.7,18.8,31.3,35.3,46,51.8c10.8,12.2,21.4,15.4,32.4-0.2C2062.9,680.3,2074.7,664.8,2086.1,649.3z
		 M2299.8,1505.6l3.3-7.7c-16.4-17-31.7-35.1-49.3-50.6c-31.6-27.7-54.6-66.3-99-78.1c-3.9-1-6.7-7.2-9.5-11.2
		c-15.5-22.2-29.6-45.5-46.5-66.6c-12.1-15.1-30.5-25.5-41.4-41.2c-17.3-25-34.5-20.8-52.5-4.3c-38.2,35-81.9,65.1-106.1,113.4
		c-1.7,3.5-5.9,6.6-9.7,8.1c-61.4,23.8-94.8,78.4-136.3,124c-3,3.3-3,9.2-4.6,14.7c4.8,2,7.9,4.6,11.1,4.6
		c72.8-0.6,145.6-1.3,218.4-2.5c15.2-0.3,17.3-8.7,11.1-21.7c-10.1-21.2-7-42.8,12.9-53.7c12.5-6.8,33.3-7.3,46.6-1.7
		c21,8.9,22.1,30.5,14.9,50.7c-7,19.8,0.8,25,19.7,25.4c56.8,1.3,113.6,4.4,170.4,5.4C2268.6,1512.7,2284.2,1508,2299.8,1505.6
		L2299.8,1505.6z M1883.1,2672.6c27.1,58.5,70.5,98.6,123.6,137.2c0.1,0.5,0.9,7.7,2,17.4c7.1-3.3,12.6-4.3,15.9-7.6
		c28.1-28.3,57-55.9,83.1-85.9c17-19.5,29.6-42.8,47.8-69.6c19.5-1.7,118.7-82.3,139-122.9h-241.7c5.1,52.4-10.6,88.9-40.8,88.6
		c-10.2-0.1-21.7-7.9-30.3-14.9c-27.2-22.2-4.8-48.3,0.5-77.5h-257C1776.8,2590.3,1817.6,2646.6,1883.1,2672.6z M906.8,1819
		c-13.3-7.9-25.5-21-37.3-20.8c-15.5,0.4-31.9,9.6-45.4,18.8c-4.1,2.8-3.4,22.9,1.5,26.7c21.3,16.3,24.6,34.5,16.1,58.6
		c-4,11.4-2.2,22.7,15.6,23.3c53.9,1.9,107.7,5.4,161.6,7.5c29.1,1.1,58.3,0.2,87.5,0.7c38.7,0.7,77.4,3,116.1,2.1
		c14.2-0.3,28.1-7.9,43.1-12.5c-11.6-32.3-19.6-63.2-63.2-59.1l58.8-39.9l-3.3-7.4c-9.4-1-18.8-2.2-28.2-2.9
		c-32.4-2.4-65-0.3-93.3-24c-7.7-6.5-32.2-4.3-40.3,3.3c-17.1,16.1-31.9,14.3-46.9,2.7c-16.7-12.8-30-8.4-46,0.7
		c-6.5,3.7-20.1,4.1-24.9-0.1c-16.8-15-30.7-8.9-45.2,1.9C923.9,1805.2,915.1,1812.5,906.8,1819L906.8,1819z M3211.2,1058.4
		c-1.2-2.9-2.5-5.8-3.7-8.7l-75.8,4.9l-0.9-8.9c20.5-4.1,41-8.7,61.6-12.2c13.3-2.3,33.2,3.3,33.8-16.4c0.5-17-2.3-41-13.4-50.2
		c-25.4-21.1-56.1-36.3-86-51.1c-7.4-3.7-22.2,0.1-29.7,5.6c-24.9,18.5-47.1,40.6-72.4,58.5c-7.6,5.4-22.9,4.5-32.8,1.1
		c-12.9-4.5-23.8-14.4-38-23.5c7-8.9,13.2-17.3,19.9-25.1c25.4-29.7,51.5-58.7,75.9-89.1c3.7-4.6,2.6-20.1-1.2-22.3
		c-19.2-11.4-54.4-3.7-70.4,13.5c-35,37.6-70.4,75-104.2,113.7c-4.4,5.1-4.1,22.5,0.3,25.8c29.1,21.8,55.8,51.8,98.9,39
		c3.6-1.1,8.5,2.5,12.9,3.8c-0.2,2.8-0.4,5.7-0.6,8.5c-17.1,0-34.2-0.8-51.2,0.2c-22.8,1.3-46.1,22.6-46,40.6
		c0,21.9,17,39.8,40.8,43c18.9-38.2,40.8-47.6,91.3-39c0,11.4-1.6,23.1,0.5,34.1c1.4,7.5,7,19.2,12.4,20.1
		c26.6,4.7,53.8,6.5,84.8,9.7c-10.8-29.5,1.4-35.8,23.5-41.9C3166,1085.3,3188.1,1070,3211.2,1058.4z M2614.7,499.9
		c-12.7-19.8-83.8-51.4-104.4-46.2c-3.3,0.8-6.1,4.4-9.3,4.7c-11.6,1.1-23.9,4-34.7,1.3c-12.6-3.1-23.5-14.5-36-16.3s-27.2,1.7-39,7
		c-6,2.7-12.6,19.8-10.7,21.5c9.5,8.6,20.5,15.4,32.4,20.2c10.6,4.3,22.6,5.1,40,8.7c-14.3,10-21.4,17.6-30.1,20.5
		c-28.3,9.6-41.2,29.6-46.9,57.9c-5.8,28.6-23.9,47.1-54.3,49.8c-9,0.8-25.1,0-26.2-3.6c-3.1-10.3-4.4-26,1.4-33
		c10.4-12.4,26.6-20.1,40.5-29.5c9.1-6.2,18.5-12,31.9-20.7c-18.1-10.9-28-23.5-48.1-11.6c-21.1,12.6-45.1,20.3-67.1,31.5
		c-43.2,22-66.5,72.8-45.4,108.2c10.9,18.2,32.2,31.5,51.1,43.3c17.4,10.8,32.9,1.1,47.3-11.9c7.2-6.5,18.8-8.2,28.6-12.2
		c11.5,44,28.7,52.6,72.3,36.8c11.5-4.2,22-11.2,32.6-17.5c16.2-9.7,17.1-18.8,2.4-33.1c-9-8.8-16.7-24.4-16.1-36.5
		c1.9-34.1,2.2-68.4,21.8-100c16.6-26.8,21.2-31.2,49-16.6C2543.9,547.2,2591.8,537.8,2614.7,499.9z M787,2948.4
		c-5.7,5.4-10.3,9.4-14.5,13.8c-0.8,0.8,0.1,3.3,0.3,5c52.1,30.4,58.6,43.5,27.6,67.1l70.1,8.4c39.6-31.7,90.6-62.5,126.1-120.3
		l-69.7-8.6c-7.7-25,23.4-57.3-14.3-75.8c-24.9-12.2-50.4-23-74.7-33.9l35.8-32.3c-34.1-31.1-75.3-33.2-106.4-7.5
		c-31.5,26-63.2,51.9-94.4,78.1c-5.6,4.7-9.7,11.2-14.5,17c30.9,23.3,41.8,24.4,69.5,8.4c29.8-17.1,59.5-34.5,94-54.4
		c3.2,13,8.9,24.1,7,33.6c-1.1,5.2-15,8.2-23.3,11.5c-11.4,4.6-24.2,6.7-34.4,13.1c-22.6,14.3-23.9,36.8-2.2,51.3
		c8.5,5.6,21.7,5.4,32.8,5.7c28.3,0.7,56.7,0.2,89.8,0.2C835.9,2993.5,830,2994.5,787,2948.4z M759.2,1136.2l-9.4,4.4
		c2.7,12.7,5.4,25.4,8.2,38.1c1.4,6.2,6.5,14.6,4.1,18c-9.9,14,0.2,20.1,8.9,25.4c38.6,23.5,77.7,46.2,116.5,69.4
		c13.1,7.8,21.2,5.8,30.4-7.8c25.5-37.3,52.2-73.9,80.2-109.5c28.2-36,27.1-49-11.3-75.6c-12.8,6.1-25.2,13-38.4,18
		c-25.6,9.7-65,0-78.1-19.7c-15.1-22.7-1.1-40,12.5-57.1c1.1-1.4,0.2-4.5,0.2-6.8c-48.8,2-70.9,18.9-71.6,75.4
		c-0.7,56,53,56,92.5,66.7c-14.9,37.4-21,39.7-51.2,20.1c-12.6-8.2-24.4-17.8-37.1-25.7C796.9,1157.9,777.9,1147.2,759.2,1136.2
		L759.2,1136.2z M966.8,3156.9c-5.4-15.9-8.9-24.8-11.5-34c-11.1-39.7-2.6-55.6,37.5-60.2c12.3-1.4,27.4,8.1,38.4,16.4
		c2.8,2.2-3.1,19.9-8.5,28.2c-8.6,13.3-20.7,24.2-30.2,36.9c-7.4,10-21.5,20.6-6.5,34c14.6,12.9,34.5,29,51.5,13.9
		c37.3-33.1,70.4-71,106.1-107.8c-15-16.9-26.1-29.4-37.3-41.8c-11.8-13-21.7-28.9-35.9-38.4c-35-23.4-88.7-20.5-118.5-0.5
		c-51,34.3-69.5,82.1-63.4,141c0.5,4.6,9,11.4,14.2,11.8C922.7,3157.8,942.9,3156.9,966.8,3156.9z M2850.8,736.7
		c-0.4,1.9-0.8,3.8-1.2,5.7c5,3.4,10.2,6.5,14.8,10.2c26,20.8,31.2,59.3,10.4,76.2c-21.1,17.2-67.4,21-91.6,7.6
		c-14.1-7.8-17.9-14.4-6.9-30.9c24.8-37.2,45.7-76.8,68.8-116.5c-41.6-9.7-67.1,0.1-85.8,30.1c-4.2,6.7-8.8,14.5-15.2,18.2
		c-35.4,20.4-46.2,57.2-61.8,90.7c-2.4,5.1,0.7,18.1,4.7,20c18.5,8.8,37.9,16.7,57.8,21.2c11.2,2.6,24-2,35.4-3.3
		c17.4,47.3,17.4,47.3,50.8,41.9c70.9-11.3,121.8-71.5,121.6-143.8c0-19.6-11.9-30.7-29.6-31.2
		C2899.1,732,2874.9,735.2,2850.8,736.7z M3239.8,1212.2c19.4,2.9,35.7,3.2,50.6,8.1c20.1,6.5,29.9-2.4,38.1-18.4
		c16.3-31.6,11.1-64.8,3.1-96.1c-7.9-30.8-65.3-48.7-89.3-31.7c-29.6,21-59.6,41.6-89.9,61.6c-23.6,15.6-42.3,51.6-35,79.9
		c6.8,26.5,33.6,20.7,53.1,25.4c9.8,2.4,19.9,4,36.1,7.1c-17.7-35.9-5.2-60.9,17.5-82.6c8.9-8.6,17.8-18.2,28.6-23.6
		c9.7-4.8,22-4.5,33.2-6.5c-1.3,12.6,1.3,27.8-4.8,37.2C3271.7,1186.7,3256.2,1196.9,3239.8,1212.2L3239.8,1212.2z M527.5,1673.6
		c-21.1,10.8-35.3,17.6-49,25.3c-28.4,15.9-33.7,53.1-8.5,74.6c29.8,25.4,65.4,45.6,104.7,33.7c40.4-12.2,67.5,2.7,94.4,27.7
		c2.4,2.2,5.6,3.4,10.3,6.1c7.6-23.3,15.6-44.7,21.5-66.6c10.9-40.6-1.2-63.7-40.3-81.7c-26.3,21.6-41.9,59.8-86.2,51.7
		C538.2,1737.8,523.2,1715.8,527.5,1673.6z M2654,3379.9l-40.7,52.8c0.7,0.9,3.7,8.5,9.3,11.6c19.8,10.9,40,21.2,60.8,29.8
		c18,7.5,40.5,22.9,48.9,3.8c5.6-12.7,7.3-40.1,17.4-47.5c25.9-19,46.6-44.5,73.8-61.9c6.9-4.4,11.3-12.6,20.5-23.2
		c-55.4,9.5-56.1,6.5-77.6-40.3c-13.7-29.8-35.7-55.9-54-83.6l-9.2,1.8c-4.6,22-12.4,43.9-13.1,66c-1.2,32.9,27.7,50.2,58.7,39
		c4.7-1.7,10.8,0.3,16.2,0.6c-2.7,5.3-4.2,11.9-8.3,15.7c-8.1,7.6-20.9,11.9-25.8,20.9c-10.4,18.9-15.8,40.4-25.6,59.6
		c-3.6,7.1-14.5,15.7-20.6,14.7c-6.4-1,3-24-0.9-31.9C2678.7,3397.6,2660.4,3398,2654,3379.9L2654,3379.9z M906.5,2757.3
		c7.8,7.9,13.8,14,19.9,20c4.7,4.6,12.1,8,13.8,13.4c7.7,24,14.3,48.4,20.4,72.8c10.9,43.9,65.8,70.7,126.7,49.5
		c-16.7-34.6-32.3-69.8-50.2-103.6C1012.9,2764,960.8,2742.6,906.5,2757.3z M1282.8,3049.5c-28.1,6.7-53.9,11.3-78.6,19.3
		c-14.8,4.8-16.3,16.5-6.5,29.8c26.2,35.8,80.3,52.5,121.4,35.9c8.1-3.3,14.8-10,23.6-16.1
		C1316.5,3098.5,1263.4,3109.5,1282.8,3049.5z M2225,434.9c-0.6-3.9-1.2-7.7-1.8-11.6c-32.6-10.2-64.8-22.5-98.1-30
		c-31-7-39.7,5.2-25.6,34.2c4.3,8.9,15.5,18.3,25,20.1c22.4,4.4,45.8,6.6,68.5,5.2C2203.9,452,2214.3,441.1,2225,434.9L2225,434.9z
		 M986.6,1079.7h88.2c-3.1-19.6,0.1-47.4-12.3-61.1c-8.3-9.1-40.8-2.8-58.8,5.1C977.7,1035.1,980.8,1060.3,986.6,1079.7
		L986.6,1079.7z M979.1,997.3l6.8-4.5c-6.3-17.2-10.1-46.9-19.5-48.8c-17.8-3.6-41.6,4.8-57.5,15.8c-16.7,11.6-12.4,32.1-0.6,51.7
		C929.9,994.4,951.5,979.8,979.1,997.3L979.1,997.3z M504.1,1453l-36.6,91C513.8,1501.6,521.6,1483.8,504.1,1453z M1594.2,3608.5
		c25.4,21.4,49.9,21.2,68.8-4L1594.2,3608.5z M1673.9,3567.9c1.4-4.7,2.8-9.5,4.2-14.2l-44.4-12.3c-1.3,4.3-2.6,8.6-3.9,12.9
		L1673.9,3567.9z"/>
	<path class="st3" d="M840.7,2312.6L707.1,2327c-4.8,37.8,37.7,84-1.7,127.5l64,104.4c14.3-6.9,30.2-16.2,47.3-22.7
		c25.8-9.9,50.3,2.6,59.7,28.6c16.4,45.3,1.4,67.3-48.3,71c-6.9,0.5-13.8,1.3-23.3,2.1c8.2,20.7,16.9,39,22.2,58.2
		c1.9,6.8-2,20.4-7.3,23.3c-47.5,25.8-95.9,49.8-144,74.4c-16.9,8.7-27.8,0.2-34.7-13.7s-10.8-27.6,7.2-38.7
		c22.6-13.9,43.8-30.1,65.8-45.1c12.5-8.6,23.1-17.3,13.7-34.7c-9.2-17.1-21-7.9-31.9-3.4c-19.7,8.1-40,15.4-58.5,25.7
		c-29.4,16.3-54.2,9.3-78.2-10.3c-15.3-12.5-6.5-23.5,4.4-29.9c22.9-13.4,47.4-24,71.1-36.1c14-7.1,27.7-14.8,41.3-22
		c-19.8-39.3-36.9-46.4-79.9-36c-17.1,4.2-17.1,4.2-17.1,50.6l-51.6-77.5c0.7-0.2,6.6,0.3,9.3-2.4c9-8.8,16.8-18.8,25.1-28.3
		c-10.3-2.9-22.7-3.1-30.4-9.2c-22.9-18.4-49.3-35.8-63.8-59.9c-12-20.1,8.7-41.1,24.8-57.1c4.2-4.2,9.2-7.6,14.5-12
		c-13.5-5.3-25.4-9.7-37.2-14.5c-18.5-7.6-17.9-24.6-13.8-38.5c2.5-8.7,13.6-18.2,22.8-21c37-11.4,74.8-20.3,115-30.8
		c-12.3-21.6-26.8-33.9-49.2-34.5c-20.1-0.6-39.2-0.4-46.1,25.6c-1.1,4.4-18.7,9-25.6,6.1c-9.4-3.9-23.7-16.8-22.3-22.5
		c4.8-19.7-6.7-44.6,19.4-59.2c9.8-5.5,8-25.6-7.5-25.7c-27.1-0.2-23.8-17.6-25.1-33.9c-1.5-19.7,8.2-29.7,27.4-31.7
		c2.2-0.2,4-2.9,6-4.5c-39.4-50.7-38.8-80.5,0.2-114.1c-6.3-14.7-16.7-28.4-17.5-42.7c-2.7-45.4,31.7-73.2,85.1-68.7
		c34.4,2.9,69.5,6.6,102.3,16.4c27.2,8.1,51.6,25.6,80.1,40.4l39-87.1c24.3-1.8,59.5,39.1,52.5,67.4c-3.8,15.4-10.4,30.3-17.2,44.6
		c-12.2,25.6-15.5,50.8-0.4,76.4c1.7,2.9,2.3,6.7,2.7,10.1c0.1,1.2-1.9,2.6,0.3-0.2c-18.4-11.4-35.6-23.2-53.8-33
		c-31.2-16.9-63.1-32.5-94.6-48.9c-44.9-23.3-120.4-15.7-157.8,12.4c96.2-0.1,192.4-1.7,187.9,136.5c21.8-6,42.1-15.4,62.4-15.8
		c16.7-0.3,34.7,8.5,49.5,17.6c3.8,2.4-4.3,21.2-3.4,32.1c1.3,16,4.5,31.8,9.5,47c2.8,8.5,11.1,15.2,18,24
		c-42.4,19.8-81.4,23.6-117.8-8.2c-5.1-4.5-10.8-9.8-12.9-15.9c-11.7-33.6-12.1-34-46.2-17.2c0.2,1.5-0.2,4.2,0.6,4.5
		c40.9,17.4,53.7,50.3,52.2,91.9c-0.7,17.2,9.3,21.2,24.6,17.1c7.7-2.2,15.6-3.8,23.5-4.8c37.4-4.1,71.5-1,87.7,41
		c1.5,4,7.4,6.4,11.3,9.5 M1950.4,2860.4c16.5,16,32.9,32.1,49.6,48c10.2,9.7,19.4,9.1,29.7-1.4c49.1-50.1,104.5-95.4,145.9-151.1
		c26.3-35.5,65.4-52.1,91-85.7c25.2-33.1,55.1-62.6,82.8-93.8c2.3-2.6,5.4-5.8,5.6-8.9c2.3-36.5,27.9-36,54.7-36.2
		c35.5-0.3,71-2.6,106.5-3.6c24.5-0.7,33.8,11.6,22,33c-8.7,15.9-22.1,29.9-35.2,42.8c-54.3,53.6-109.6,106.3-163.9,160
		c-17.4,17.2-31.9,15.6-47-2.1c-4-4.7-9.5-8-13.9-12.4c-26.8-26.8-54-20.2-76.9,9.7c-21.3,27.8-12,40.7,10.8,59.1
		c44.8,36,41.8,44.7-4.2,79.8c-32.3,24.6-60.3,54.9-89.6,83.4c-30.4,29.6-59.9,60.3-90.3,89.9c-15.3,14.9-28.2,14.2-44.3-3
		c-62.4-66.9-126.3-132.4-190.3-197.8c-13.6-13.9-15.5-24.2,0.4-36.9c11.1-8.9,20.3-19.9,31.1-29.1l22.3-24.5
		c-11.9-12.1-12.2-14.5-20.4-29.1c-15-26.8-45-33.6-66.5-12.5c-46.3,45.3-45.8,44.8-90.9-0.2c-60.8-60.7-122.3-120.7-183.8-180.6
		c-8-7.8-31.4-25.5-40.6-32.4h23.8c53.9,0.1,107.8,3.1,161.6,5c16.8,0.6,26.5,8.4,38.1,22.6c43,52.6,90,102,135.9,152.2
		c4.3,4.5,10,7.3,16.2,8c15.6,1.3,21.4,9.4,21.9,24.2c0.2,4.8,3,10.4,6.4,14.1c33.5,36.5,67.3,72.7,101,109 M548.5,2065.3v1
		c11.5,0,23.7,2.2,34.4-0.8c6.6-1.8,14-10.9,15.6-18c5-21.9-7.5-35.3-26.9-42.3c-21.1-7.6-48.8,1.6-60.5,21.7
		c-5.3,9.1-7.2,21.4-6.3,31.9c0.3,2.9,16.2,5,25.1,6.4C535.9,2066.1,542.2,2065.3,548.5,2065.3L548.5,2065.3z M558,2397.7
		c1.3,2.1,2.6,4.2,3.9,6.3c14.9-4.2,30.3-7.4,44.6-13c7.4-2.9,19.3-12.3,18.4-15.1c-5.3-16.2-10.5-39.6-22.4-44.7
		c-13.4-5.7-34,5.5-56.9,10.6l48.9,36.1L558,2397.7z"/>
	<path class="st3" d="M1454,2356.3c-22.1-60.7-16.9-123.6-3.3-183.5c5.8-25.5,38.6-44.9,61-69l16.3,26.1
		c29.8-14.7,58.8-28.5,87.1-43.6c3.9-2.1,6.3-10.4,6.3-15.9c0-23.9-1.1-47.7-1.9-71.6c-0.1-1.8,0.1-4.4-0.9-5.1
		c-33.8-22.9-5-37.8,9.3-56.3c-37.7-3.8-16.4-37.1-29.7-55.3c-10.6,10.6-21,19.9-30.1,30.2c-16.5,18.8-31.6,16.6-46.1-1.9
		c-8.1-10.4-15.7-21.1-25.2-33.8c-9.4,13.9-13.4,20.8-18.4,26.8c-17.6,21-35.8,21.1-60.4,9.6c-11.6-5.4-31.5-3.5-42.6,3.3
		c-13.1,8.1-22.4,11.7-35.9,4.3c-19.3-10.6-40-19.1-58.4-31.1c-17.6-11.5-21.3-26.7,0.8-38.4c30.6-25.2,90.6-66.9,127.9-82.6
		c7-2.9,2.2,39.6,11.8,45.1c5.4-8.1,3.9-41,9.7-49.6c5.1-7.7-38.8-17.6-48.3-16.7c-6.2,0.6-75.9,21.2-83.7,18
		c-3.5-1.4-19.7-10.9-20.6-14.4c-4.3-15.8,61.6-62,68.6-64.6c15.7-5.7,31.7,30.3,52.1,32.7c17.6,2,26.2-3.8,30.5-6.6
		c18-11.5,34.7-22.7,38-27.5l18,28.9c10.6,17.4,16.5,26.3,27.7,10.5c17.7-24.8,42.8-35.8,73.5-36.1c19.5-0.2,39.1-5.7,58.3-4.3
		c17.8,1.2,35.1,8.4,61.4,15.3c20.9-23.6,50.4-9.6,79.3,9.6c16,10.6,31.2,10.4,46.9-0.6c40.8-28.4,85.8-31.4,132.8-21
		c5.1,1.1,12.9,1.3,14.8,4.5c15.8,26.8,33.4,13.6,51.1,3.3c38.2-22.1,59.5,12.5,88.5,22.8c-9.4,14.9-17.9,26.5-23.5,39.3
		c-1,2.3,9.8,9.7,22,21.2c-4.2-55.6,38.9-62.2,67-89c5.1,14.9,8.6,25.3,13.9,41c12.9-9.8,24.8-16.8,34.2-26.4
		c13.3-13.5,26.2-12.6,40.6-3.5c0.8,0.5,1.5,1,2.2,1.5c30.1,22.3,59.7,50.4,93.7,5.2c1.9-2.5,6.2-3.4,9.6-4.4
		c2.4-0.8,5.2-0.6,12.4-1.2c5.3,37,10.6,74,16.5,115.2c9.4-5.4,16-9,22.4-12.9c22.9-13.9,44.8-20.1,68.4,0.5
		c5.5,4.8,20.1,5.2,27,1.4c20.2-11.4,37.6-11.1,57.3,1.2c7.5,4.7,22.2,6.6,28.7,2.3c25.1-16.6,48.2-12.3,72.9-0.7
		c5.8,2.8,16.5,2.7,21.2-0.9c26.2-20.1,56.2-19.6,86.6-19.4c24.1,0.2,46.6-0.9,67.1-18.7c19.4-16.8,54,3.6,61.9,36.3
		c21.4-5.9,42.9-8.6,57.3,15c1.3,2.2,13.7,0.9,17.7-2.5c17.3-14.8,31.8-33.2,50.4-45.8c8.7-5.9,28.3-6.9,36-1
		c33.6,25.5,32.7,26.7,72.1,19.2c0.8-1.4,2.7-3.3,2.4-4.3c-11.8-33,10.6-50,33.3-62.4c49.2-26.8,78.6-10.2,94.7,37.9
		c2.1,6.3,3.6,17.7,0.4,20.2c-27.1,21.1-11.7,71.6-55.7,81.1c-1,0.2-1.4,14.3,1.7,19.7c2.4,4.3,12.4,3.9,16,8.2
		c23.7,6.1,25.2,30.7,34.1,43.4c-12.2,4.5-31.4,6.8-43.7,7.1c-38.1,0.7-76.5,0.5-114.3-3.9c-10.4-1.2-18.9-18-30.4-29.9
		c-6.6,6.3-17.5,18.4-30.4,28.1c-5.9,4.5-19.4,8.3-22.9,5.1c-20.7-18.7-39.4-39.6-59-59.9c-9.4,12-19.1,31-34.4,41.8
		c-12.9,9.1-32.4,11.4-49.1,12c-51.3,2-102.7,2.8-154,1.8c-13.9-0.3-27.6-8.8-41.8-13.6c-4.6,2.9-12.1,11.5-19.8,11.6
		c-65.3,0.9-130.7,0.4-196.1,0.2c-23.1-0.1-32.6-10.6-32.6-34.7c0-16.3-5.4-33.5-12.2-48.5c-4.4-9.6-15.8-16-24-23.9l-8.5,5.2
		c3.6,12.9,4.6,27.3,11.2,38.3c17.2,28.4-11.7,36.8-21.3,53c-9.3,15.7-21.4,6.3-32-0.3c-20.6-12.8-38.3-17.5-62.9-2.1
		c-34.9,21.8-58.8,13.1-96.1-23.1c-75.5,35-150.8,68.1-215.1-16.8l-78.1,55.1c-3.6-18.9-6.1-31.9-8.6-44.9c-4.4,0.7-6.8,0.3-7.8,1.3
		c-29.7,32.4-29.7,32.4-72.6,11.8c-12.8-6.1-23.7-11.9-38.9-0.5c-35.2,26.4-41,25.3-75.8-2.2c-6.9-5.5-13-12-20.7-19.2l-24.7,29.4
		c51.3,76.1,47.4,114.4-16,167.8l34.6,37.6c47.9-45.4,105.4-22.8,161.6-18.4c36.1,2.8,72.6,2.6,108.8,2c24.6-0.4,44.2,4.4,51.4,35.2
		c11-6.6,20.4-10.9,28.2-17.2c22.6-18.4,45-23.6,69.2-2.8c7.4,6.3,16.7,10.2,24.2,16.4c24.3,19.9,27.2,19.2,39.8-9.5
		c-13.1-15.4-30.4-28.1-35.8-44.6c-4.4-13.5,5.1-31.8,9.5-47.6c2.7-9.2,6.4-18,11.1-26.3c4.2-7.8,8.2-18.4,15.1-21.6
		c17.8-8.1,37.1-12.8,55.9-18.8c4.2,18.5,10.4,36.8,12,55.4c2.1,23.7,0.5,47.8,0.5,76.4c11.5,0.7,24.1,2.2,36.7,2.3
		c42.2,0.4,48.6,6.1,52.8,48.7c0.5,4.9,1.9,9.8,3.4,17.9c35.3-30.9,68-61.5,118.4-61.1c0-18.2,2.2-35.1-0.5-51.3
		c-4.2-24.7,5.4-38.5,27.3-47.4c11.4-4.6,21.8-11.5,35.8-19.1c23.5,42.3,18.6,79.1-22.9,112.2l60,14.4
		c-6.7,10.4-11.9,18.6-20.5,31.9c10.1-7,15.4-10.9,20.8-14.5c40.5-27.4,41-28,78.5,5.1c8.1,7.1,14.6,20.6,14.8,31.2
		c0.5,36.9-0.9,73.8-4.3,110.6c-1.1,12.2-7.6,27.6-16.8,34.5c-19.6,14.5-41.1,26.2-63.9,34.8c-8.1,3.1-22.3-3.8-31-10
		c-10.4-7.4-17.9-18.9-26.7-28.6c-46.2,51.4-92,60.1-138.8,24.9c-8.1-6.1-17.9-20.8-15.6-27.7c6.1-18,16.9-35,41.4-34.8
		c12.8,0.1,25.6-3.6,38.3-5.6c-7.1-12.7-12.5-26.8-21.9-37.6c-9.7-11.1-22.6-19.9-35.2-27.9c-11.6-7.4-24.7-12.6-41.3-20.9
		c1.5,29.2,2.2,55.4,4.2,81.4c2.8,35.8-12.6,63.4-46.2,74.8c-6.6,2.2-21.6-4.1-24.3-10.2c-6.2-14.1-8.5-30.4-10.1-46
		c-2.5-24.6-2.5-49.5-5.2-74c-0.6-5.6-8.4-10.4-12.9-15.5c-3.9,5.8-10.8,11.5-11,17.5c-1,24.8,1.4,49.9-0.5,74.6
		c-0.8,9.6-7.7,22.1-15.7,27.1c-23.9,14.9-48.5,33.5-75.1,38.3c-43.9,7.9-83.4-9.7-114.6-42.9c-1.7-1.8-4.1-3-0.1-0.1
		c-24.6,15.2-45.9,29.4-68.1,41.6c-17.2,9.5-28.2,0.4-30.2-16.8c-4.5-37.5-7.2-75.2-10.4-112.9c-0.5-6.1,2.6-13.2,0.5-18.4
		s-8.5-8.4-13.1-12.5c-3.3,5-9.2,9.7-9.6,14.9c-1.9,24.5-2.1,49.2-3.3,73.8c-1.9,39.1-32.4,55.3-60.4,71.8
		c-15.9,9.4-32.1,3.8-37.9-15.9c-3.6-12.6-4.2-26-5.8-39.1c-1.1-8.9-1.7-17.9-2.5-26.8l-8.6-0.8c-1.6,6-5.2,12.4-4.3,18
		c2.9,18.9-11.9,55.3-30.1,62.6c-22,8.8-36-8.1-50.1-21.3c-2.5-2.3-4.6-4.9-6.8-7.3c-77.6,45.4-77.6,45.4-140.9-3
		c-26.6,14.6-52.8,29-78.9,43.4L1454,2356.3z M1532.6,2283.9c49.2-16.6,68.9-53.2,53.4-90c-2.7-6.3-16.9-10.4-25.9-10.6
		s-26,5-26.3,8.8C1531.6,2221.2,1532.6,2250.7,1532.6,2283.9L1532.6,2283.9z M2558.3,2265.2l15.3-4.2c-6.1-25-10.7-50.5-19.3-74.6
		c-2.5-7.1-17.1-15.3-24.7-14.2c-16.5,2.5-32.1,10.8-48.9,17.1c3.4,9.7,4.6,13.9,6.4,17.8c13.5,29.6,13.8,29.4,39.7,10.8
		c5.9-4.2,13.5-5.9,17.2-7.4C2549.2,2230.4,2553.8,2247.8,2558.3,2265.2L2558.3,2265.2z M2321.8,1768.1l-9.8-3.2
		c-12.4,15.4-27.1,29.4-36.6,46.4c-10.7,19.2,4.7,53,25.6,59.8c5.6,1.8,19.8-3.9,19.9-6.6
		C2322.3,1832.4,2321.8,1800.2,2321.8,1768.1z M1900.8,1853.4c16.7-21.9,9-44.5,5.3-66.7c-5-29.2-14.2-33.1-48.7-15.9
		C1889.1,1789.9,1863.3,1835.2,1900.8,1853.4L1900.8,1853.4z M2104.5,1862.3l10.9-2.6c1.9-20.8,3.7-41.7,5.5-62.5l-9.9-5.5
		c-7.6,9.5-21.4,18.9-21.5,28.5C2089.4,1834.2,2099.1,1848.3,2104.5,1862.3L2104.5,1862.3z M2002.2,1768.5l-9,1.6l2,41.9l46.9-8.1
		l-1.1-8.6L2002.2,1768.5z M1789.3,1832.3v-59.6C1767.7,1794.3,1765.5,1808.4,1789.3,1832.3L1789.3,1832.3z M2480.2,2184.5l8.8-2.6
		c-1.2-9.1-2.5-18.3-3.7-27.4l-33.8,11.6L2480.2,2184.5z"/>
	<path class="st3" d="M2249.7,3452.4c-24.4,13.1-17.6,97.4,10.3,126.5c-29.4,4.6-56.3,7.5-82.6,13.3c-13.6,3.1-26.4,8.9-37.6,17.1
		c-35.1,26.1-67.5,16.8-80.5-24.4c-1.3-4.1-3.5-7.8-6.4-11c-10.5-11.1-21.4-21.8-33.9-34.4c-4.4,5.7-11.4,15.3-18.9,24.5
		c-7.2,8.9-14.9,17.5-26,30.6l-210.7-64.7c6.1-19.8,46.7-9.6,43.7-45.6c-2.6-31.4-18.2-43.6-44.1-51.9c-0.7-2.5-1.4-5-2.1-7.5
		c21.4-12.6,41.7-28.7,64.7-36.3c10.3-3.4,30.1,6.6,38.8,16.6c21.6,24.7,42.2,16,62.8,2.8c21.6-13.8,40.2-20.8,60.3,2.8
		c10.1,11.9,23.3,12.2,38.1,3c22.4-13.9,43.7-28.3,70.6-0.9c16.6,16.9,63.3,7.4,79.6-8.9c30.6-30.5,30.6-30.5,54.1,8.2
		c8.8-7.5,20.5-13,25.2-22.2c20.5-40,58.9-28.7,91.4-34.2c6.1-1,12.5,0,18.5-1.1c26.9-4.6,50.9-4.3,54.1,37.3l48.5-68.8l27.9,49.2
		c7.6-17.4,11.6-29.8,18.1-40.7c6.9-11.6,16.1-21.8,24.4-32.5l28.1,31.5c5.2-7.7,13.8-17,18.4-27.9c9.4-22.2,22.6-28.4,46.1-20.1
		c26.5,9.3,52.2,16.8,64.8,45.9c6.5,14.9,17.8,56.1,2.8,66.5c-14.1,9.8-35.3-10.5-54-23.5c-14.7-10.3-32.7-16.4-50-22
		c-16.6-5.3-24.6,4.1-20,19.9c6,21.1,14.7,41.5,21.9,62.3c2.3,6.7,15,47.1,17.4,53.7c7.3,19.8-12.8,78.1-29.1,83.7
		c-9.8,3.4-26.8-82.6-38.5-92.4c-10.6-8.8-17.4-22.1-30.4-39.3c-1.8,28.7,13,49.7,11.1,68.9c-0.8,8.6-19.4,15.3-21.4,23.8
		c-10.7-6.7-25-11.1-31.4-20.7c-16-24-28.4-50.3-46.4-75.3c0,13.4,1.2,26.9-0.4,40c-1.4,11.6-2.4,26.5-9.7,33.5
		c-18.7,17.9-34.6,12.6-44.3-11.1c-2.7-6.6-4.9-13.3-7.3-20c-4.4-11.9,7.3-31.3-14.5-34.6c-13.5-2.1-41.6,25.1-45,40.9
		c-8.7,39.8,9.8,62.9,52.3,65.5c-10.5,13.2-57.5,26.1-73.4,16.1C2244.1,3538.9,2246,3497,2249.7,3452.4z M1890.1,3436.3
		c-2,15.4-2.8,28.6-5.5,41.4c-9.3,44.7-9.2,44.2,29.6,66c14.9,8.4,20.1,3.1,24.6-10.8C1950.5,3496.1,1932.2,3457.2,1890.1,3436.3
		L1890.1,3436.3z M2167.5,3552.9c-8.3-20.7-14.2-38.1-22.6-54.2c-1.9-3.8-15.4-6.6-18.2-4c-11.6,10.5-25,21.9-30.1,35.7
		c-3.9,10.6-0.6,30.8,7.2,37.1c10.1,8.2,28.3,9.8,42.4,8.3C2153.7,3574.9,2159.9,3561.5,2167.5,3552.9L2167.5,3552.9z"/>
	<path class="st3" d="M3425.1,2116.3l-42.4-111.4c-29.1,27.1-13.1,62.6-6.8,105.5c-32.1-21.5-59.5-39.2-85.9-58.2
		c-4.6-3.3-8.1-13.4-6.7-19c11.6-43.8,35.9-85.1,16.8-134.5l9.3-1.2l85.1,63.9c0.9-16.3,1.8-31.2,2.6-46.1c29.2,2,71.9,15.4,64.9,42
		c-5.4,20.4-46.4,39.4-54.5,59.1l6.4,5.9c8.4-8.8,17-17.3,25.1-26.3c9.4-10.4,18.3-21.3,28.3-25c15.3,1,31.1,4.7,45.9,2.3
		c39.2-6.4,72.6,6.4,101.1,30.5c9.9,8.4,16.5,26.2,16.3,39.6c-0.4,30.2,1.9,63.4-35.9,81.6c32.3,19.9,38.8,47.6,36.7,79.2
		c-1,14.9-6,24.1-22.7,21.4c-30.9-4.9-50.9,7.3-62.9,36.3c-2.1,5.1-18.4,10.4-22.4,7.6c-14.1-10.3-27.6-22.7-37.7-36.8
		c-5.6-7.8-4.1-20.7-6.4-34.4c-11.7-6.9-20.6-6.1-24,13.7c-5.3,31.5-11.9,62.8-18.7,94c-3.3,15,1,23.4,16.4,27.4
		c30.1,7.7,59.5,19.7,89.9,23.6c30.1,3.9,51.7,20.1,58.1,44.3c3.6,13.5,5.8,31,9.2,54.1l-130.9-37.7l-2.2,4.1
		c19.3,13.8,39.1,27,57.6,41.7c28.2,22.4,36.2,27,18.3,58.3c-11.3,19.8-31.8,37.7-40.9,58.4c-3.7,8.4-0.5,20.1,0.5,30.2
		c0.6,6.8,16,20.7,13.4,23.8c-5.3,6-13.5,3.5-18.9,9.2c-14.2,15-26.2,37.3-43.4,48.5c-19.8,12.9-50-4-53.4-28.2
		c-5.4-39.3-21.5-47.8-57.4-28.7c-14.6,7.7-27.5,18.4-47.2,31.8c-5.5-37-10.7-70.5-15.2-104.1c-0.5-3.6,2.6-8.5,5.4-11.6
		c15.4-17,66.6-26.2,88.3-16.4c5.7,2.6,11.5,4.9,17.2,7.1c50,19.9,50.4,20,73.7-26.9c2-4.1-4.5-18.1-8.2-18.6
		c-21.5-2.9-43.6-5.3-65.2-3.8c-23,1.6-61.8-27.9-59.9-50.4c0.5-6,7.8-13.5,13.8-16.5c11-5.4,23.2-8.6,35.2-11.4
		c10.7-2.5,21.8-3.2,39.7-5.7c-48.9-17.7-48.5-59.4-69.1-95.8l64.9,11.6c-4.2-8.3-5.4-14.1-9-17.2c-33.8-29.1-31.7-65.9-24.2-104.6
		c3.2-15.6,5.1-31.5,5.7-47.5C3399.1,2135.5,3399.3,2116.9,3425.1,2116.3z M3595,2130c-11.6-25.3-19.1-46.6-31-65.1
		c-5-7.8-19.9-14.7-29.1-13.3c-38.3,5.5-60.7,31.9-79.9,68.3L3595,2130z"/>
	<path class="st3" d="M1068.1,3418.4c60.2-25.9,69.3-40.4,121.5,39c11.2-17.2,22.3-32.8,31.9-49.2c9.7-16.6,22.2-26.5,42.5-26.6
		c6.5,0,13-6.1,19.4-9.5c-5.2-5.1-10.4-10.3-15.5-15.5c-6-6.1-12.8-11.6-17.7-18.5c-11.8-16.6-22.8-33.9-36.3-54.4
		c15.3-32.6,43.7-24.2,74.9-3l1.1-10.8c-14.8-9.9-29.5-19.9-44.4-29.7c-11-7.2-22.3-14.1-33.4-21.1c-4.7,12.1-8.7,24.4-14.2,36.1
		c-4.8,10.3-9.4,21.5-17.2,29.4c-6.7,6.8-17.5,9.5-30.5,16c0.4-8.5,0.7-16.1,1.1-24.8c-30.3-8.2-67.4,32.3-96.4-14.4
		c44.7,23.9,74.1,0.9,90.2-32.8c16.7-35.1-6.4-64.4-33.5-87.7c31.5-22.5,87.6-21,116.5,2.2c44.4,35.7,44.4,35.6,94.6,8.7
		c6.3-3.3,12.8-6.2,19.5-8.7c17.3-6.4,34.7-12.3,52.5-18.6c2.4,48.6,13.1,57.6,63.3,56.7c8.9-0.2,17.8,2.3,31.8,4.3
		c-34.3,40-76.4,39.4-114.2,42.4c2.5,15,5,29.6,8.1,47.9c5-0.8,13.8-0.6,21.3-3.7c28.6-11.7,55.4-2.7,79.3,10.4
		c46.5,25.4,95.1,42,146.9,53.3c54.2,11.8,106.9,30.4,163.2,46.9c-21.3,31.2-48.1,50.1-83,56.4c2.7,16.7,7.9,33.2,7.1,49.3
		c-0.6,10.1-11.2,28.2-15.8,27.7c-12.4-1.3-26.6-8.1-35-17.4c-7.6-8.4-7-23.8-13-34.4c-8.1-14.5-19-27.4-28.8-41l-6,4.1
		c-1.5,16.4-1.4,33.1-4.9,49c-2.4,10.8-8.4,21.8-15.5,30.5c-21.2,26.1-104.5,15.4-123.8-18.5c8.7,1.7,14.8,3.1,20.9,4.1
		c39.5,6.8,71.2-23.8,59-61.7c-7.1-22.1-24.2-41.7-39.2-60.4c-10.4-13-21.1-9.2-27.9,6.3c-11.8,26.8-24.7,53.2-36.7,79.9
		c-12.5,27.9-42.8,43.5-77.1,39.1c-28-3.6-48-25.2-53-55.4c-2.2-12.7-1.8-21.3,14.4-20.6c19.9,0.9,19.7-9.8,13.5-24.1
		c-14.8-34.1-13.4-41.7,14.9-66.1c11.6-10,19.2-17.7-0.6-25.9c-19.1,24.3-38,48.6-57.2,72.6c-4.4,5.5-8.8,13-14.7,14.7
		c-17,5-16.2,15.3-12.6,28.9c6.7,24.7-22.6,78-47.1,82.9c-9,1.8-21.2-2.6-29.2-8.1c-31.1-21.6-59-47.6-100.8-49
		C1092.3,3445.5,1082.3,3430.2,1068.1,3418.4z"/>
	<path class="st3" d="M3587.4,1787.2c-31.5,4.8-66.6,10.2-101.6,15.3c-22.4,3.3-20.5,16.9-11.8,30.5c13.5,20.8,32.9,31.7,58.8,28.8
		c18.1-2.1,30.6-7.5,27.4-29.9c-1.4-9.8,1.8-20.3,2.9-30.9c46.4,12.6,88.4,50.9,84.1,85.7c-0.7,5.9-10.2,15.4-14.2,18.1
		c-41.2,29.1-83.1,58-137.3,51.3c-16.3-2-30.3-10-32.9-29.6c-1-7.6-4.9-14.8-7.5-22.1c-44.3,15.5-66.6,1-71.2-46.7
		c-2.8-29-1.9-58.3-4.7-87.2c-1.6-17.2,7.4-22.1,20.9-24.3c29.7-4.9,59.7-8.1,89.1-14.5c24.9-5.4,49-14.3,73.5-21.7
		c-0.8-3.8-1.7-7.5-2.5-11.3c-12.1,1.6-24.4,2.4-36.3,4.9c-28.7,6-57,13.7-85.7,19.2c-33.4,6.4-68-11.9-88.5-46.6l52.8-16.1
		c-19.5-11.7-34-21.2-49.2-29.4c-31-16.8-35-30.7-17.4-62.3c5.5-9.9,9.8-20.4,15.4-32.2l-78.7-33.1c-0.1-2.6-0.2-5.1-0.4-7.7
		l57.9-26.3c-20.7-9.8-37.6-18.2-54.8-25.8c-44.8-19.9-63.3-60.3-76.6-102.7c-2.2-7.2,11.9-24.4,22.2-29.7
		c43.9-22.5,89.2-42.1,134-63c20.8-9.7,48.2-6.6,52.6,13.6c7,16.3,20.9,27.6,35.2,36.3c11.2,3.6,19.6-1.3,20.9,2
		c11.1,28-7.7,61.1-20.9,85.9c-9.1,17.2-20.6,29.2-42.4,21.3c-17.3-6.3-34.8-12.3-59.9-21.1c15.9-9,25-14.5,34.5-19.5
		c22.9-12.2,25.4-22.8,12.8-47.8c-10.6-21-24.2-12.2-37.3-4.5c-14.6,8.5-27.8,19.5-42.9,26.7c-24.7,11.8-22.2,26.6-10.2,46.5
		c15.1,24.9,28,51.1,41.4,75.7c35.2-13,69.7-25.4,104-38.4c22.5-8.6,46.4-6.1,63,11.7c15.1,16.2,34.1,30.8,47.8,48
		c7.1,8.8,12.6,27.1,12.8,38.3c0.9,75.1-47.9,104.8-127.4,94.5c-21.7-2.8-32.9,7.6-31.7,29.4c0.7,13.9,6.4,18.1,20.8,14.9
		c39.6-8.9,79.4-16.7,119.2-24.1c32.3-6,80.6,34.1,72.2,65.7c-1,19.4,14.9,60.9,8.2,76.1C3622.2,1791.6,3601.9,1788.1,3587.4,1787.2
		z M3496.9,1490.6l-108.2,37.6c0.2,4.4,0.4,8.7,0.6,13.1c24.1,6,47.9,15.7,72.3,17.1C3501.2,1560.7,3518,1527.6,3496.9,1490.6z"/>
	<path class="st3" d="M3005,3124.4c12.1,19.7,22.1,41.8,37.4,59.3c20.6,23.5,30.1,46.1,8.6,68.4c-17.1,17.7-40.5,26.8-59.5,42.3
		c-21.1,17.2-48,13.1-75.6-6c-20.7-14.4-21.1-34-14.4-54.5c5.9-18.1,14.4-35.4,24.8-60.1c6.1,25,8.3,43.5,15.5,59.7
		c4.8,10.8,16.6,24.9,26,25.5c9.2,0.5,23.5-12.5,27.6-22.8c3-7.6-5.9-20.8-11.4-30.4c-4.6-8.1-11.6-15.1-18.2-21.8
		c-25.6-25.7-50.4-24.6-77.2,0c-11.4,10.5-27.5,15.9-41.6,23.6c-16.1,8.8-24.4,18.6-12.7,38.1s26,40.3,34.5,61.6
		c2.6,6.6,11.6,33.5,7.1,38.3c-5.2,5.6-32-4.1-38.7-6.4c-42-13.9-65.2-50.9-81.7-86.1c-8.6-18.3,10.3-49.5,18-79.7l36.3,29.6
		c4.2-10.6,10-19.1,10.7-28c3.5-43.4,35.6-62.9,67-83.4c4.5-2.9,9-5.7,13.4-8.8c41.1-29.2,41.1-29.2,81.6,1.8
		c1.9,1.4,4.7,1.6,12.5,4.1c-4.5-12.1-7.7-20.5-10.8-29c-10.2-28.2,2.3-49.1,31.7-52.6c31.3-3.8,43.2-13.2,41.6-43.9
		c-2.1-42.8,30.4-61.5,53.9-86.5c3.2-3.4,14.7-1.7,20.9,0.9c7.8,3.3,14,10.1,23.9,17.8c0.8-8,2.7-13,1.6-17.3
		c-14.9-58.4,15.4-102.9,44.7-147.7c10.6-16.2,21.2-32.4,32-48.6c19.9-29.9,57.5-29.1,79.5,0.2c7.1,9.4,19.1,15.4,29.5,22.1
		c22.8,14.7,46.4,28.3,68.6,43.8c4.7,3.3,17.9,14,18.3,20.6c1,18.4,0.1,45.9,0.1,72c-24.4-19.4-53.3-47.7-74.6-60.5
		c-20.7-12.4-44.6-19.5-70-30.2c27.7,30.2,63.3,49.7,83.3,78.9c13.2,19.3,21.5,56.9,26.6,80.7c1.4,6.3-9.3,18.4-15.8,20.4
		c-25.3,7.8-62.1,7.2-89.4,13.2c3.5-4.2,6.6-8.1,9.9-11.9c23.1-26.6,23.6-51-1.5-75c-13.3-12.7-29.5-22.8-45.6-32
		c-4.7-2.7-16.4-0.5-20.2,3.6c-19.1,21.1-37.1,43.1-53.9,66c-3.6,4.9-3,18.1,1.1,22.4c26.3,27.3,53.6,53.8,81.7,79.2
		c12.5,11.3,28.7,26.2,23.8,45.3c-6.2,24.1-28.1,25.8-48.7,11.9c-30.1-20.2-61.2-39.1-90-61.1c-18.8-14.3-32.6-14.4-46.9,3.9
		c-10.1,12.9-20.4,25.6-34.3,43.1l61.6-0.4c0.7,14.8-1.3,25.8,3.1,36.3c3.2,7.7,11.4,13.6,19.9,18.4c7,3.9,25.9,11.1,26,14.3
		c1,18.8,6.7,56.6,3.1,75.1c-0.8,3.8-45-1.8-52.1-4.1C3085.1,3164.4,3050.7,3140.7,3005,3124.4z"/>
	<path class="st3" d="M1323.9,858.4c-2.6,11.8-5,16.3-4.2,20c8,39.1-17,55.8-46.3,70.7c-16.6,8.5-33,17.8-47.9,28.7
		c-20.8,15.3-38.5,12.2-52.8-7.2c-19.5-26.3-37.3-53.8-55.9-80.8c-4.4-6.4-9.3-12.4-13.9-18.6l-6.8,1.8c1.5,8.1,1.1,17.3,4.9,24.1
		c7,12.3,14.7,25,25.2,34.2c33.6,29.5,30.4,64.6,18.3,107.7c-14.8-14.8-27.7-26.2-38.7-39.2c-18.4-21.6-34.5-45.2-53.9-65.8
		c-8.3-8.8-22-16-33.8-17c-18.2-1.6-23.2-11.4-23.7-25.8c-0.6-16.2,3.9-33.6,23.1-32.5c34.8,2,50.8-13,54.5-46.2
		c0.8-7.4,5.4-15.5,10.6-21.1c6.1-6.5,19-16.5,21.7-14.7c8.3,6,13.7,16.4,19.4,25.6c6,9.7,9.2,22.2,17.1,29.7
		c17.3,16.3,36.8,30.3,56.9,46.3c24-15.5,24.3-69.8-7-91.9c-18.2-12.9-21.4-35.2-6.1-56c13.2-17.9,29.6-7.5,42.8-0.2
		c29.7,16.3,39,46.9,49.1,76.4c2.5,7.4,3.6,15.3,5.3,22.6c34.8,1.4,41.4-7.2,27-35c-9.7-18.8-22.5-36.1-31.1-55.4
		c-4.9-11-10.2-29-4.9-35.8c10.5-13.6,27.4-23.2,43.5-30.7c3.5-1.7,14,12.6,21.8,18.8c8.9,7,19,19.1,27.5,18.3
		c10.1-0.9,23.6-11.5,27.4-21.1c3.3-8.2-5.2-21-10.5-38.6c11.4-33.5,31.9-41.2,64.9-14.6c18.5,14.9,36.6,31.9,49.6,51.5
		c9.4,14.1,11.7,33.8,14,51.4c1.6,12-4.9,25-3.2,36.9c6,42.7-21.2,60-53.4,74.6c-17.8,8-36,15.3-53,24.8
		C1373.4,890.5,1349,885.4,1323.9,858.4z"/>
	<path class="st3" d="M752.8,1310.1c-25.9,1.2-45.8-1.1-63.3,4.4c-7.7,2.4-10.6,20.4-15.7,31.3c10.6,2.3,23.8,9.7,31.3,5.9
		c22.1-11.1,29.6,0,38.9,16.8c5.9,10.7,18.7,17.5,25.1,28c13.3,22,24.8,45.3,35.5,68.7c0.6,1.2-13.8,13.6-19.7,12.5
		c-15.4-2.9-29.8-11.2-45-15.6c-8.6-2.5-21.1-5.5-26.5-1.3c-5,3.9-2.9,17-4,26.6c37-2.3,69.5,29.1,61.5,62.9
		c-11,46.3-28.3,91.3-45.5,135.8c-2.1,5.5-23.8,10.4-30.4,6.1c-35.8-22.8-74.1-25.5-115-24.2c-29.8,0.9-60-4.5-89.7-8.9
		c-41-6-61.8-57.6-35.7-90.2c5.3-6.6,21.1-9.5,30.3-7.3c55.9,13.7,111.7,28.2,166.6,45.1c20.6,6.3,23.7-0.2,23-20.1
		c-14,0-27,0.3-40.1,0c-54.5-1.4-91.2-38.8-91.2-98.9c0-8.8,0.8-24.3,19.2-28.1c14.4-3,26.9-15,44.8-25.8c3.1,39,6.5,74.9,50.6,82.3
		c20,3.4,35.8-3.2,52.6-20.6c-31.7-8.6-42.4-30.5-50-56.3c-2.3-7.8-11.9-15-19.9-19.4c-17.2-9.4-21.2-19.2-22-41.2
		c-1.2-32.9,15.4-57,23.7-85c2.2-7.6,5.6-15.4,10.6-21.4c28.8-34.8,115.3-31.7,143.9,3.2c5.7,7,19.8,13.5,27.5,11.3
		c18.7-5.4,25.5,2.5,32.2,17.4c21.3,47.6,19.1,54.1-32.5,69.3c-12.2,3.6-35,4.8-38-0.9c-9.3-17.3-11.6-38.4-15.8-58.2
		c-1.2-5.6,0.6-11.8,1-17.7c-5.1,3.2-10.5,6.2-15.3,9.8C753.1,1308.6,751.3,1311.9,752.8,1310.1z"/>
	<path class="st3" d="M2086.1,653.3c-11.4,15.5-23.1,30.9-34.3,46.8c-11,15.6-21.5,12.4-32.4,0.2c-14.7-16.5-29.3-33-46-51.8
		c-9.4,14.8-20.4,28.5-27.3,44c-8.3,18.6-17.9,16.3-30.7,6.3c-4.2-3.3-9.3-5.4-13.2-9c-16.4-14.9-31.4-13-45.9,2.7
		c-2.5,2.6-5.2,4.9-8.1,6.9c-32.8,23.8-42.1,18.8-47.9-21.7c-5.8-40.4-13.9-80.4-21.8-120.4c-2.6-13.2-11.9-22.7-24.7-13
		c-14.7,11.1-31.6,23.9-38.3,39.9c-8.8,21,0.6,43,22.2,54.3c25.8,13.5,29,30.1,12.2,52.5c-4.2,5.7-7.9,11.7-11.8,17.7
		c-19.1,29.3-35.8,30.8-58.9,3.2c-28.2-33.6-43-71.3-28.4-115.9c3.8-11.7,6.6-23.6,10.6-38.1l-22.2,4.2c18.2-31.5,50-31.1,77.1-40.1
		c20.4-6.8,41-8.7,56.6-29.8c7.7-10.4,35.5-12.6,51.2-8c10.2,2.9,18.6,24,21.3,38.2c5.5,28.3,6.5,57.4,9.3,86.1l9.1-0.8
		c-1.7-26.7-3-53.4-5.3-80c-1.7-19.9,10.9-30.6,41-35.4c20.4-3.2,21.7,11,23.6,24.2c3.6,25.4,6.3,51,9.6,76.5
		c3.2,25.1,19,31.4,37.9,28.7l50.3-91.2l-27.2-17c19.4-26,49.2-33.8,77.8-24.4c11.3,3.7,24.8,1.4,37.3,1.1c9.5-0.2,19-1.9,28.6-2.5
		c10.7-0.7,21.4-0.7,32-1.2c7.6-0.3,15.1-0.9,24.7-1.5c0,40.7-2.1,78.5,0.6,115.9c3.1,42.6-19,67.3-51.6,87.9
		c-16.6,10.5-24.9,1.8-26.1-12c-1.8-20.9-0.6-42.4,1.9-63.3c2.1-17.5,9.4-34.4,11.4-51.9c2.4-21.6-7.6-29-27.1-20.2
		c-39.9,18-60.1,47-31.9,88.4C2076.4,637.1,2080.8,644.7,2086.1,653.3z"/>
	<path class="st3" d="M2299.8,1509.6c-15.6,2.4-31.2,7.2-46.7,6.9c-56.8-1-113.6-4.2-170.4-5.4c-18.9-0.4-26.8-5.6-19.7-25.4
		c7.1-20.2,6.1-41.7-14.9-50.7c-13.3-5.6-34.1-5.1-46.6,1.7c-19.9,11-23,32.6-12.9,53.7c6.2,13,4.1,21.4-11.1,21.7
		c-72.8,1.2-145.6,1.9-218.4,2.5c-3.1,0-6.3-2.5-11.1-4.6c1.6-5.4,1.6-11.4,4.6-14.7c41.5-45.6,74.9-100.2,136.3-124
		c3.8-1.5,8-4.6,9.7-8.1c24.2-48.3,67.8-78.4,106.1-113.4c18-16.6,35.2-20.7,52.5,4.3c10.9,15.7,29.3,26.1,41.4,41.2
		c16.9,21.1,31.1,44.3,46.5,66.6c2.8,4.1,5.6,10.2,9.5,11.2c44.4,11.7,67.4,50.4,99,78.1c17.7,15.5,33,33.7,49.3,50.6L2299.8,1509.6
		z"/>
	<path class="st3" d="M1883.1,2676.6c-65.5-26-106.3-82.3-158-135.1h257c-5.3,29.2-27.6,55.3-0.5,77.5c8.6,7.1,20.1,14.9,30.3,14.9
		c30.2,0.2,45.9-36.2,40.8-88.6h241.7c-20.3,40.6-119.5,121.3-139,122.9c-18.1,26.8-30.8,50-47.8,69.6c-26.1,30-55,57.6-83.1,85.9
		c-3.3,3.3-8.9,4.3-15.9,7.6c-1.1-9.7-2-16.9-2-17.4C1953.5,2775.3,1910.2,2735.1,1883.1,2676.6z"/>
	<path class="st3" d="M906.8,1823c8.3-6.5,17.2-13.7,26.3-20.6c14.5-10.8,28.4-16.9,45.2-1.9c4.8,4.3,18.4,3.8,24.9,0.1
		c16-9,29.3-13.5,46-0.7c15,11.6,29.8,13.4,46.9-2.7c8-7.6,32.6-9.8,40.3-3.3c28.3,23.7,60.9,21.6,93.3,24
		c9.4,0.7,18.8,1.9,28.2,2.9l3.3,7.4l-58.8,39.9c43.6-4.1,51.6,26.8,63.2,59.1c-15,4.6-28.9,12.2-43.1,12.5
		c-38.7,0.9-77.4-1.5-116.1-2.1c-29.2-0.5-58.4,0.4-87.5-0.7c-53.9-2-107.7-5.6-161.6-7.5c-17.9-0.6-19.6-11.9-15.6-23.3
		c8.5-24.1,5.2-42.3-16.1-58.6c-4.9-3.8-5.6-23.9-1.5-26.7c13.5-9.2,29.9-18.4,45.4-18.8C881.3,1801.9,893.5,1815.1,906.8,1823z"/>
	<path class="st3" d="M3211.2,1062.4c-23.1,11.6-45.2,26.9-69.7,33.7c-22,6.1-34.3,12.4-23.5,41.9c-31-3.2-58.2-5-84.8-9.7
		c-5.3-0.9-10.9-12.6-12.4-20.1c-2.1-11-0.5-22.8-0.5-34.1c-50.5-8.5-72.4,0.9-91.3,39c-23.8-3.3-40.7-21.2-40.8-43
		c0-17.9,23.3-39.2,46-40.6c17-1,34.1-0.2,51.2-0.2c0.2-2.8,0.4-5.7,0.6-8.5c-4.3-1.4-9.3-4.9-12.9-3.8
		c-43.2,12.8-69.9-17.2-98.9-39c-4.4-3.3-4.8-20.7-0.3-25.8c33.8-38.7,69.2-76,104.2-113.7c16-17.2,51.1-24.9,70.4-13.5
		c3.8,2.2,4.9,17.8,1.2,22.3c-24.4,30.4-50.5,59.5-75.9,89.1c-6.7,7.9-12.9,16.2-19.9,25.1c14.2,9.1,25.1,19,38,23.5
		c9.9,3.4,25.1,4.3,32.8-1.1c25.3-17.9,47.5-40,72.4-58.5c7.5-5.6,24.6-18.3,32-14.7c29.9,14.8,68.1,34.6,93.4,55.7
		c11.1,9.2,11.2,39.7,10.7,56.7c-0.6,19.7-27.5,12.1-40.9,14.4c-20.6,3.5-41.1,8-61.6,12.2l0.9,8.9l75.8-4.9
		C3208.8,1056.6,3210,1059.5,3211.2,1062.4z M3062.3,1030.7l8.5,10c46.9,11.1,72.7,2.2,87.6-34.6c3.8-9.4-3.5-23.3-5.7-35.2
		c-9.2,2.4-20.1,2.3-27.2,7.6C3103.7,994.8,3083.3,1013.1,3062.3,1030.7L3062.3,1030.7z"/>
	<path class="st3" d="M2622.5,498.3c-22.9,37.8-78.6,52.9-124.7,28.7c-27.9-14.6-32.4-10.1-49,16.6c-19.6,31.6-19.9,65.9-21.8,100
		c-0.6,12.1,7.1,27.7,16.1,36.5c14.7,14.3,13.8,23.4-2.4,33.1c-10.6,6.3-21.1,13.3-32.6,17.5c-43.6,15.8-60.8,7.2-72.3-36.8
		c-9.9,4-21.4,5.6-28.6,12.2c-14.3,13-29.9,22.8-47.3,11.9c-18.9-11.8-40.3-25.1-51.1-43.3c-21.1-35.4,2.2-86.2,45.4-108.2
		c22-11.2,36.8-40.2,57.9-52.8c30.1-17.3,52.4,15,57.3,32.8c-13.4,8.7-22.8,14.5-31.9,20.7c-13.9,9.4-30.1,17.1-40.5,29.5
		c-5.9,7-4.5,22.7-1.4,33c1.1,3.6,17.2,4.3,26.2,3.6c30.4-2.7,48.5-21.2,54.3-49.8c5.7-28.3,18.6-48.3,46.9-57.9
		c8.7-3,15.8-10.6,30.1-20.5c-17.4-3.6-29.4-4.4-40-8.7c-11.9-4.8-22.9-11.6-32.4-20.2c-1.9-1.7,4.7-18.8,10.7-21.5
		c10.8-16.6,17.8-20.9,39.7-14.5c14.5,4.3,25.3,18.4,35.3,23.7c10.9,2.6,23.1-0.2,34.7-1.3c3.2-0.3,9.4-14.6,12.7-15.4
		c7.3-1.9,20.5,2.3,35.1,9.3c3.9,1.9,5.3,18.8,9.3,21c4.6,2.5,24.1-16.1,28.6-13.3C2605,475.5,2616.9,489.5,2622.5,498.3z"/>
	<path class="st3" d="M787,2952.4c43,46.1,48.8,45.2,104.4-19.6c-33.2,0-61.5,0.5-89.8-0.2c-11.1-0.3-24.3,0-32.8-5.7
		c-21.7-14.5-20.4-37,2.2-51.3c10.2-6.4,23-8.6,34.4-13.1c8.4-3.4,22.3-6.3,23.3-11.5c1.9-9.5-3.8-20.6-7-33.6
		c-34.5,20-64.2,37.3-94,54.4c-27.7,16-38.6,14.8-69.5-8.4c4.9-5.8,9-12.3,14.5-17c31.3-26.3,63-52.1,94.4-78.1
		c31-25.7,72.2-23.6,106.4,7.5l-35.8,32.3c24.2,10.9,49.8,21.7,74.7,33.9c37.8,18.5,6.7,50.8,14.3,75.8l69.7,8.6
		c-35.5,57.8-86.5,88.6-126.1,120.3l-70.1-8.4c31-23.6,24.6-36.7-27.6-67.1c-0.2-1.7-1.1-4.1-0.3-5
		C776.7,2961.7,781.3,2957.7,787,2952.4z"/>
	<path class="st3" d="M759.2,1140.2c18.8,11.1,37.8,21.8,56.2,33.3c12.7,8,24.5,17.5,37.1,25.7c30.2,19.7,36.3,17.3,51.2-20.1
		c-39.5-10.6-93.2-10.6-92.5-66.6c0.7-56.5,22.8-73.4,71.6-75.4c0,2.3,1,5.4-0.2,6.8c-13.6,17.1-27.6,34.4-12.5,57.1
		c13.1,19.7,52.4,29.3,78.1,19.7c13.2-5,25.6-11.9,38.4-18c38.4,26.6,39.6,39.6,11.3,75.6c-27.9,35.6-54.6,72.2-80.2,109.5
		c-9.3,13.5-17.3,15.6-30.4,7.8c-38.8-23.2-77.9-45.9-116.5-69.4c-8.7-5.3-18.8-11.5-8.9-25.4c2.4-3.3-2.7-11.8-4.1-18
		c-2.8-12.7-5.5-25.4-8.2-38.1L759.2,1140.2z"/>
	<path class="st3" d="M966.8,3160.9c-23.9,0-44,0.8-64-0.6c-5.2-0.4-13.7-7.2-14.2-11.8c-6.1-59,12.4-106.7,63.4-141
		c29.8-20,83.4-23,118.5,0.5c14.2,9.5,24.1,25.4,35.9,38.4c11.2,12.4,22.3,24.9,37.3,41.8c-35.7,36.8-68.8,74.7-106.1,107.8
		c-17.1,15.1-37-1-51.5-13.9c-15.1-13.4-1-24.1,6.5-34c9.5-12.7,21.6-23.6,30.2-36.9c5.4-8.3,11.4-26,8.5-28.2
		c-11-8.3-26.1-17.8-38.4-16.4c-40.1,4.6-48.6,20.4-37.5,60.2C957.8,3136.1,961.3,3145,966.8,3160.9z"/>
	<path class="st3" d="M2850.8,740.7c24.1-1.5,56.6-10.9,80.7-10.1c17.6,0.6,21.3,17.8,21.3,37.5c0.2,72.3-50.7,132.5-121.6,143.8
		c-33.4,5.4-33.4,5.4-50.8-41.9c-11.4,1.3-24.3,5.9-35.4,3.3c-19.9-4.5-39.3-12.4-57.8-21.2c-4.1-1.9-7.1-14.9-4.7-20
		c15.6-33.5,26.4-70.3,61.8-90.7c6.5-3.7,11-11.5,15.2-18.2c18.7-30,50.8-48.8,92.4-39c-23.1,39.6-50.7,88.3-75.5,125.4
		c-11,16.5-7.1,23.1,6.9,30.9c24.2,13.4,70.4,9.6,91.6-7.6c20.8-16.9,15.6-55.4-10.4-76.2c-4.7-3.7-9.9-6.8-14.8-10.2
		C2850,744.5,2850.4,742.6,2850.8,740.7z"/>
	<path class="st3" d="M3239.8,1216.2c16.5-15.2,31.9-25.4,41.2-39.6c6.2-9.4,3.5-24.6,4.8-37.2c-11.2,2-23.5,1.6-33.2,6.5
		c-10.8,5.4-19.6,15-28.6,23.6c-22.6,21.7-35.2,46.7-17.5,82.6c-16.2-3.2-26.2-4.7-36.1-7.1c-19.6-4.8-46.4,1.1-53.1-25.4
		c-7.3-28.4,11.4-64.4,35-79.9c30.3-20,60.2-40.6,89.9-61.6c23.9-17,81.4,0.9,89.3,31.7c8,31.3,13.2,64.5-3.1,96.1
		c-8.2,16-18,24.9-38.1,18.4C3275.5,1219.4,3259.1,1219.1,3239.8,1216.2z"/>
	<path class="st3" d="M527.5,1677.6c-4.3,42.2,10.8,64.2,46.8,70.7c44.4,8,60-30.1,86.2-51.7c39.2,18,51.2,41.1,40.3,81.7
		c-5.9,21.9-13.9,43.3-21.5,66.6c-4.6-2.7-7.9-3.9-10.3-6.1c-26.8-24.9-53.9-39.9-94.4-27.7c-39.3,11.9-74.9-8.4-104.7-33.7
		c-25.2-21.5-20-58.6,8.5-74.6C492.2,1695.2,506.4,1688.4,527.5,1677.6z"/>
	<path class="st3" d="M906.5,2761.3c54.3-14.8,106.4,6.6,130.6,52.1c18,33.9,33.6,69,50.2,103.6c-60.9,21.2-115.8-5.7-126.7-49.5
		c-6.1-24.5-12.7-48.8-20.4-72.8c-1.7-5.4-9.2-8.9-13.8-13.4C920.3,2775.4,914.3,2769.2,906.5,2761.3z"/>
	<path class="st3" d="M2451,2503.2c6.1-19,17.2-37.7,19.4-55.3c1.3-10.4-8-21.5-14.2-30.9c-11.5-17.3-11.2-33.1,2.4-47.5
		c14-14.9,28.3-26,49.2-6.3c24.1,22.7,34.3,64.9,19.4,96.9C2514.3,2487.5,2478,2507.8,2451,2503.2z"/>
	<path class="st3" d="M1282.8,3053.5c-19.5,60,33.7,49,59.8,68.8c-8.7,6.1-15.4,12.9-23.6,16.1c-41.1,16.6-95.2-0.1-121.4-35.9
		c-9.7-13.3-8.2-25,6.5-29.8C1228.9,3064.8,1254.8,3060.2,1282.8,3053.5z"/>
	<path class="st3" d="M2225,438.9c-10.7,6.3-21,17.2-32.1,17.9c-22.7,1.4-46.1-0.8-68.5-5.2c-9.5-1.9-20.7-11.2-25-20.1
		c-14-29-5.4-41.2,25.6-34.2c33.3,7.5,65.4,19.8,98.1,30C2223.8,431.1,2224.4,435,2225,438.9z"/>
	<path class="st3" d="M986.6,1083.7c-5.8-19.3-8.9-44.6,17.1-56c18-7.9,50.6-14.2,58.8-5.1c12.4,13.7,9.2,41.5,12.3,61.1H986.6z"/>
	<path class="st3" d="M979.1,1001.3c-27.6-17.5-49.2-2.9-70.8,14.2c-11.8-19.6-16.1-40.1,0.6-51.7c16-11,39.8-19.4,57.5-15.8
		c9.4,1.9,13.2,31.6,19.5,48.8L979.1,1001.3z"/>
	<path class="st3" d="M504.1,1457c17.5,30.8,9.8,48.6-36.6,91L504.1,1457z"/>
	<path class="st3" d="M1594.2,3612.5l68.8-4C1644.1,3633.7,1619.5,3634,1594.2,3612.5z"/>
	<path class="st3" d="M1673.9,3571.9l-44.1-13.6c1.3-4.3,2.6-8.6,3.9-12.9l44.4,12.3C1676.7,3562.4,1675.3,3567.2,1673.9,3571.9z"/>
	<path class="st4" d="M548.5,2065.3c-6.2,0-12.5,0.8-18.6-0.2c-8.9-1.4-24.8-3.4-25.1-6.4c-1-10.5,1-22.8,6.3-31.9
		c11.7-20.1,39.4-29.4,60.5-21.7c19.4,7,31.8,20.5,26.9,42.3c-1.6,7.1-9,16.2-15.6,18c-10.7,3-22.8,0.8-34.4,0.8V2065.3z"/>
	<path class="st4" d="M558,2397.7l36.4-19.9l-48.9-36.1c23-5.1,43.5-16.3,56.9-10.6c11.9,5.1,17.1,28.5,22.4,44.7
		c1,2.9-11,12.2-18.4,15.1c-14.4,5.6-29.7,8.8-44.6,13C560.6,2401.8,559.3,2399.8,558,2397.7z"/>
	<path class="st4" d="M1532.6,2283.9c0-33.2-1-62.6,1.2-91.9c0.3-3.8,17.2-9.1,26.3-8.8s23.3,4.3,25.9,10.6
		C1601.5,2230.6,1581.7,2267.3,1532.6,2283.9z"/>
	<path class="st4" d="M2558.3,2265.2c-4.5-17.4-9-34.8-14.3-54.8c-3.7,1.6-11.4,3.2-17.2,7.4c-26,18.7-26.2,18.8-39.7-10.8
		c-1.8-3.9-3-8.1-6.4-17.8c16.8-6.2,32.4-14.5,48.9-17.1c7.7-1.2,22.2,7.1,24.7,14.2c8.6,24.1,13.2,49.6,19.3,74.6L2558.3,2265.2z"
		/>
	<path class="st4" d="M2321.8,1768.1c0,32.1,0.5,64.3-0.9,96.4c-0.1,2.7-14.3,8.5-19.9,6.6c-21-6.8-36.3-40.6-25.6-59.8
		c9.5-17,24.2-31.1,36.6-46.4L2321.8,1768.1z"/>
	<path class="st4" d="M1900.8,1853.4c-37.5-18.2-11.7-63.5-43.4-82.6c34.4-17.1,43.7-13.3,48.7,15.9
		C1909.9,1808.9,1917.6,1831.5,1900.8,1853.4z"/>
	<path class="st4" d="M2104.5,1862.3c-5.4-14-15.1-28.1-14.9-42.1c0.1-9.6,13.9-19,21.5-28.5l9.9,5.5c-1.9,20.8-3.7,41.7-5.5,62.5
		L2104.5,1862.3z"/>
	<path class="st4" d="M2002.2,1768.5l38.9,26.8l1.1,8.6l-46.9,8.1l-2-41.9L2002.2,1768.5z"/>
	<path class="st4" d="M1789.3,1832.3c-23.8-23.9-21.7-38,0-59.6V1832.3z"/>
	<path class="st4" d="M2480.2,2184.5l-28.6-18.4l33.8-11.6c1.2,9.1,2.5,18.3,3.7,27.4L2480.2,2184.5z"/>
	<path class="st4" d="M1890.1,3436.3c42.1,20.8,60.4,59.7,48.7,96.6c-4.4,13.9-9.6,19.2-24.6,10.8c-38.8-21.8-38.9-21.2-29.6-66
		C1887.3,3464.9,1888.1,3451.7,1890.1,3436.3z"/>
	<path class="st4" d="M2167.5,3552.9c-7.6,8.7-13.8,22.1-21.3,22.9c-14.1,1.5-32.3-0.1-42.4-8.3c-7.9-6.3-11.1-26.5-7.2-37.1
		c5.1-13.9,18.6-25.2,30.1-35.7c2.8-2.6,16.2,0.3,18.2,4C2153.3,3514.8,2159.2,3532.2,2167.5,3552.9z"/>
	<path class="st4" d="M3595,2130l-140-10.1c19.2-36.4,41.6-62.8,79.9-68.3c9.2-1.3,24.1,5.6,29.1,13.3
		C3575.8,2083.4,3583.3,2104.7,3595,2130z"/>
	<path class="st4" d="M3496.9,1490.6c21.1,37,4.3,70.1-35.3,67.8c-24.3-1.4-48.2-11.1-72.3-17.1c-0.2-4.4-0.4-8.7-0.6-13.1
		L3496.9,1490.6z"/>
	<path class="st4" d="M3062.3,1030.7c21-17.6,41.4-35.9,63.2-52.2c7-5.3,18-5.2,27.2-7.6c2.2,11.8,9.6,25.8,5.7,35.2
		c-14.9,36.8-40.7,45.7-87.6,34.6L3062.3,1030.7z"/>
	<rect x="1685" y="2183.2" class="st4" width="27.1" height="10.4"/>
	<polygon class="st4" points="1761.1,2185.9 1782,2178.8 1782,2193.6 	"/>
	<polygon class="st4" points="2009.2,2186.2 2009.2,2225.2 2046.4,2214 	"/>
	<polygon class="st4" points="2131.8,2169.5 2131.8,2191.5 2122.1,2180.5 	"/>
	<polygon class="st4" points="2138.4,2230.3 2138.4,2276.8 2122.1,2250.8 	"/>
	<path class="st4" d="M1855.2,2781.1c0,0,28.6,22.1,36.4,35.1c7.8,12.9,3.1,10.6,0,12.9s-3.6-3.1-16.1-17.7
		c-12.5-14.6-26.8-27.9-26.8-27.9L1855.2,2781.1z"/>
	<path class="st4" d="M1927,2860.5c0,0,9.5-7.1,17,0s9.9,15,6.5,20.4s-11.2,7.1-17.7,0C1926.3,2873.7,1924.3,2865.9,1927,2860.5z"/>
	<path class="st4" d="M1599.7,1772.6c0,0-27.6,19.6-28.3,34.4s28.3,34,28.3,34s-8.7-16.3-8.6-34.2
		C1591.3,1788.9,1599.7,1772.6,1599.7,1772.6z"/>
	<path class="st4" d="M1689.3,1798.9c0,0-9.2,2.7-7.7,19.3c1.5,16.7,7.7,44.1,7.7,44.1s0-37.2,0-50.3S1689.3,1798.9,1689.3,1798.9z"
		/>
	<polygon class="st4" points="2205.6,1760.6 2205.6,1795 2224.7,1768.5 	"/>
	<polygon class="st4" points="2527.1,1875.4 2517,1849.1 2529.6,1857.2 	"/>
	<path class="st4" d="M2578.6,1879.4c0,0-1.4-23.1,24.2-24.2c25.5-1,24.5,24.2,24.5,24.2H2578.6z"/>
	<polygon class="st4" points="2781.8,1865.4 2791,1862 2791,1855.2 2781.8,1855.2 	"/>
	<polygon class="st4" points="2850.3,1867.3 2879.5,1868.8 2880.9,1846.3 2854.3,1857.6 	"/>
	<polygon class="st4" points="3185.9,1882.1 3189.3,1862.7 3174.7,1866.8 3168.6,1882.1 	"/>
	<polygon class="st4" points="1509.3,1790.2 1500.1,1768.5 1513.9,1768.5 	"/>
	<path class="st3" d="M1254.7,1667.3c0,0,43.9-72.2,93.3-79s80,29.6,80,29.6s8.9,10.9,20.4,11.6c11.6,0.7,32-2.1,32-2.1
		s-22.8,68.8-55.5,73.6c-32.7,4.8-46-40.9-64-43.2C1342.9,1655.4,1254.7,1667.3,1254.7,1667.3z"/>
	<path class="st3" d="M2639.1,3110.2c0,0-39.8-9.2-58.2,17.6s-12.3,55.9-9.2,72s16.1,30.6,16.1,30.6s46-39.8,62-39.1
		c16.1,0.8,75.1-13,75.1-13s-36.8-3.1-34.5-31.4c2.3-28.3,36.8-18.4,55.9-6.9c19.1,11.5,13.7,26.1,13.7,26.1s8.9-5.8,8.9-15.7
		s-2.4-19.1-2.4-19.1l7.5,3.1c0,0,4.4-27.9,4.4-35.1s-9.9-29.3-9.9-29.3h-17l-4.4-53.1c0,0-0.3-17.7-14-21.4
		c-13.6-3.7-15,9.2-15,9.2l-37.8-12.3c0,0-15.7,11.2-16.7,17s16,60.6,16,60.6l-43.9,5.4L2639.1,3110.2z"/>
	<path class="st5" d="M1961.2,2619.2c0,0,20.7,30.6,54.4,26.8s55.9-26.8,55.9-26.8s-12.3,40.6-55.1,36.8
		C1973.5,2652.1,1961.2,2619.2,1961.2,2619.2z"/>
	<path class="st3" d="M3626.4,1642.6c0,0,43.4-7.1,67.4,7.7c24,14.8,43.4,59.7,40.3,74.6c-3.1,14.8-22.5,34.2-14.3,46
		c8.2,11.7,14.6,16.9,14.6,16.9s-71.3,1-75.9-26.6s16.9-41.9,12.8-68.4C3667.3,1666.1,3626.4,1642.6,3626.4,1642.6z"/>
</g>
</svg>
