<svg id="svg" version="1.1" width="400" height="285.37455410225925" viewBox="0 0 400 285.37455410225925" xmlns="http://www.w3.org/2000/svg" xmlns:xlink="http://www.w3.org/1999/xlink" ><g id="svgg"><path id="path0" d="M0.000 142.755 L 0.000 285.510 200.000 285.510 L 400.000 285.510 400.000 142.755 L 400.000 0.000 200.000 0.000 L 0.000 0.000 0.000 142.755 M175.784 35.618 C 176.284 35.892,177.142 36.479,177.690 36.920 C 178.715 37.745,179.949 37.575,180.602 36.518 C 181.088 35.731,182.711 35.362,183.537 35.850 C 185.108 36.778,185.670 38.041,185.848 41.041 C 186.045 44.369,186.419 44.675,187.447 42.349 C 189.998 36.577,194.461 39.417,196.716 48.247 C 197.048 49.551,197.677 51.337,198.113 52.218 C 198.549 53.098,199.195 54.548,199.548 55.438 C 200.358 57.479,202.525 59.594,206.852 62.567 C 211.032 65.440,210.809 65.339,219.168 68.121 C 226.408 70.530,229.313 71.833,232.508 74.103 C 234.935 75.828,238.120 75.135,240.986 72.259 C 243.029 70.208,249.730 61.217,250.975 58.857 C 252.202 56.529,252.891 56.048,254.364 56.490 C 254.964 56.669,255.838 56.817,256.305 56.817 C 258.426 56.817,258.720 60.591,256.888 64.288 C 255.706 66.674,250.362 74.821,248.606 76.915 C 246.933 78.910,246.395 80.109,246.395 81.849 C 246.395 83.872,246.745 84.037,249.846 83.474 C 251.904 83.100,252.772 83.089,255.908 83.395 C 259.491 83.744,259.599 83.738,261.047 83.098 C 264.787 81.446,265.832 81.088,267.821 80.775 C 269.567 80.500,270.644 80.067,273.810 78.369 C 283.613 73.111,288.769 74.549,286.061 81.787 C 284.731 85.341,285.916 85.651,291.202 83.131 C 297.913 79.931,300.928 79.967,300.928 83.246 C 300.928 84.862,301.484 85.267,303.928 85.432 C 311.049 85.912,311.147 92.236,304.104 96.722 C 297.138 101.158,297.533 101.781,307.325 101.794 C 314.673 101.803,315.849 101.958,318.513 103.262 C 322.860 105.391,323.191 108.060,319.375 110.214 C 316.574 111.795,316.697 112.341,319.960 112.803 C 330.763 114.333,332.052 122.932,321.990 126.335 C 319.020 127.339,318.986 127.397,319.781 130.146 C 320.899 134.013,316.230 135.444,308.779 133.518 C 307.209 133.112,304.832 132.646,303.498 132.482 C 302.163 132.318,299.657 131.931,297.930 131.621 C 293.900 130.897,293.622 130.906,292.751 131.777 C 290.798 133.730,293.467 136.072,301.943 139.840 L 307.066 142.117 310.350 142.271 C 316.926 142.577,325.330 146.199,326.605 149.275 C 327.361 151.103,325.486 153.761,322.341 155.317 C 318.333 157.301,318.630 157.865,325.440 161.195 C 331.443 164.130,333.547 166.468,331.804 168.266 C 330.677 169.429,330.680 170.009,331.827 172.198 C 333.878 176.110,333.301 178.422,329.816 180.253 C 325.719 182.406,321.719 182.669,317.679 181.051 C 314.214 179.664,307.636 178.466,306.996 179.106 C 305.884 180.218,309.518 185.676,313.128 188.315 C 318.905 192.537,321.677 197.004,321.976 202.570 C 322.221 207.138,318.312 209.330,312.787 207.724 C 310.533 207.069,310.455 207.190,310.916 210.670 C 311.395 214.293,311.179 217.701,310.364 219.386 C 307.570 225.156,298.989 227.258,292.005 223.881 C 287.460 221.684,283.753 221.631,281.077 223.726 C 277.000 226.917,275.494 227.053,270.807 224.652 C 268.922 223.687,266.031 222.211,264.383 221.372 C 259.965 219.124,255.453 218.689,250.107 219.995 C 249.086 220.244,246.774 220.671,244.969 220.944 C 240.885 221.561,240.949 221.262,243.720 226.745 C 248.065 235.345,246.680 238.686,239.054 237.995 C 235.843 237.704,235.915 237.600,235.769 242.749 C 235.632 247.559,235.215 249.187,233.520 251.527 C 231.140 254.813,225.069 254.195,220.700 250.222 C 216.905 246.771,216.540 246.683,213.155 248.383 C 208.068 250.939,206.106 249.998,203.057 243.540 C 200.103 237.282,199.314 237.045,198.300 242.108 C 197.387 246.664,196.376 248.733,193.755 251.409 C 190.038 255.205,188.674 255.203,181.870 251.388 C 179.805 250.231,178.911 250.605,174.894 254.309 C 166.168 262.354,154.461 257.723,154.461 246.227 C 154.461 243.549,153.625 243.240,149.532 244.406 C 140.060 247.104,135.867 243.266,138.603 234.404 C 139.704 230.837,139.820 231.105,137.231 231.220 L 134.990 231.320 133.517 229.793 C 132.512 228.750,131.815 227.676,131.323 226.410 C 130.416 224.078,129.894 223.966,126.110 225.295 C 115.363 229.069,108.821 223.583,114.529 215.585 C 116.181 213.270,116.073 212.892,113.419 211.684 C 110.854 210.516,109.350 209.213,109.350 208.158 C 109.350 206.391,115.709 201.683,120.032 200.249 C 122.806 199.329,123.437 198.946,124.195 197.719 C 125.261 195.994,124.708 195.627,119.422 194.557 C 109.603 192.569,108.592 186.402,117.152 180.705 C 119.804 178.941,121.342 177.672,121.342 177.249 C 121.342 175.911,114.716 166.167,113.806 166.167 C 111.401 166.167,112.683 162.373,115.665 160.671 C 116.920 159.954,117.230 159.587,117.972 157.937 C 118.443 156.889,119.326 155.004,119.932 153.747 C 121.759 149.964,121.377 149.175,118.829 151.467 C 117.649 152.527,117.027 153.477,115.591 156.404 C 111.871 163.992,111.063 164.624,100.850 167.926 C 90.260 171.350,86.966 167.809,90.931 157.265 C 92.286 153.663,92.447 152.871,91.865 152.677 C 91.319 152.495,86.535 153.783,84.035 154.784 C 79.611 156.555,76.784 156.537,76.580 154.737 C 76.379 152.971,76.228 152.777,74.221 151.723 C 70.300 149.663,68.865 147.197,69.183 143.070 C 69.608 137.559,71.584 135.349,80.647 130.253 C 83.734 128.516,83.806 127.806,80.992 126.886 C 69.377 123.087,74.226 112.167,88.712 109.499 C 90.720 109.129,93.455 108.573,94.789 108.264 C 96.124 107.955,98.482 107.614,100.029 107.507 C 104.446 107.202,105.598 106.188,103.603 104.360 C 102.005 102.895,97.186 100.216,94.543 99.323 C 93.190 98.865,91.394 98.034,90.552 97.475 C 88.906 96.382,88.898 96.354,89.522 93.853 C 89.678 93.228,89.513 92.743,88.747 91.569 C 84.415 84.932,84.978 81.454,90.742 79.247 C 92.042 78.749,92.824 78.254,93.201 77.689 C 94.505 75.740,96.807 75.282,100.704 76.197 C 105.984 77.436,106.588 77.099,105.475 73.529 C 104.231 69.541,104.909 65.487,106.998 64.425 C 109.970 62.914,115.869 64.169,120.056 67.203 C 121.870 68.517,122.110 68.503,124.268 66.959 C 125.249 66.256,126.342 65.479,126.695 65.232 C 127.734 64.508,127.459 63.860,125.299 61.940 C 120.350 57.542,119.033 50.155,122.845 48.177 C 126.054 46.513,132.218 45.972,137.358 46.904 C 140.090 47.399,140.635 47.210,141.041 45.625 C 143.672 35.358,150.745 34.544,160.300 43.408 C 164.610 47.407,165.002 47.408,166.025 43.415 C 167.569 37.391,172.231 33.666,175.784 35.618 M134.629 77.927 C 133.696 79.436,142.203 82.658,143.743 81.380 C 144.332 80.891,144.298 80.136,143.662 79.560 C 142.507 78.514,135.094 77.175,134.629 77.927 M195.010 118.238 C 189.368 121.677,177.302 132.872,177.302 134.668 C 177.302 134.963,178.790 134.447,181.679 133.148 C 183.276 132.430,186.060 131.324,187.866 130.691 C 192.328 129.125,193.324 128.116,197.392 121.031 C 199.002 118.227,197.642 116.633,195.010 118.238 " stroke="none" fill="#ffffff" fill-rule="evenodd"></path><path id="path1" d="M170.984 35.936 C 168.639 37.423,166.881 40.074,166.025 43.415 C 165.002 47.408,164.610 47.407,160.300 43.408 C 150.745 34.544,143.672 35.358,141.041 45.625 C 140.635 47.210,140.090 47.399,137.358 46.904 C 132.218 45.972,126.054 46.513,122.845 48.177 C 119.033 50.155,120.350 57.542,125.299 61.940 C 127.459 63.860,127.734 64.508,126.695 65.232 C 126.342 65.479,125.249 66.256,124.268 66.959 C 122.110 68.503,121.870 68.517,120.056 67.203 C 115.869 64.169,109.970 62.914,106.998 64.425 C 104.909 65.487,104.231 69.541,105.475 73.529 C 106.588 77.099,105.984 77.436,100.704 76.197 C 96.807 75.282,94.505 75.740,93.201 77.689 C 92.824 78.254,92.042 78.749,90.742 79.247 C 84.978 81.454,84.415 84.932,88.747 91.569 C 89.513 92.743,89.678 93.228,89.522 93.853 C 88.898 96.354,88.906 96.382,90.552 97.475 C 91.394 98.034,93.190 98.865,94.543 99.323 C 97.186 100.216,102.005 102.895,103.603 104.360 C 105.598 106.188,104.446 107.202,100.029 107.507 C 98.482 107.614,96.124 107.955,94.789 108.264 C 93.455 108.573,90.720 109.129,88.712 109.499 C 84.885 110.204,82.581 111.185,78.698 113.762 C 72.030 118.188,73.099 124.305,80.992 126.886 C 83.806 127.806,83.734 128.516,80.647 130.253 C 71.584 135.349,69.608 137.559,69.183 143.070 C 68.865 147.197,70.300 149.663,74.221 151.723 C 76.228 152.777,76.379 152.971,76.580 154.737 C 76.784 156.537,79.611 156.555,84.035 154.784 C 86.535 153.783,91.319 152.495,91.865 152.677 C 92.447 152.871,92.286 153.663,90.931 157.265 C 86.966 167.809,90.260 171.350,100.850 167.926 C 111.063 164.624,111.871 163.992,115.591 156.404 C 117.027 153.477,117.649 152.527,118.829 151.467 C 121.377 149.175,121.759 149.964,119.932 153.747 C 119.326 155.004,118.443 156.889,117.972 157.937 C 117.230 159.587,116.920 159.954,115.665 160.671 C 112.683 162.373,111.401 166.167,113.806 166.167 C 114.479 166.167,117.578 170.291,119.537 173.792 C 121.848 177.923,122.002 177.477,117.152 180.705 C 108.592 186.402,109.603 192.569,119.422 194.557 C 124.708 195.627,125.261 195.994,124.195 197.719 C 123.437 198.946,122.806 199.329,120.032 200.249 C 115.709 201.683,109.350 206.391,109.350 208.158 C 109.350 209.213,110.854 210.516,113.419 211.684 C 116.073 212.892,116.181 213.270,114.529 215.585 C 108.821 223.583,115.363 229.069,126.110 225.295 C 129.894 223.966,130.416 224.078,131.323 226.410 C 131.815 227.676,132.512 228.750,133.517 229.793 L 134.990 231.320 137.231 231.220 C 139.820 231.105,139.704 230.837,138.603 234.404 C 135.867 243.266,140.060 247.104,149.532 244.406 C 153.625 243.240,154.461 243.549,154.461 246.227 C 154.461 257.723,166.168 262.354,174.894 254.309 C 178.911 250.605,179.805 250.231,181.870 251.388 C 188.674 255.203,190.038 255.205,193.755 251.409 C 196.376 248.733,197.387 246.664,198.300 242.108 C 199.314 237.045,200.103 237.282,203.057 243.540 C 206.106 249.998,208.068 250.939,213.155 248.383 C 216.540 246.683,216.905 246.771,220.700 250.222 C 225.069 254.195,231.140 254.813,233.520 251.527 C 235.215 249.187,235.632 247.559,235.769 242.749 C 235.915 237.600,235.843 237.704,239.054 237.995 C 246.680 238.686,248.065 235.345,243.720 226.745 C 240.949 221.262,240.885 221.561,244.969 220.944 C 246.774 220.671,249.086 220.244,250.107 219.995 C 255.453 218.689,259.965 219.124,264.383 221.372 C 266.031 222.211,268.922 223.687,270.807 224.652 C 275.494 227.053,277.000 226.917,281.077 223.726 C 283.753 221.631,287.460 221.684,292.005 223.881 C 298.989 227.258,307.570 225.156,310.364 219.386 C 311.179 217.701,311.395 214.293,310.916 210.670 C 310.455 207.190,310.533 207.069,312.787 207.724 C 318.312 209.330,322.221 207.138,321.976 202.570 C 321.677 197.004,318.905 192.537,313.128 188.315 C 309.518 185.676,305.884 180.218,306.996 179.106 C 307.636 178.466,314.214 179.664,317.679 181.051 C 321.719 182.669,325.719 182.406,329.816 180.253 C 333.301 178.422,333.878 176.110,331.827 172.198 C 330.680 170.009,330.677 169.429,331.804 168.266 C 333.547 166.468,331.443 164.130,325.440 161.195 C 318.630 157.865,318.333 157.301,322.341 155.317 C 325.486 153.761,327.361 151.103,326.605 149.275 C 325.330 146.199,316.926 142.577,310.350 142.271 L 307.066 142.117 301.943 139.840 C 293.467 136.072,290.798 133.730,292.751 131.777 C 293.622 130.906,293.900 130.897,297.930 131.621 C 299.657 131.931,302.163 132.318,303.498 132.482 C 304.832 132.646,307.209 133.112,308.779 133.518 C 316.230 135.444,320.899 134.013,319.781 130.146 C 318.986 127.397,319.020 127.339,321.990 126.335 C 332.052 122.932,330.763 114.333,319.960 112.803 C 316.697 112.341,316.574 111.795,319.375 110.214 C 323.191 108.060,322.860 105.391,318.513 103.262 C 315.849 101.958,314.673 101.803,307.325 101.794 C 297.533 101.781,297.138 101.158,304.104 96.722 C 311.147 92.236,311.049 85.912,303.928 85.432 C 301.484 85.267,300.928 84.862,300.928 83.246 C 300.928 79.967,297.913 79.931,291.202 83.131 C 285.916 85.651,284.731 85.341,286.061 81.787 C 288.769 74.549,283.613 73.111,273.810 78.369 C 270.644 80.067,269.567 80.500,267.821 80.775 C 265.832 81.088,264.787 81.446,261.047 83.098 C 259.599 83.738,259.491 83.744,255.908 83.395 C 252.772 83.089,251.904 83.100,249.846 83.474 C 246.745 84.037,246.395 83.872,246.395 81.849 C 246.395 80.109,246.933 78.910,248.606 76.915 C 250.362 74.821,255.706 66.674,256.888 64.288 C 258.720 60.591,258.426 56.817,256.305 56.817 C 255.838 56.817,254.964 56.669,254.364 56.490 C 252.891 56.048,252.202 56.529,250.975 58.857 C 249.730 61.217,243.029 70.208,240.986 72.259 C 238.120 75.135,234.935 75.828,232.508 74.103 C 229.313 71.833,226.408 70.530,219.168 68.121 C 210.809 65.339,211.032 65.440,206.852 62.567 C 202.525 59.594,200.358 57.479,199.548 55.438 C 199.195 54.548,198.549 53.098,198.113 52.218 C 197.677 51.337,197.048 49.551,196.716 48.247 C 194.461 39.417,189.998 36.577,187.447 42.349 C 186.419 44.675,186.045 44.369,185.848 41.041 C 185.670 38.041,185.108 36.778,183.537 35.850 C 182.711 35.362,181.088 35.731,180.602 36.518 C 179.949 37.575,178.715 37.745,177.690 36.920 C 175.119 34.850,173.152 34.561,170.984 35.936 M140.878 78.502 C 143.912 79.289,144.976 80.357,143.743 81.380 C 142.203 82.658,133.696 79.436,134.629 77.927 C 134.916 77.462,137.940 77.739,140.878 78.502 M197.802 117.973 C 198.683 118.854,198.189 119.997,194.541 125.518 C 192.090 129.227,192.134 129.193,187.866 130.691 C 186.060 131.324,183.276 132.430,181.679 133.148 C 178.790 134.447,177.302 134.963,177.302 134.668 C 177.302 133.410,178.853 131.700,184.582 126.641 C 193.553 118.720,196.570 116.742,197.802 117.973 " stroke="none" fill="#77a94c" fill-rule="evenodd"></path></g></svg>